<?xml version="1.0" standalone="no"?>
<!DOCTYPE svg PUBLIC "-//W3C//DTD SVG 1.1//EN" "http://www.w3.org/Graphics/SVG/1.1/DTD/svg11.dtd" >
<svg xmlns="http://www.w3.org/2000/svg" xmlns:xlink="http://www.w3.org/1999/xlink" version="1.1">
<metadata>
Created by FontForge 20200314 at Wed Jun 29 10:01:01 2016
 By Unknown
(c) 2011 Klim Type Foundry. All rights reserved.
</metadata>
<defs>
<font id="DomaineDisplayCondensed-Medium" horiz-adv-x="500" >
  <font-face 
    font-family="Copyright Klim Type Foundry"
    font-weight="510"
    font-stretch="normal"
    units-per-em="1000"
    panose-1="0 0 0 0 0 0 0 0 0 0"
    ascent="800"
    descent="-200"
    x-height="489"
    cap-height="700"
    bbox="-115 -234 934 1022"
    underline-thickness="0"
    underline-position="0"
    unicode-range="U+000D-FB04"
  />
<missing-glyph 
 />
    <glyph glyph-name="ff" unicode="ff" horiz-adv-x="480" 
d="M164 604v-116h127v72v8.5v8.5q-14 1 -26.5 9t-19.5 19q22 6 33 21t11 39q0 26 -14 39.5t-39 13.5q-36 0 -54 -28t-18 -86zM205 2v-2h-190v2q27 15 34 32t7 68v360h-56v7l56 22v52q0 87 50.5 139t129.5 52q32 0 58.5 -8.5t42.5 -24.5q23 25 55 38.5t70 13.5q53 0 84 -23
t31 -64q0 -33 -19 -52.5t-50 -19.5q-17 0 -31.5 8t-22.5 21q24 10 33.5 24.5t9.5 38.5q0 26 -9.5 38.5t-28.5 12.5q-30 0 -45.5 -32.5t-15.5 -93.5v-123h81l-5 -26h-76v-366q0 -21 2 -35t6 -23t11.5 -16t32.5 -20v-2h-200v2q27 15 34 32t7 63v365h-127v-361q0 -48 7.5 -66
t33.5 -33z" />
    <glyph glyph-name="fi" unicode="fi" horiz-adv-x="453" 
d="M250 737q-40 0 -63 -37.5t-23 -101.5v-109h234v-388q0 -49 7.5 -66.5t34.5 -32.5v-2h-190v2q27 15 34 32.5t7 66.5v313q0 26 -11.5 37.5t-36.5 11.5h-79v-362q0 -48 7.5 -66t33.5 -33v-2h-190v2q27 15 34 32t7 68v360h-56v7l56 22v41q0 105 51.5 163t142.5 58
q65 0 104 -26t39 -70q0 -31 -20.5 -50t-52.5 -19q-18 0 -33 6.5t-23 18.5q21 4 32 20t11 42q0 30 -15 46t-42 16z" />
    <glyph glyph-name="fl" unicode="fl" horiz-adv-x="453" 
d="M396 755h2v-654q0 -49 7.5 -66.5t34.5 -32.5v-2h-190v2q27 15 34 32.5t7 66.5v574q0 26 -17 44t-45 18q-32 0 -48.5 -25t-16.5 -73v-151h94l-5 -26h-89v-361q0 -48 7.5 -66t33.5 -33v-2h-190v2q27 15 34 32t7 68v360h-56v7l56 22v81q0 85 44 133t120 48q33 0 58.5 -11.5
t43.5 -35.5q21 8 37 18t37 31z" />
    <glyph glyph-name="ffi" unicode="ffi" horiz-adv-x="688" 
d="M164 604v-115h127v43q0 12 0.5 22.5t2.5 21.5q-15 1 -28.5 9t-20.5 20q22 6 33 21t11 39q0 26 -14 39.5t-39 13.5q-36 0 -54 -28t-18 -86zM205 2v-2h-190v2q27 15 34 32t7 68v360h-56v7l56 22v52q0 87 50.5 139t129.5 52q34 0 62.5 -10.5t44.5 -28.5q25 29 60.5 43.5
t80.5 14.5q66 0 105 -26t39 -70q0 -31 -20.5 -50t-52.5 -19q-18 0 -33 6.5t-23 18.5q20 4 31 20t11 42q0 30 -14.5 46t-42.5 16q-40 0 -63 -37.5t-23 -101.5v-109h235v-388q0 -49 7 -66.5t34 -32.5v-2h-189v2q27 15 34 32.5t7 66.5v313q0 26 -11.5 37.5t-37.5 11.5h-79v-362
q0 -49 7.5 -66.5t34.5 -32.5v-2h-190v2q28 16 35 34t6 66v361h-127v-362q0 -48 7.5 -66t33.5 -33z" />
    <glyph glyph-name="ffl" unicode="ffl" horiz-adv-x="688" 
d="M164 604v-116h127v89q-15 1 -27 8.5t-19 19.5q22 6 33 21t11 39q0 26 -14 39.5t-39 13.5q-36 0 -54 -28t-18 -86zM205 2v-2h-190v2q27 15 34 32t7 68v360h-56v7l56 22v52q0 87 50.5 139t129.5 52q30 0 56 -8t42 -22q21 24 52 36.5t69 12.5q33 0 58.5 -12t43.5 -35
q20 8 36 18t38 31h2v-654q0 -49 7 -66.5t34 -32.5v-2h-189v2q27 15 34 32.5t7 66.5v574q0 26 -17 44t-45 18q-32 0 -49 -25.5t-17 -72.5v-151h94l-4 -26h-90v-361q0 -49 7.5 -66.5t34.5 -32.5v-2h-190v2q27 15 34 33t7 67v360h-127v-361q0 -48 7.5 -66t33.5 -33z" />
    <glyph glyph-name="f_b" unicode="fb" horiz-adv-x="697" 
d="M396 755h2v-374q10 57 42 87.5t81 30.5q69 0 113 -70t44 -184q0 -111 -49 -183t-122 -72q-47 0 -80 28.5t-46 81.5q-9 -36 -34.5 -64t-65.5 -45q5 35 7.5 83.5t2.5 138.5v462q0 26 -17 44t-45 18q-32 0 -48.5 -25t-16.5 -73v-151h94l-5 -26h-89v-361q0 -48 7.5 -66
t33.5 -33v-2h-190v2q27 15 34 32t7 68v360h-56v7l56 22v81q0 85 44 133t120 48q33 0 58.5 -11.5t43.5 -35.5q21 8 37 18t37 31zM563 245q0 100 -21 155.5t-60 55.5q-35 0 -59.5 -43.5t-24.5 -112.5v-117q0 -73 23.5 -117t58.5 -44q39 0 61 59.5t22 163.5z" />
    <glyph glyph-name="f_f_b" unicode="ffb" horiz-adv-x="932" 
d="M913 245q0 -111 -49 -183t-122 -72q-47 0 -80 28.5t-46 81.5q-9 -37 -37 -66.5t-63 -42.5q5 35 7.5 83.5t2.5 138.5v462q0 26 -17 44t-45 18q-32 0 -49 -25.5t-17 -72.5v-151h94l-4 -26h-90v-361q0 -49 7.5 -66.5t34.5 -32.5v-2h-190v2q27 15 34 33t7 67v360h-127v-361
q0 -48 7.5 -66t33.5 -33v-2h-190v2q27 15 34 32t7 68v360h-56v7l56 22v52q0 87 50.5 139t129.5 52q30 0 56 -8t42 -22q21 24 52 36.5t69 12.5q33 0 58.5 -12t43.5 -35q20 8 36 18t38 31h2v-374q10 57 42 87.5t81 30.5q68 0 112.5 -70.5t44.5 -183.5zM164 604v-116h127v89
q-15 1 -27 8.5t-19 19.5q22 6 33 21t11 39q0 26 -14 39.5t-39 13.5q-36 0 -54 -28t-18 -86zM798 245q0 100 -21 155.5t-60 55.5q-36 0 -60 -43t-24 -113v-117q0 -73 23.5 -117t58.5 -44q39 0 61 59.5t22 163.5z" />
    <glyph glyph-name="f_h" unicode="fh" horiz-adv-x="687" 
d="M396 755h2v-367q14 53 47 82t78 29q53 0 82.5 -34t29.5 -96v-268q0 -47 7.5 -65t34.5 -34v-2h-190v2q27 15 34.5 32.5t7.5 66.5v263q0 37 -14 55.5t-42 18.5q-34 0 -54.5 -33.5t-20.5 -93.5v-210q0 -49 7 -66.5t34 -32.5v-2h-189v2q27 15 34 32.5t7 66.5v574q0 26 -17 44
t-45 18q-32 0 -48.5 -25t-16.5 -73v-151h94l-5 -26h-89v-361q0 -48 7.5 -66t33.5 -33v-2h-190v2q27 15 34 32t7 68v360h-56v7l56 22v81q0 85 44 133t120 48q33 0 58.5 -11.5t43.5 -35.5q21 8 37 18t37 31z" />
    <glyph glyph-name="f_f_h" unicode="ffh" horiz-adv-x="922" 
d="M164 604v-116h127v89q-15 1 -27 8.5t-19 19.5q22 6 33 21t11 39q0 26 -14 39.5t-39 13.5q-36 0 -54 -28t-18 -86zM205 2v-2h-190v2q27 15 34 32t7 68v360h-56v7l56 22v52q0 87 50.5 139t129.5 52q30 0 56 -8t42 -22q21 24 52 36.5t69 12.5q33 0 58.5 -12t43.5 -35
q20 8 36 18t38 31h2v-367q14 53 46.5 82t78.5 29q53 0 82.5 -34t29.5 -96v-268q0 -47 7.5 -65t34.5 -34v-2h-190v2q27 15 34.5 32.5t7.5 66.5v263q0 37 -14 55.5t-42 18.5q-34 0 -54.5 -33.5t-20.5 -93.5v-210q0 -49 7 -66.5t34 -32.5v-2h-189v2q27 15 34 32.5t7 66.5v574
q0 26 -17 44t-45 18q-32 0 -49 -25.5t-17 -72.5v-151h94l-4 -26h-90v-361q0 -49 7.5 -66.5t34.5 -32.5v-2h-190v2q27 15 34 33t7 67v360h-127v-361q0 -48 7.5 -66t33.5 -33z" />
    <glyph glyph-name="f_idieresis" unicode="f&#xef;" horiz-adv-x="453" 
d="M472 633q0 -24 -17.5 -42t-41.5 -18q-25 0 -41.5 17.5t-16.5 42.5t16.5 43t41.5 18q24 0 41.5 -18.5t17.5 -42.5zM217 737q-26 0 -39.5 -24.5t-13.5 -71.5v-152h234v-388q0 -49 7.5 -66.5t34.5 -32.5v-2h-190v2q27 15 34 32.5t7 66.5v313q0 26 -11.5 37.5t-36.5 11.5h-79
v-362q0 -48 7.5 -66t33.5 -33v-2h-190v2q27 15 34 32t7 68v360h-56v7l56 22v68q0 87 44 140.5t114 53.5q51 0 83.5 -28t32.5 -73q0 -35 -18 -57t-47 -22q-17 0 -31 8t-21 22q20 3 34 23t14 49q0 30 -11.5 46t-32.5 16z" />
    <glyph glyph-name="f_f_idieresis" unicode="ff&#xef;" horiz-adv-x="687" 
d="M706 632q0 -24 -17.5 -42t-41.5 -18q-25 0 -42 17.5t-17 42.5t17 43t42 18q24 0 41.5 -18.5t17.5 -42.5zM164 604v-116h126v70v12t1 7q-15 1 -27 8.5t-19 19.5q22 6 33 21t11 39q0 26 -14 39.5t-39 13.5q-36 0 -54 -28t-18 -86zM205 2v-2h-190v2q27 15 34 32t7 68v360
h-56v7l56 22v52q0 87 50.5 139t129.5 52q32 0 58 -8.5t42 -24.5q21 25 49.5 38t62.5 13q51 0 83 -28t32 -72q0 -35 -17.5 -57.5t-46.5 -22.5q-17 0 -31 8t-21 22q20 3 34 23t14 49t-12 46t-33 17q-26 0 -39 -24.5t-13 -72.5v-152h234v-388q0 -48 7 -65.5t35 -33.5v-2h-190v2
q27 16 34 33.5t7 65.5v313q0 26 -11 37.5t-37 11.5h-79v-366q0 -21 2 -35t6 -23t11.5 -16t32.5 -20v-2h-200v2q27 15 34 32t7 63v365h-127v-361q0 -48 7.5 -66t33.5 -33z" />
    <glyph glyph-name="f_j" unicode="fj" horiz-adv-x="448" 
d="M243 -233q-57 0 -90 24.5t-33 67.5q0 31 20.5 51.5t50.5 20.5q17 0 32 -8t22 -21q-22 -6 -34 -21.5t-12 -40.5t12 -40.5t32 -15.5q25 0 36.5 26t11.5 90v514q0 26 -11.5 37.5t-36.5 11.5h-79v-362q0 -48 7.5 -66t33.5 -33v-2h-190v2q27 15 34 32t7 68v360h-56v7l56 22v41
q0 105 51.5 163t142.5 58q65 0 104 -26t39 -70q0 -31 -20.5 -50t-52.5 -19q-18 0 -33 6.5t-23 18.5q21 4 32 20t11 42q0 30 -15 46t-42 16q-40 0 -63 -37.5t-23 -101.5v-109h234v-541q0 -87 -41 -134t-114 -47z" />
    <glyph glyph-name="f_f_j" unicode="ffj" horiz-adv-x="683" 
d="M164 604v-115h127v43q0 12 0.5 22.5t2.5 21.5q-15 1 -28.5 9t-20.5 20q22 6 33 21t11 39q0 26 -14 39.5t-39 13.5q-36 0 -54 -28t-18 -86zM478 -233q-57 0 -90.5 24.5t-33.5 67.5q0 30 20.5 51t50.5 21q18 0 33 -8t21 -21q-22 -6 -33.5 -21.5t-11.5 -40.5q0 -26 12 -41
t32 -15q25 0 36.5 26t11.5 90v514q0 26 -11.5 37.5t-37.5 11.5h-79v-362q0 -49 7.5 -66.5t34.5 -32.5v-2h-190v2q28 16 35 34t6 66v361h-127v-362q0 -48 7.5 -66t33.5 -33v-2h-190v2q27 15 34 32t7 68v360h-56v7l56 22v52q0 87 50.5 139t129.5 52q34 0 62.5 -10.5
t44.5 -28.5q25 29 60.5 43.5t80.5 14.5q66 0 105 -26t39 -70q0 -31 -20.5 -50t-52.5 -19q-18 0 -33 6.5t-23 18.5q20 4 31 20t11 42q0 30 -14.5 46t-42.5 16q-40 0 -63 -37.5t-23 -101.5v-109h235v-541q0 -87 -41 -134t-114 -47z" />
    <glyph glyph-name="f_k" unicode="fk" horiz-adv-x="685" 
d="M396 755h2v-475h26q20 0 33 7.5t25 24.5l61 91q7 8 10.5 17.5t3.5 19.5q0 15 -8.5 27.5t-23.5 19.5v2h161v-2q-37 -12 -63.5 -32t-47.5 -51l-64 -96l102 -209q17 -35 37 -58t49 -39v-2h-163q-1 13 -5.5 27t-18.5 45l-79 165q-6 13 -11.5 17.5t-14.5 4.5h-9v-158
q0 -49 7 -66.5t34 -32.5v-2h-189v2q27 15 34 32.5t7 66.5v574q0 26 -17 44t-45 18q-32 0 -48.5 -25t-16.5 -73v-151h94l-5 -26h-89v-361q0 -48 7.5 -66t33.5 -33v-2h-190v2q27 15 34 32t7 68v360h-56v7l56 22v81q0 85 44 133t120 48q33 0 58.5 -11.5t43.5 -35.5q21 8 37 18
t37 31z" />
    <glyph glyph-name="f_f_k" unicode="ffk" horiz-adv-x="920" 
d="M164 604v-116h127v89q-15 1 -27 8.5t-19 19.5q22 6 33 21t11 39q0 26 -14 39.5t-39 13.5q-36 0 -54 -28t-18 -86zM205 2v-2h-190v2q27 15 34 32t7 68v360h-56v7l56 22v52q0 87 50.5 139t129.5 52q30 0 56 -8t42 -22q21 24 52 36.5t69 12.5q33 0 58.5 -12t43.5 -35
q20 8 36 18t38 31h2v-475h26q20 0 32.5 7.5t25.5 24.5l61 91q7 9 10.5 18.5t3.5 18.5q0 15 -8.5 27.5t-23.5 19.5v2h161v-2q-36 -12 -63 -32t-49 -51l-64 -96l102 -209q18 -35 38 -58t49 -39v-2h-163q-2 14 -7 29.5t-17 42.5l-79 165q-6 12 -12 17t-15 5h-8v-158
q0 -49 7 -66.5t34 -32.5v-2h-189v2q27 15 34 32.5t7 66.5v574q0 26 -17 44t-45 18q-32 0 -49 -25.5t-17 -72.5v-151h94l-4 -26h-90v-361q0 -49 7.5 -66.5t34.5 -32.5v-2h-190v2q27 15 34 33t7 67v360h-127v-361q0 -48 7.5 -66t33.5 -33z" />
    <glyph glyph-name=".notdef" 
 />
    <glyph glyph-name=".null" horiz-adv-x="0" 
 />
    <glyph glyph-name="nonmarkingreturn" unicode="&#xd;" 
 />
    <glyph glyph-name="NULL" 
 />
    <glyph glyph-name="NULL" 
 />
    <glyph glyph-name="space" unicode=" " horiz-adv-x="143" 
 />
    <glyph glyph-name="exclam" unicode="!" horiz-adv-x="233" 
d="M114 213l-72 487h149l-72 -487h-5zM116 138q30 0 51 -21t21 -52q0 -30 -21 -51t-51 -21t-51 21t-21 51q0 31 21 52t51 21z" />
    <glyph glyph-name="quotedbl" unicode="&#x22;" horiz-adv-x="326" 
d="M115 546q-7 -32 -13 -63.5t-10 -61.5h-2q-4 30 -10 61.5t-13 63.5q-10 39 -19.5 69.5t-19.5 50.5q9 20 26 32t37 12t37 -12t26 -32q-10 -20 -19.5 -50.5t-19.5 -69.5zM259 546q-7 -32 -13 -63.5t-10 -61.5h-2q-4 30 -10 61.5t-13 63.5q-10 39 -19.5 69.5t-19.5 50.5
q9 20 26 32t37 12t37 -12t26 -32q-10 -20 -19.5 -50.5t-19.5 -69.5z" />
    <glyph glyph-name="numbersign" unicode="#" horiz-adv-x="493" 
d="M164 243h135l30 214h-135zM286 0h-22l32 221h-135l-32 -221h-21l32 221h-121l3 22h121l30 214h-135l4 21h134l32 222h21l-32 -222h135l32 222h22l-32 -222h119l-3 -21h-119l-30 -214h134l-4 -22h-133z" />
    <glyph glyph-name="dollar" unicode="$" horiz-adv-x="472" 
d="M235 692q-5 0 -10 -0.5l-15 -1.5v-255l45 -20v276q-3 1 -7 1h-13zM111 567q0 -45 18.5 -74t64.5 -51v244q-38 -12 -60.5 -44t-22.5 -75zM225 8q6 0 13 0.5t17 1.5v280l-45 19v-300q3 -1 6 -1h9zM371 153q0 48 -21 76.5t-79 53.5v-270q48 12 74 48.5t26 91.5zM225 -10
h-7.5h-7.5v-104h-16v105q-82 7 -132 45.5t-50 94.5q0 35 23 58.5t55 23.5q17 0 31 -6.5t23 -19.5q-21 0 -33.5 -17t-12.5 -45q0 -44 26 -75t70 -39v305l-3 1q-89 38 -125.5 84t-36.5 113q0 75 45 127.5t120 65.5v103h16v-101q4 1 9 1h16h12t8 -1v101h16v-102
q72 -7 115 -40.5t43 -83.5q0 -32 -19.5 -51.5t-48.5 -19.5q-17 0 -31.5 6t-20.5 16q18 1 30.5 18.5t12.5 42.5q0 36 -21.5 60t-59.5 32v-280l18 -8q95 -42 128 -86.5t33 -111.5q0 -80 -49.5 -136.5t-129.5 -71.5v-108h-16v106q-12 -1 -18.5 -1.5t-11.5 -0.5z" />
    <glyph glyph-name="percent" unicode="%" horiz-adv-x="512" 
d="M447 710l-355 -710h-38l351 671q-25 -22 -50 -33t-50 -11q-14 0 -28.5 2.5t-29.5 7.5q8 -17 12.5 -36t4.5 -38q0 -61 -35.5 -104t-86.5 -43t-86.5 43t-35.5 104q0 60 36 103.5t86 43.5q21 0 38.5 -6t45.5 -26q27 -19 44 -25t36 -6q30 0 55.5 12.5t74.5 59.5zM91 563
q0 -63 13 -96.5t38 -33.5t37.5 33t12.5 97q0 63 -13 96.5t-37 33.5q-25 0 -38 -34t-13 -96zM492 142q0 -60 -36 -103.5t-86 -43.5t-86 43.5t-36 103.5q0 61 35.5 104t86.5 43t86.5 -43t35.5 -104zM319 142q0 -62 13 -96t38 -34q24 0 37 33.5t13 96.5q0 64 -12.5 97t-37.5 33
t-38 -33.5t-13 -96.5z" />
    <glyph glyph-name="ampersand" unicode="&#x26;" horiz-adv-x="519" 
d="M169 592q0 -31 10 -61.5t43 -86.5l20 -34q30 25 46 66t16 91q0 56 -18.5 90t-51.5 34q-29 0 -47 -28t-18 -71zM110 196q0 -74 35 -119.5t92 -45.5q22 0 44 8.5t42 24.5l-167 276q-23 -27 -34.5 -63.5t-11.5 -80.5zM514 0h-153l-27 45q-30 -27 -65.5 -41t-74.5 -14
q-79 0 -130.5 47t-51.5 124q0 63 35 111t103 78l-25 42q-25 40 -36.5 75.5t-11.5 71.5q0 74 45.5 122.5t111.5 48.5q69 0 110 -41.5t41 -108.5q0 -54 -37 -96.5t-100 -64.5l142 -243q14 31 21.5 66t8.5 71q1 37 -12.5 57.5t-49.5 37.5v2h148v-2q-27 -12 -38.5 -30.5
t-16.5 -64.5q-4 -42 -16.5 -82.5t-31.5 -76.5l30 -51q17 -30 34.5 -47.5t46.5 -33.5v-2z" />
    <glyph glyph-name="quotesingle" unicode="'" horiz-adv-x="182" 
d="M115 546q-7 -32 -13 -63.5t-10 -61.5h-2q-4 30 -10 61.5t-13 63.5q-10 39 -19.5 69.5t-19.5 50.5q9 20 26 32t37 12t37 -12t26 -32q-10 -20 -19.5 -50.5t-19.5 -69.5z" />
    <glyph glyph-name="parenleft" unicode="(" horiz-adv-x="275" 
d="M39 313q0 138 55.5 250t159.5 186h13q-57 -63 -87.5 -176t-30.5 -260t30.5 -260t87.5 -176h-13q-104 74 -159.5 186t-55.5 250z" />
    <glyph glyph-name="parenright" unicode=")" horiz-adv-x="275" 
d="M236 313q0 -138 -55.5 -250t-159.5 -186h-13q57 63 87.5 176t30.5 260t-30.5 260t-87.5 176h13q104 -74 159.5 -186t55.5 -250z" />
    <glyph glyph-name="asterisk" unicode="*" horiz-adv-x="396" 
d="M190 610q-4 41 -17.5 84t-25.5 55h101q-12 -11 -25 -54.5t-17 -84.5q40 18 75.5 43t42.5 41l32 -96q-16 8 -60.5 7.5t-84.5 -10.5q27 -30 62.5 -57t53.5 -31l-82 -59q4 17 -10.5 59t-36.5 78q-22 -36 -36.5 -78t-10.5 -59l-83 59q18 4 54.5 31t63.5 57q-41 10 -86 10.5
t-60 -7.5l32 96q7 -16 42.5 -41t75.5 -43z" />
    <glyph glyph-name="plus" unicode="+" horiz-adv-x="399" 
d="M356 336v-28h-143v-142h-28v142h-142v28h142v142h28v-142h143z" />
    <glyph glyph-name="comma" unicode="," horiz-adv-x="206" 
d="M131 27q-6 -10 -19.5 -16.5t-28.5 -6.5q-25 0 -42 17.5t-17 43.5q0 30 19.5 49t50.5 19q36 0 58.5 -26.5t22.5 -69.5q0 -67 -43 -106.5t-116 -40.5v13q59 7 90 41.5t25 82.5z" />
    <glyph glyph-name="hyphen" unicode="-" horiz-adv-x="203" 
d="M174 257h-144v39h144v-39z" />
    <glyph glyph-name="period" unicode="." horiz-adv-x="206" 
d="M103 138q30 0 51 -21t21 -52q0 -30 -21 -51t-51 -21t-51 21t-21 51q0 31 21 52t51 21z" />
    <glyph glyph-name="slash" unicode="/" horiz-adv-x="335" 
d="M31 -123h-31l285 872h30z" />
    <glyph glyph-name="zero" unicode="0" horiz-adv-x="512" 
d="M256 710q103 0 166 -100.5t63 -259.5t-63 -259.5t-166 -100.5q-102 0 -165.5 100.5t-63.5 259.5t63.5 259.5t165.5 100.5zM256 11q55 0 79.5 78.5t24.5 260.5t-24.5 260.5t-79.5 78.5t-79.5 -79t-24.5 -260t24.5 -260t79.5 -79z" />
    <glyph glyph-name="one" unicode="1" horiz-adv-x="297" 
d="M290 4v-4h-276v4q36 15 44.5 19t14.5 7q15 9 20 20.5t5 34.5v527q0 23 -6 34.5t-23 21.5q-5 3 -13 7t-49 21v4h200v-615q0 -23 5.5 -34.5t19.5 -19.5q5 -3 12 -7t46 -20z" />
    <glyph glyph-name="two" unicode="2" horiz-adv-x="422" 
d="M285 529q0 84 -23 124t-70 40q-39 0 -65 -35t-26 -89q0 -45 22.5 -72t60.5 -27q13 0 21.5 2t16.5 7h2q-11 -31 -35 -47.5t-58 -16.5q-52 0 -84 34.5t-32 90.5q0 73 50 121.5t127 48.5q94 0 150.5 -51.5t56.5 -139.5q0 -86 -60 -173t-243 -253h133q85 0 114 18.5t58 76.5
h3l-17 -188h-394v2q159 175 225.5 292.5t66.5 234.5z" />
    <glyph glyph-name="three" unicode="3" horiz-adv-x="426" 
d="M103 111q0 -47 22.5 -74.5t62.5 -27.5q50 0 79.5 49t29.5 133q0 88 -38 134.5t-108 46.5v9q60 3 90.5 45t30.5 121q0 71 -20.5 107.5t-59.5 36.5q-33 0 -54.5 -26.5t-21.5 -68.5q0 -33 14 -52t40 -19q8 0 14 1t10 3h2q-9 -24 -28.5 -36.5t-49.5 -12.5q-37 0 -61 26.5
t-24 67.5q0 58 46 97t115 39q86 0 137 -45t51 -119q0 -67 -41.5 -110t-115.5 -55q79 -7 131.5 -59.5t52.5 -130.5q0 -91 -61.5 -146t-158.5 -55q-80 0 -130.5 39.5t-50.5 104.5q0 44 27.5 72t68.5 28q29 0 48 -13t28 -39h-2q-5 3 -10.5 4t-14.5 1q-22 0 -36 -21t-14 -55z
" />
    <glyph glyph-name="four" unicode="4" horiz-adv-x="478" 
d="M49 219h197v371zM246 118v74h-241v2l281 514h70v-489h16q36 0 52 12t36 61h2v-174h-2q-19 50 -35 62t-53 12h-16v-74q0 -54 12 -77.5t44 -38.5v-2h-222v2q32 15 44 38.5t12 77.5z" />
    <glyph glyph-name="five" unicode="5" horiz-adv-x="438" 
d="M104 117q0 -48 23.5 -78.5t61.5 -30.5q57 0 87.5 56t30.5 160q0 86 -30.5 134.5t-84.5 48.5q-31 0 -63 -20.5t-58 -54.5h-1l31 374q40 -8 85.5 -12.5t82.5 -4.5q62 0 85.5 10.5t41.5 36.5h2q0 -78 -32.5 -116t-98.5 -38q-35 0 -77.5 7.5t-71.5 18.5l-19 -221q22 27 58 43
t76 16q82 0 134 -60t52 -153q0 -107 -63 -175t-163 -68q-79 0 -130.5 41t-51.5 108q0 45 28.5 75t68.5 30q29 0 47.5 -12.5t27.5 -39.5h-2q-5 2 -11 3t-14 1q-23 1 -37.5 -20.5t-14.5 -58.5z" />
    <glyph glyph-name="six" unicode="6" horiz-adv-x="481" 
d="M27 329q0 155 75.5 268t186.5 113q69 0 112 -37t43 -97q0 -38 -24 -63.5t-59 -25.5q-29 0 -51 15.5t-29 41.5h2q5 -4 11.5 -5.5t15.5 -1.5q24 0 38.5 19.5t14.5 53.5q0 37 -19.5 59t-53.5 22q-70 0 -112.5 -93t-42.5 -233q0 -10 0.5 -22.5t1.5 -26.5q18 60 53.5 89
t88.5 29q76 0 126 -58t50 -156q0 -101 -56.5 -165.5t-145.5 -64.5q-101 0 -163.5 96.5t-62.5 242.5zM252 10q43 0 67.5 56t24.5 148q0 89 -25 140t-70 51q-43 0 -69.5 -53.5t-26.5 -137.5q0 -92 26.5 -148t72.5 -56z" />
    <glyph glyph-name="seven" unicode="7" horiz-adv-x="426" 
d="M109 700h313v-2l-87 -158q-57 -106 -80.5 -228.5t-18.5 -305.5l-116 -12q12 138 55.5 264.5t141.5 290.5l30 50h-193q-56 0 -85 -20.5t-52 -71.5h-2l21 203q11 -5 29 -7.5t44 -2.5z" />
    <glyph glyph-name="eight" unicode="8" horiz-adv-x="445" 
d="M401 551q0 -57 -35.5 -96.5t-96.5 -54.5q83 -41 122 -92.5t39 -120.5q0 -87 -57 -142t-149 -55q-94 0 -152 49.5t-58 131.5q0 60 39 103t106 59q-53 28 -84.5 78t-31.5 108q0 85 50.5 138t129.5 53q77 0 127.5 -44.5t50.5 -114.5zM221 692q-40 0 -65.5 -35t-25.5 -88
q0 -47 19.5 -79t67.5 -60l40 -23q31 25 45.5 60.5t14.5 84.5q0 63 -26 101.5t-70 38.5zM230 294l-58 34q-34 -23 -52.5 -62.5t-18.5 -91.5q0 -74 34.5 -119.5t91.5 -45.5q52 0 82.5 37.5t30.5 99.5q0 46 -25 80t-85 68z" />
    <glyph glyph-name="nine" unicode="9" horiz-adv-x="481" 
d="M454 371q0 -155 -75.5 -268t-186.5 -113q-69 0 -112 37t-43 97q0 38 24 63.5t59 25.5q29 0 51 -15.5t29 -41.5h-2q-5 4 -11.5 5.5t-15.5 1.5q-24 0 -38.5 -19.5t-14.5 -53.5q0 -37 19.5 -59t53.5 -22q70 0 112.5 93t42.5 233q0 10 -0.5 22.5t-1.5 26.5q-18 -60 -53.5 -89
t-88.5 -29q-76 0 -126 58t-50 156q0 101 56.5 165.5t145.5 64.5q101 0 163.5 -96.5t62.5 -242.5zM229 690q-43 0 -67.5 -56t-24.5 -148q0 -89 25 -140t70 -51q43 0 69.5 53.5t26.5 137.5q0 92 -26.5 148t-72.5 56z" />
    <glyph glyph-name="colon" unicode=":" horiz-adv-x="206" 
d="M103 138q30 0 51 -21t21 -52q0 -30 -21 -51t-51 -21t-51 21t-21 51q0 31 21 52t51 21zM103 447q30 0 51 -21t21 -52q0 -30 -21 -51t-51 -21t-51 21t-21 51q0 31 21 52t51 21z" />
    <glyph glyph-name="semicolon" unicode=";" horiz-adv-x="206" 
d="M131 27q-6 -10 -19.5 -16.5t-28.5 -6.5q-25 0 -42 17.5t-17 43.5q0 30 19.5 49t50.5 19q36 0 58.5 -26.5t22.5 -69.5q0 -67 -43 -106.5t-116 -40.5v13q59 7 90 41.5t25 82.5zM103 447q30 0 51 -21t21 -52q0 -30 -21 -51t-51 -21t-51 21t-21 51q0 31 21 52t51 21z" />
    <glyph glyph-name="less" unicode="&#x3c;" horiz-adv-x="271" 
d="M244 178l-228 133v18l228 133v-31l-193 -111l193 -111v-31z" />
    <glyph glyph-name="equal" unicode="=" horiz-adv-x="404" 
d="M359 362h-314v28h314v-28zM359 256h-314v28h314v-28z" />
    <glyph glyph-name="greater" unicode="&#x3e;" horiz-adv-x="271" 
d="M27 462l227 -133v-18l-227 -133v31l193 111l-193 111v31z" />
    <glyph glyph-name="question" unicode="?" horiz-adv-x="421" 
d="M308 558q0 59 -29.5 95.5t-78.5 36.5q-44 0 -70 -29.5t-26 -77.5q0 -36 17 -59t43 -23q9 0 18 3t15 9l1 -1q-10 -31 -31.5 -48.5t-50.5 -17.5q-42 0 -70 30.5t-28 77.5q0 68 52 112t132 44q89 0 144.5 -54t55.5 -138q0 -86 -54 -151t-143 -91v-67h-20v176q60 18 91.5 62
t31.5 111zM122 65q0 31 20.5 52t50.5 21q31 0 52 -21t21 -52q0 -30 -21 -51t-52 -21q-30 0 -50.5 21t-20.5 51z" />
    <glyph glyph-name="at" unicode="@" horiz-adv-x="673" 
d="M441 378q14 26 38.5 49t45.5 30l-57 -296q-8 -42 1.5 -63.5t36.5 -21.5q43 0 73 70.5t30 181.5q0 143 -69 229.5t-180 86.5q-121 0 -200.5 -117.5t-79.5 -296.5q0 -164 78 -264t203 -100q75 0 129.5 23t104.5 76l3 -5q-44 -61 -107 -92.5t-139 -31.5q-149 0 -241.5 108
t-92.5 287q0 83 21.5 158t62.5 134q49 69 116 107t142 38q129 0 212 -94t83 -246q0 -129 -47 -207t-117 -78q-43 0 -69 24.5t-31 71.5q-17 -47 -44 -71.5t-62 -24.5q-49 0 -80 42t-31 109q0 109 52 187.5t126 78.5q34 0 58 -22.5t31 -59.5zM319 84q26 0 45.5 36t31.5 105
l17 87q11 58 1 89t-38 31q-44 0 -78 -76t-34 -168q0 -52 14 -78t41 -26z" />
    <glyph glyph-name="A" unicode="A" horiz-adv-x="541" 
d="M308 255l-79 248l-79 -248h158zM102 82q0 -29 12.5 -49t37.5 -31v-2h-153v2q27 15 45 43t37 87l191 578h3l196 -598q19 -58 32 -76.5t38 -33.5v-2h-216v2q20 9 29.5 22.5t9.5 32.5q0 11 -2.5 25t-8.5 33l-36 113h-176l-29 -91q-5 -16 -7.5 -29.5t-2.5 -25.5z" />
    <glyph glyph-name="B" unicode="B" horiz-adv-x="503" 
d="M481 185q0 -92 -62.5 -138.5t-184.5 -46.5h-220v2q31 15 42 38t11 78v464q0 55 -11 78t-42 38v2h204q108 0 168 -46t60 -132q0 -67 -47 -110t-123 -50q87 -5 146 -53.5t59 -123.5zM180 677v-308h21q64 0 99.5 39.5t35.5 112.5q0 74 -35.5 115t-99.5 41h-21zM180 346v-323
h35q72 0 111.5 42t39.5 120q0 77 -39.5 119t-111.5 42h-35z" />
    <glyph glyph-name="C" unicode="C" horiz-adv-x="465" 
d="M379 681q14 0 27 7.5t21 21.5l8 -242h-3q-25 100 -64.5 159.5t-83.5 59.5q-64 0 -98.5 -86t-34.5 -239q0 -143 40 -226t108 -83q51 0 85 37.5t54 113.5l7 -2q-13 -98 -63.5 -155t-124.5 -57q-103 0 -168 98.5t-65 257.5q0 156 72 260t178 104q14 0 27.5 -3.5t36.5 -13.5
q17 -7 25.5 -9.5t15.5 -2.5z" />
    <glyph glyph-name="D" unicode="D" horiz-adv-x="539" 
d="M208 0h-194v2q31 15 42 38t11 78v464q0 55 -11 78t-42 38v2h179q146 0 234 -92t88 -251q0 -164 -85.5 -260.5t-221.5 -96.5zM180 676v-652h21q93 0 141.5 84.5t48.5 248.5q0 153 -52.5 236t-147.5 83h-11z" />
    <glyph glyph-name="E" unicode="E" horiz-adv-x="464" 
d="M14 698v2h334q22 0 34 2t19 6l24 -178h-2q-43 84 -90.5 115.5t-122.5 31.5h-30v-308h14q62 0 89 22t52 90h2v-232h-2q-22 60 -46.5 79.5t-94.5 19.5h-14v-325h36q79 0 130 37t92 128h2l-22 -188h-404v2q31 15 42 38t11 78v464q0 55 -11 78t-42 38z" />
    <glyph glyph-name="F" unicode="F" horiz-adv-x="434" 
d="M194 339h-14v-224q0 -54 14 -75t55 -38v-2h-235v2q31 15 42 38t11 78v464q0 55 -11 78t-42 38v2h331q22 0 33.5 2t18.5 6l24 -194h-2q-42 93 -89.5 128t-122.5 35h-27v-317h14q62 0 89 22t52 90h2v-232h-2q-22 60 -46.5 79.5t-94.5 19.5z" />
    <glyph glyph-name="G" unicode="G" horiz-adv-x="513" 
d="M283 687q-63 0 -98.5 -91.5t-35.5 -254.5q0 -156 31 -237.5t91 -81.5q41 0 66.5 38t25.5 101v49q0 51 -11.5 75.5t-41.5 41.5v2h193v-2q-20 -14 -27.5 -36.5t-7.5 -79.5v-221h-2l-77 103q-14 -47 -52.5 -75t-90.5 -28q-96 0 -159 99t-63 251q0 68 14.5 128.5t41.5 109.5
q36 63 86.5 97.5t107.5 34.5q15 0 30.5 -3.5t41.5 -13.5q18 -8 27 -10t16 -2q15 0 27.5 7.5t21.5 21.5l9 -242h-3q-27 99 -70 159t-91 60z" />
    <glyph glyph-name="H" unicode="H" horiz-adv-x="565" 
d="M67 118v464q0 55 -11 78t-42 38v2h219v-2q-31 -15 -42 -38t-11 -78v-211h206v211q0 55 -11.5 78t-42.5 38v2h220v-2q-31 -15 -42.5 -38t-11.5 -78v-464q0 -55 11.5 -78t42.5 -38v-2h-220v2q31 15 42.5 38t11.5 78v226h-206v-226q0 -55 11 -78t42 -38v-2h-219v2
q31 15 42 38t11 78z" />
    <glyph glyph-name="I" unicode="I" horiz-adv-x="247" 
d="M180 582v-464q0 -55 11 -78t42 -38v-2h-219v2q31 15 42 38t11 78v464q0 55 -11 78t-42 38v2h219v-2q-31 -15 -42 -38t-11 -78z" />
    <glyph glyph-name="J" unicode="J" horiz-adv-x="443" 
d="M187 9q42 0 64 39t22 113v421q0 55 -11 78t-42 38v2h219v-2q-31 -15 -42 -38t-11 -78v-389q0 -94 -55.5 -148.5t-146.5 -54.5q-79 0 -128 38t-49 102q0 44 27.5 71t70.5 27q24 0 44.5 -9.5t30.5 -26.5q-28 -3 -48 -27.5t-20 -60.5q0 -44 20 -69.5t55 -25.5z" />
    <glyph glyph-name="K" unicode="K" horiz-adv-x="546" 
d="M233 2v-2h-219v2q31 15 42 38t11 78v464q0 55 -11 78t-42 38v2h219v-2q-31 -15 -42 -38t-11 -78v-267l190 286q8 12 12 23t4 20q0 17 -11 31t-31 23v2h194v-2q-48 -14 -81.5 -38.5t-60.5 -66.5l-110 -167l174 -314q30 -53 50.5 -76t45.5 -34v-2h-217v2q11 8 17 18t6 23
q0 12 -4 25.5t-13 30.5l-130 230l-35 -53v-158q0 -55 11 -78t42 -38z" />
    <glyph glyph-name="L" unicode="L" horiz-adv-x="446" 
d="M14 698v2h219v-2q-31 -15 -42 -38t-11 -78v-559h44q75 0 119 38t92 151h2l-20 -212h-403v2q31 15 42 38t11 78v464q0 55 -11 78t-42 38z" />
    <glyph glyph-name="M" unicode="M" horiz-adv-x="637" 
d="M96 634v-492q0 -58 16.5 -90.5t56.5 -49.5v-2h-172v2q37 17 53.5 48t16.5 84v448q0 55 -11 78t-42 38v2h180l132 -475l124 475h174v-2q-32 -15 -43.5 -38.5t-11.5 -77.5v-462q0 -49 14 -75t49 -43v-2h-234v2q34 17 48 43.5t14 74.5v514l-173 -645h-4z" />
    <glyph glyph-name="N" unicode="N" horiz-adv-x="516" 
d="M522 700v-2q-37 -17 -53.5 -48.5t-16.5 -83.5v-573h-24l-332 634v-485q0 -58 16.5 -90.5t56.5 -49.5v-2h-172v2q37 17 53.5 48t16.5 84v448q0 55 -11 78t-42 38v2h175l234 -454v312q0 58 -16.5 90.5t-56.5 49.5v2h172z" />
    <glyph glyph-name="O" unicode="O" horiz-adv-x="540" 
d="M270 710q104 0 175 -103t71 -257t-71 -257t-175 -103q-105 0 -175.5 102.5t-70.5 257.5t70.5 257.5t175.5 102.5zM270 12q58 0 87 85t29 253t-29 253t-87 85t-87 -84t-29 -254t29 -254t87 -84z" />
    <glyph glyph-name="P" unicode="P" horiz-adv-x="496" 
d="M482 493q0 -95 -66 -150.5t-176 -55.5h-61v-172q0 -53 14 -74.5t56 -38.5v-2h-236v2q31 15 42.5 38t11.5 78v464q0 55 -11.5 78t-42.5 38v2h227q110 0 176 -55.5t66 -151.5zM179 676v-365h35q72 0 111 48t39 134q0 87 -39 135t-111 48h-35z" />
    <glyph glyph-name="Q" unicode="Q" horiz-adv-x="540" 
d="M450 -85q-30 0 -54 20.5t-48 70.5q-18 -8 -38 -12.5t-40 -4.5q-105 0 -175.5 102.5t-70.5 257.5t70.5 257.5t175.5 102.5q104 0 175 -103t71 -257q0 -96 -29.5 -176t-82.5 -129q16 -21 33 -30.5t36 -9.5q21 0 35 12t17 34h3q14 -58 -8 -96.5t-70 -38.5zM270 687
q-58 0 -87 -84t-29 -254q0 -91 8 -157t25 -107q-5 38 16.5 64.5t57.5 26.5q28 0 51.5 -15t48.5 -51q13 41 19 100.5t6 138.5q0 168 -29 253t-87 85zM201 56q13 -22 30.5 -33.5t38.5 -11.5q18 0 33 8t28 25q-26 61 -44 80.5t-40 19.5q-28 0 -42.5 -25.5t-3.5 -62.5z" />
    <glyph glyph-name="R" unicode="R" horiz-adv-x="522" 
d="M206 675h-26v-323h26q76 0 115 41.5t39 122.5q0 77 -39.5 118t-114.5 41zM14 698v2h219q119 0 183.5 -47.5t64.5 -137.5q0 -79 -59 -126t-155 -51q71 -5 114.5 -38.5t54.5 -92.5l16 -82q10 -53 29.5 -79t64.5 -44v-2h-167q-13 16 -24 44.5t-17 63.5l-15 98
q-11 65 -40 93.5t-80 28.5h-23v-210q0 -55 11 -78t42 -38v-2h-219v2q31 15 42 38t11 78v464q0 55 -11 78t-42 38z" />
    <glyph glyph-name="S" unicode="S" horiz-adv-x="436" 
d="M222 688q-44 0 -73.5 -34t-29.5 -85q0 -44 25 -78.5t103 -80.5q57 -34 79.5 -51t38.5 -35q25 -28 37.5 -61.5t12.5 -73.5q0 -88 -57.5 -143.5t-141.5 -55.5q-20 0 -39.5 3.5t-50.5 14.5q-20 7 -28.5 9t-15.5 2q-14 0 -24.5 -6t-24.5 -23l-13 245h2q35 -103 86.5 -163
t105.5 -60q50 0 80 34t30 91q0 31 -11.5 57.5t-35.5 50.5q-13 13 -31.5 27t-66.5 43q-92 56 -122 100.5t-30 102.5q0 84 55 138t138 54q18 0 35 -3t43 -13q16 -6 23.5 -7.5t14.5 -1.5q13 0 23 5.5t19 19.5l10 -219h-2q-40 117 -76.5 157t-87.5 40z" />
    <glyph glyph-name="T" unicode="T" horiz-adv-x="548" 
d="M82 700h384q22 0 34 2t19 6l15 -224h-2q-22 56 -36 85.5t-28 48.5q-23 33 -53 47.5t-74 14.5h-11v-569q0 -48 12.5 -70t49.5 -39v-2h-235v2q37 17 49 39.5t12 69.5v569h-10q-44 0 -74 -14.5t-53 -46.5q-14 -20 -28.5 -49t-36.5 -86h-2l15 224q7 -4 19 -6t34 -2z" />
    <glyph glyph-name="U" unicode="U" horiz-adv-x="512" 
d="M456 566v-361q0 -97 -52.5 -156t-142.5 -59q-99 0 -152 56.5t-53 161.5v374q0 55 -11 78t-42 38v2h219v-2q-31 -15 -42 -38t-11 -78v-368q0 -87 31.5 -130t95.5 -43q61 0 96 45t35 122v350q0 58 -16.5 90.5t-56.5 49.5v2h172v-2q-37 -17 -53.5 -48t-16.5 -84z" />
    <glyph glyph-name="V" unicode="V" horiz-adv-x="541" 
d="M315 195l112 366q5 18 7.5 31t2.5 25q0 30 -12.5 50t-37.5 31v2h154v-2q-26 -14 -44 -43t-38 -89l-184 -576h-3l-202 598q-21 60 -33.5 78t-37.5 32v2h217v-2q-20 -9 -29.5 -22t-9.5 -32q0 -12 3 -27t9 -32z" />
    <glyph glyph-name="W" unicode="W" horiz-adv-x="725" 
d="M483 -10h-4l-114 450l-119 -450h-4l-177 598q-16 57 -28.5 76.5t-37.5 33.5v2h210v-2q-20 -9 -29 -21.5t-9 -31.5q0 -10 2.5 -23.5t9.5 -36.5l101 -357l68 263l-25 97q-13 52 -26 73.5t-40 36.5v2h206v-2q-21 -9 -30 -22t-9 -33q0 -6 1 -13.5t9 -44.5l82 -363l93 344
q4 14 6 27.5t2 24.5q0 29 -13 49t-38 31v2h155v-2q-28 -15 -47.5 -45.5t-35.5 -85.5z" />
    <glyph glyph-name="X" unicode="X" horiz-adv-x="537" 
d="M127 59q0 -17 7.5 -31.5t23.5 -25.5v-2h-159v2q35 16 63 44t49 69l112 225l-121 248q-24 49 -42.5 73t-40.5 37v2h203v-2q-10 -8 -15.5 -19t-5.5 -24q0 -12 4 -26.5t13 -31.5l81 -167l72 149q9 19 13 34t4 28q0 18 -8 32t-24 25v2h155v-2q-36 -16 -61.5 -43t-46.5 -70
l-91 -182l142 -291q28 -55 45.5 -77t38.5 -33v-2h-204v2q11 8 16.5 19t5.5 24q0 11 -4 24t-13 34l-102 209l-93 -191q-8 -18 -12.5 -33.5t-4.5 -28.5z" />
    <glyph glyph-name="Y" unicode="Y" horiz-adv-x="525" 
d="M189 597l113 -266l112 250q7 15 10.5 28t3.5 25q0 22 -12 38t-35 26v2h145v-2q-24 -16 -39.5 -36t-34.5 -62l-137 -308v-181q0 -48 12 -70t48 -39v-2h-229v2q36 17 48 39t12 70v181l-137 308q-20 44 -34 63t-36 35v2h211v-2q-19 -12 -26.5 -23.5t-7.5 -26.5
q0 -10 3.5 -23t9.5 -28z" />
    <glyph glyph-name="Z" unicode="Z" horiz-adv-x="483" 
d="M457 212l-21 -212h-424v2l311 676h-88q-66 0 -109.5 -34t-93.5 -138h-2l20 202q7 -4 19 -6t34 -2h351v-2l-309 -676h91q78 0 123 37t96 153h2z" />
    <glyph glyph-name="bracketleft" unicode="[" horiz-adv-x="269" 
d="M251 -123h-185v872h185v-4l-88 -32v-799l88 -33v-4z" />
    <glyph glyph-name="backslash" unicode="\" horiz-adv-x="335" 
d="M20 749h31l284 -872h-30z" />
    <glyph glyph-name="bracketright" unicode="]" horiz-adv-x="269" 
d="M18 -119l88 33v799l-88 32v4h185v-872h-185v4z" />
    <glyph glyph-name="asciicircum" unicode="^" horiz-adv-x="341" 
d="M36 412l133 298h4l132 -298h-38l-96 221l-97 -221h-38z" />
    <glyph glyph-name="underscore" unicode="_" horiz-adv-x="245" 
d="M216 -102h-186v39h186v-39z" />
    <glyph glyph-name="grave" unicode="`" 
d="M173 727h102q0 -63 8 -108t24 -76h-4q-56 40 -87 83.5t-43 100.5z" />
    <glyph glyph-name="a" unicode="a" horiz-adv-x="407" 
d="M392 36q8 0 14.5 2.5t10.5 6.5v-2q-10 -24 -32 -37.5t-51 -13.5q-36 0 -58.5 21.5t-26.5 61.5l-1 19q-8 -46 -38.5 -73.5t-75.5 -27.5q-50 0 -80.5 31.5t-30.5 83.5q0 56 39 93t142 67l43 12v123q0 36 -16.5 56.5t-44.5 20.5q-25 0 -40.5 -18.5t-15.5 -48.5
q0 -29 11 -44.5t32 -15.5q3 0 6.5 1t6.5 2q-6 -22 -24 -34.5t-42 -12.5q-34 0 -54 20t-20 56q0 50 42.5 82t106.5 32q82 0 121 -35.5t39 -109.5v-59.5t-1 -93.5q-1 -49 -1 -71.5v-39.5q0 -26 10 -40t29 -14zM246 154l1 107l-27 -9q-50 -17 -72 -46t-22 -75q0 -37 14.5 -57.5
t40.5 -20.5q30 0 47 26.5t18 74.5z" />
    <glyph glyph-name="b" unicode="b" horiz-adv-x="457" 
d="M438 245q0 -111 -49 -183t-122 -72q-47 0 -80 28.5t-46 81.5q-9 -37 -39 -68.5t-61 -40.5q6 35 8.5 83t2.5 139v426q0 48 -9 69.5t-38 38.5v2h153v-368q11 57 43 87.5t81 30.5q68 0 112 -70t44 -184zM241 22q39 0 60.5 59.5t21.5 163.5q0 100 -21 155.5t-59 55.5
q-36 0 -60.5 -43.5t-24.5 -112.5v-117q0 -73 23.5 -117t59.5 -44z" />
    <glyph glyph-name="c" unicode="c" horiz-adv-x="368" 
d="M273 419q0 30 -12.5 45.5t-37.5 15.5q-42 0 -68.5 -58.5t-26.5 -154.5q0 -105 28.5 -161t82.5 -56q42 0 68 27.5t37 83.5l7 -1q-7 -82 -47 -126t-107 -44q-78 0 -128.5 69t-50.5 180q0 109 60 184.5t142 75.5q58 0 93.5 -29t35.5 -77q0 -34 -20.5 -55t-52.5 -21
q-24 0 -41 11.5t-21 31.5q2 -1 5 -1h9q20 0 32.5 16.5t12.5 43.5z" />
    <glyph glyph-name="d" unicode="d" horiz-adv-x="460" 
d="M134 244q0 -100 21 -155.5t59 -55.5q36 0 60.5 43.5t24.5 113.5v107q0 72 -24 117t-60 45q-38 0 -59.5 -57t-21.5 -158zM179 499q49 0 79 -28.5t41 -84.5v253q0 47 -9 69t-38 39v2h153v-640q0 -53 8.5 -73t33.5 -34v-2h-148v108q-11 -57 -43 -87.5t-81 -30.5
q-68 0 -112 69.5t-44 183.5q0 111 46 183.5t114 72.5z" />
    <glyph glyph-name="e" unicode="e" horiz-adv-x="383" 
d="M18 243q0 109 54 182.5t132 73.5q77 0 119 -61t42 -173h-236q0 -104 30 -161t86 -57q40 0 68 29.5t43 86.5l7 -1q-11 -84 -51.5 -128t-107.5 -44q-81 0 -133.5 70t-52.5 183zM204 480q-31 0 -51.5 -53.5t-22.5 -138.5h133q0 111 -14 151.5t-45 40.5z" />
    <glyph glyph-name="f" unicode="f" horiz-adv-x="245" 
d="M56 97v366h-56v7l56 22v68q0 89 47 141t125 52q52 0 83 -23t31 -64q0 -32 -18.5 -52t-49.5 -20q-17 0 -32 8t-23 21q21 4 32.5 20t11.5 43q0 26 -9.5 38.5t-29.5 12.5q-30 0 -45.5 -32.5t-15.5 -93.5v-122h81l-5 -26h-76v-367q0 -21 2 -35t6 -23t11.5 -16t32.5 -20v-2
h-200v2q27 15 34 31.5t7 63.5z" />
    <glyph glyph-name="g" unicode="g" horiz-adv-x="425" 
d="M268 336q0 69 -15.5 107.5t-44.5 38.5t-44.5 -38.5t-15.5 -107.5t15.5 -107t44.5 -38t44.5 38t15.5 107zM424 -46q0 -83 -64.5 -135t-162.5 -52q-84 0 -138 33t-54 89q0 41 31 68.5t84 34.5q-42 6 -67.5 32.5t-25.5 66.5q0 34 25 63t64 43q-36 19 -56 56t-20 83
q0 72 46 117.5t122 45.5q25 0 48.5 -6t44.5 -17q6 43 28 69.5t52 26.5q28 0 44 -15.5t16 -41.5q0 -18 -13 -34.5t-35 -27.5l-1 2q2 5 2.5 9.5t0.5 8.5q0 16 -9.5 26t-25.5 10t-28 -11t-18 -31q30 -22 46.5 -55.5t16.5 -75.5q0 -72 -46 -117t-123 -45q-22 0 -42 4t-37 12
q-20 -9 -31 -22.5t-11 -29.5q0 -21 15.5 -33t42.5 -12h125q74 0 114 -36.5t40 -102.5zM83 -104q0 -51 34.5 -81t91.5 -30q60 0 99 33t39 84q0 47 -26 67.5t-84 20.5h-62q-44 0 -68 -24.5t-24 -69.5z" />
    <glyph glyph-name="h" unicode="h" horiz-adv-x="449" 
d="M6 747v2h154v-361q14 53 47 82t78 29q53 0 82.5 -34t29.5 -96v-268q0 -47 7.5 -65t34.5 -34v-2h-190v2q27 15 34.5 32.5t7.5 66.5v263q0 37 -14 55.5t-42 18.5q-34 0 -54.5 -33.5t-20.5 -93.5v-210q0 -49 7 -66.5t34 -32.5v-2h-189v2q27 15 34 32.5t7 66.5v538
q0 48 -9 69.5t-38 38.5z" />
    <glyph glyph-name="i" unicode="i" horiz-adv-x="218" 
d="M109 576q-28 0 -48 20t-20 48t20 47.5t48 19.5t48 -19.5t20 -47.5t-20 -48t-48 -20zM10 489h153v-388q0 -47 7.5 -65t34.5 -34v-2h-190v2q27 15 34 32t7 67v278q0 49 -9 70.5t-37 37.5v2z" />
    <glyph glyph-name="j" unicode="j" horiz-adv-x="213" 
d="M109 576q-28 0 -48 20t-20 48t20 47.5t48 19.5t48 -19.5t20 -47.5t-20 -48t-48 -20zM8 -233q-57 0 -90 24.5t-33 67.5q0 31 20.5 51.5t50.5 20.5q17 0 32 -8t22 -21q-22 -6 -34 -22t-12 -40q0 -25 12 -40.5t33 -15.5q24 0 35.5 26t11.5 90v479q0 49 -9 70.5t-37 37.5v2
h153v-541q0 -87 -41 -134t-114 -47z" />
    <glyph glyph-name="k" unicode="k" horiz-adv-x="447" 
d="M160 749v-469h26q20 0 33 7.5t25 24.5l61 91q7 8 10.5 17.5t3.5 19.5q0 15 -8.5 27.5t-23.5 19.5v2h161v-2q-37 -12 -63.5 -32t-47.5 -51l-64 -96l102 -209q17 -35 37 -58t49 -39v-2h-163q-1 13 -5.5 27t-18.5 45l-79 165q-6 13 -11.5 17.5t-14.5 4.5h-9v-158
q0 -49 7 -66.5t34 -32.5v-2h-189v2q27 15 34 32.5t7 66.5v538q0 48 -9 69.5t-38 38.5v2h154z" />
    <glyph glyph-name="l" unicode="l" horiz-adv-x="215" 
d="M6 749h154v-648q0 -49 7 -66.5t34 -32.5v-2h-189v2q27 15 34 32.5t7 66.5v538q0 48 -9 69.5t-38 38.5v2z" />
    <glyph glyph-name="m" unicode="m" horiz-adv-x="672" 
d="M283 499q47 0 75 -28t33 -81q14 52 46 80.5t75 28.5q53 0 81 -33.5t28 -96.5v-268q0 -50 7 -67t34 -32v-2h-189v2q27 16 34 34t7 65v263q0 40 -12.5 57t-39.5 17q-32 0 -51 -33.5t-19 -93.5v-210q0 -49 7 -66.5t34 -32.5v-2h-189v2q27 15 34 32.5t7 66.5v263
q0 40 -12.5 57t-38.5 17q-33 0 -52 -33.5t-19 -93.5v-210q0 -47 7.5 -65t34.5 -34v-2h-190v2q27 15 34 32t7 67v278q0 49 -9 70.5t-37 37.5v2h153v-101q14 53 45.5 82t74.5 29z" />
    <glyph glyph-name="n" unicode="n" horiz-adv-x="453" 
d="M10 487v2h153v-101q14 53 47 82t79 29q53 0 82.5 -34t29.5 -96v-268q0 -49 7.5 -66.5t34.5 -32.5v-2h-190v2q27 15 34 32.5t7 66.5v263q0 38 -14 56t-42 18q-34 0 -54.5 -33.5t-20.5 -93.5v-210q0 -47 7.5 -65t34.5 -34v-2h-190v2q27 15 34 32t7 67v278q0 49 -9 70.5
t-37 37.5z" />
    <glyph glyph-name="o" unicode="o" horiz-adv-x="418" 
d="M399 245q0 -111 -54 -183t-136 -72q-83 0 -137 72t-54 183q0 110 54.5 182t136.5 72t136 -72t54 -182zM132 245q0 -115 19.5 -175.5t57.5 -60.5t57 60t19 176t-19 175.5t-57 59.5t-57.5 -60t-19.5 -175z" />
    <glyph glyph-name="p" unicode="p" horiz-adv-x="460" 
d="M327 245q0 99 -21.5 155t-60.5 56q-36 0 -60 -43t-24 -113v-107q0 -74 23.5 -118.5t59.5 -44.5q39 0 61 57t22 158zM281 -10q-49 0 -79.5 29t-40.5 84v-226q0 -46 9.5 -65t42.5 -33v-2h-200v2q27 14 34 31.5t7 66.5v502q0 48 -9 70t-38 38v2h154v-108q10 57 42 87.5
t81 30.5q68 0 113 -70.5t45 -183.5q0 -111 -46.5 -183t-114.5 -72z" />
    <glyph glyph-name="q" unicode="q" horiz-adv-x="453" 
d="M405 275v-399q0 -48 7.5 -65.5t34.5 -31.5v-2h-200v2q33 13 42.5 32t9.5 66v231q-11 -57 -43 -87.5t-81 -30.5q-68 0 -112 69.5t-44 183.5q0 112 48.5 184t121.5 72q47 0 80.5 -28.5t46.5 -81.5q8 35 34 63.5t63 44.5h2q-5 -34 -7.5 -82.5t-2.5 -139.5zM214 33
q36 0 60.5 43.5t24.5 113.5v117q0 72 -24 116t-59 44q-39 0 -60.5 -59.5t-21.5 -163.5q0 -100 21 -155.5t59 -55.5z" />
    <glyph glyph-name="r" unicode="r" horiz-adv-x="363" 
d="M286 334q-12 0 -21 3t-12 8q11 3 19.5 14t8.5 26q0 20 -11.5 31t-32.5 11q-31 0 -52.5 -42t-21.5 -105v-183q0 -40 8.5 -58t43.5 -37v-2h-200v2q27 15 34 32t7 67v278q0 49 -9 70.5t-37 37.5v2h153v-126q14 62 43 98.5t67 36.5q37 0 60 -22.5t23 -59.5q0 -36 -20 -59
t-50 -23z" />
    <glyph glyph-name="s" unicode="s" horiz-adv-x="350" 
d="M166 479q-28 0 -45 -19t-17 -50q0 -35 19.5 -57t70.5 -45q70 -33 101 -71.5t31 -93.5q0 -68 -42.5 -110.5t-106.5 -42.5q-16 0 -31.5 3t-38.5 12q-14 5 -20.5 6.5t-12.5 1.5q-11 0 -22 -6.5t-18 -16.5l-9 191h3q27 -79 67 -125.5t81 -46.5q32 0 51 22t19 58
q0 34 -16.5 56t-74.5 52q-72 35 -99.5 70t-27.5 88q0 62 39.5 103t96.5 41q15 0 28.5 -3t34.5 -12q14 -6 21 -7.5t13 -1.5q10 0 18.5 5t21.5 19v-166h-3q-24 69 -58.5 107.5t-73.5 38.5z" />
    <glyph glyph-name="t" unicode="t" horiz-adv-x="286" 
d="M199 49q27 0 43.5 27.5t21.5 81.5h9q-4 -85 -33 -126.5t-84 -41.5q-54 0 -81 35.5t-27 107.5v330h-46v8q55 15 92.5 64t51.5 125h9v-171h106l-5 -26h-101v-330q0 -45 10.5 -64.5t33.5 -19.5z" />
    <glyph glyph-name="u" unicode="u" horiz-adv-x="448" 
d="M212 51q34 0 53 33t19 94v201q0 49 -9 71t-38 37v2h154v-380q0 -51 8 -71.5t33 -35.5v-2h-148v100q-14 -54 -45.5 -82t-76.5 -28q-52 0 -81.5 34t-29.5 96v259q0 49 -9 70.5t-37 37.5v2h153v-363q0 -37 13.5 -56t40.5 -19z" />
    <glyph glyph-name="v" unicode="v" horiz-adv-x="398" 
d="M160 383l79 -226l76 217q4 13 6.5 25.5t2.5 23.5q0 24 -11 39.5t-34 24.5v2h129v-2q-22 -17 -33 -36.5t-30 -73.5l-141 -387h-2l-151 391q-21 54 -30.5 71t-30.5 35v2h192v-2q-18 -8 -26.5 -20t-8.5 -29q0 -11 3 -24t10 -31z" />
    <glyph glyph-name="w" unicode="w" horiz-adv-x="553" 
d="M378 -10h-2l-92 308l-100 -308h-2l-131 391q-15 46 -26 65t-35 41v2h183v-2q-16 -8 -23 -19t-7 -28q0 -10 2.5 -22.5t9.5 -34.5l64 -208l51 170l-11 36q-16 48 -26.5 66.5t-33.5 39.5v2h181v-2q-17 -9 -24.5 -21t-7.5 -30q0 -10 2.5 -23t7.5 -30l56 -202l57 193
q4 13 6 25.5t2 22.5q0 24 -11 40t-33 25v2h128v-2q-24 -20 -36 -40.5t-27 -69.5z" />
    <glyph glyph-name="x" unicode="x" horiz-adv-x="413" 
d="M103 45q0 -13 5.5 -24t15.5 -19v-2h-121v2q28 19 50 45t48 73l63 114l-65 135q-21 47 -38.5 71.5t-46.5 46.5v2h174v-2q-6 -6 -9 -13t-3 -15q0 -11 4 -24.5t24 -54.5l32 -68l33 67q11 24 16 40t5 28t-5 22t-15 18v2h121v-2q-33 -21 -55 -48t-43 -71l-43 -85l78 -164
q27 -55 43.5 -77t41.5 -40v-2h-173v2q5 5 8 12t3 16q0 11 -4.5 25.5t-22.5 53.5l-47 99l-52 -99q-12 -22 -17 -37t-5 -27z" />
    <glyph glyph-name="y" unicode="y" horiz-adv-x="398" 
d="M106 -173q21 0 35 17.5t28 61.5l23 73l-141 402q-16 47 -26.5 66t-34.5 40v2h191v-2q-17 -9 -25.5 -21t-8.5 -28q0 -10 3 -23t9 -32l81 -257l75 248q4 13 6.5 26t2.5 24q0 24 -11 39t-34 24v2h129v-2q-25 -20 -37 -41.5t-26 -68.5l-153 -486q-23 -70 -49.5 -97.5
t-65.5 -27.5q-33 0 -56 21.5t-23 55.5q0 32 21 52.5t49 20.5q9 0 16.5 -2t12.5 -7q-11 -5 -18 -16.5t-7 -26.5q0 -17 9.5 -27t24.5 -10z" />
    <glyph glyph-name="z" unicode="z" horiz-adv-x="381" 
d="M14 2l223 468h-50q-48 0 -83 -33t-74 -116h-2l13 175q14 -4 28 -5.5t32 -1.5h256v-2l-223 -468h49q56 0 95 38.5t77 129.5h2l-19 -187h-324v2z" />
    <glyph glyph-name="braceleft" unicode="{" horiz-adv-x="300" 
d="M105 165q0 71 -23.5 107t-69.5 38v6q46 2 69.5 38t23.5 107q0 11 -1 23.5t-5 38.5q-4 30 -5.5 46t-1.5 30q0 67 42 108.5t111 41.5q13 0 23 -1t19 -3v-4q-47 0 -72.5 -36.5t-25.5 -102.5q0 -12 1.5 -27t5.5 -47t5 -46.5t1 -26.5q0 -59 -37.5 -97t-93.5 -45
q56 -7 93.5 -45t37.5 -97q0 -12 -1 -26.5t-5 -46.5t-5.5 -47t-1.5 -27q0 -66 25.5 -102.5t72.5 -36.5v-4q-9 -2 -19 -3t-23 -1q-69 0 -111 41.5t-42 108.5q0 14 1.5 30t5.5 46q4 26 5 38.5t1 23.5z" />
    <glyph glyph-name="bar" unicode="|" horiz-adv-x="191" 
d="M109 -123h-27v872h27v-872z" />
    <glyph glyph-name="braceright" unicode="}" horiz-adv-x="300" 
d="M195 165q0 -11 1 -23.5t5 -38.5q4 -30 5.5 -46t1.5 -30q0 -67 -42 -108.5t-111 -41.5q-13 0 -23 1t-19 3v4q47 0 72.5 36.5t25.5 102.5q0 12 -1.5 27t-5.5 47t-5 46.5t-1 26.5q0 59 37.5 97t93.5 45q-56 7 -93.5 45t-37.5 97q0 12 1 26.5t5 46.5t5.5 47t1.5 27
q0 66 -25.5 102.5t-72.5 36.5v4q9 2 19 3t23 1q69 0 111 -41.5t42 -108.5q0 -14 -1.5 -30t-5.5 -46q-4 -26 -5 -38.5t-1 -23.5q0 -71 23.5 -107t69.5 -38v-6q-46 -2 -69.5 -38t-23.5 -107z" />
    <glyph glyph-name="asciitilde" unicode="~" horiz-adv-x="376" 
d="M111 300q-26 0 -46.5 -14t-32.5 -41h-4q11 64 37 98t63 34q14 0 28.5 -5t42.5 -21q27 -15 40.5 -19.5t25.5 -4.5q26 0 46.5 14.5t32.5 41.5h4q-11 -63 -37 -97.5t-63 -34.5q-14 0 -28.5 5t-42.5 20q-27 15 -40.5 19.5t-25.5 4.5z" />
    <glyph glyph-name="uni00A0" unicode="&#xa0;" horiz-adv-x="143" 
 />
    <glyph glyph-name="exclamdown" unicode="&#xa1;" horiz-adv-x="233" 
d="M119 338l72 -487h-149l72 487h5zM116 413q-30 0 -51 21t-21 52q0 30 21 51t51 21t51 -21t21 -51q0 -31 -21 -52t-51 -21z" />
    <glyph glyph-name="cent" unicode="&#xa2;" horiz-adv-x="374" 
d="M125 265q0 -78 17.5 -129t50.5 -72l22 413q-42 -12 -66 -68.5t-24 -143.5zM206 -10l-6 -104h-17l6 104q-74 4 -121.5 70t-47.5 168q0 111 57 188t140 83l5 97h18l-5 -97q54 -1 87 -28.5t33 -69.5q0 -29 -17 -47t-44 -18q-20 0 -34.5 10t-17.5 27q2 -1 4.5 -1h7.5
q17 0 28 14t11 37q0 26 -15 41.5t-41 15.5h-2h-2l-23 -424q8 -3 15 -4t15 -1q39 0 66.5 29t38.5 82l7 -2q-8 -79 -45 -122.5t-101 -47.5z" />
    <glyph glyph-name="sterling" unicode="&#xa3;" horiz-adv-x="502" 
d="M488 95q0 -51 -34 -81t-91 -30q-25 0 -49 6t-48 18q-9 5 -29.5 19t-53.5 37q-21 -36 -49 -54.5t-60 -18.5q-31 0 -50 17t-19 45q0 30 22 49t57 19q13 0 28 -2.5t33 -7.5q2 13 3 27.5t1 32.5q0 38 -4 76t-14 94h-74v19h70q-10 52 -13.5 81t-3.5 55q0 97 58.5 155.5
t157.5 58.5q69 0 108.5 -30.5t39.5 -82.5q0 -37 -23 -60.5t-57 -23.5q-24 0 -44 10.5t-29 26.5q33 -2 51 18.5t18 60.5q0 30 -16.5 47.5t-45.5 17.5q-44 0 -68.5 -42.5t-24.5 -116.5v-175h137v-19h-137v-38q0 -62 -9 -115t-27 -94q41 -14 71.5 -19.5t60.5 -5.5q48 0 74.5 21
t26.5 61q0 12 -3 22t-10 19q32 -11 50.5 -36.5t18.5 -60.5zM27 53q0 -19 11 -30t31 -11q26 0 44 20t28 58q-14 7 -28 10.5t-29 3.5q-26 0 -41.5 -14t-15.5 -37z" />
    <glyph glyph-name="yen" unicode="&#xa5;" horiz-adv-x="527" 
d="M377 2v-2h-231v2q37 18 48.5 39.5t11.5 69.5v148h-131v20h131v13l-22 50h-109v19h100l-106 238q-20 46 -34.5 64.5t-35.5 34.5v2h214v-2q-19 -12 -26.5 -23.5t-7.5 -26.5q0 -11 3 -23t10 -28l112 -268l113 252q7 15 10.5 28t3.5 25q0 21 -12 37.5t-36 26.5v2h144v-2
q-23 -16 -38.5 -36.5t-35.5 -62.5l-106 -238h100v-19h-109l-22 -50v-13h131v-20h-131v-148q0 -47 12 -69t49 -40z" />
    <glyph glyph-name="section" unicode="&#xa7;" horiz-adv-x="444" 
d="M85 358q0 -27 11 -48.5t37 -46.5l151 -145q23 -24 35.5 -39t20.5 -29q9 13 14 32.5t5 42.5q0 28 -11 50t-37 46l-151 145q-19 19 -33 36t-23 32q-10 -15 -14.5 -34t-4.5 -42zM373 -57q0 -71 -48 -120.5t-115 -49.5q-66 0 -106.5 28.5t-40.5 76.5q0 32 18.5 51t48.5 19
q16 0 30.5 -6t22.5 -15q-23 -8 -32.5 -23.5t-9.5 -40.5q0 -34 19 -54t51 -20q38 0 60.5 29.5t22.5 78.5q0 40 -14 69t-62 75l-118 113q-41 39 -57.5 71.5t-16.5 74.5q0 38 20 77t52 66q-14 25 -20.5 49t-6.5 49q0 70 48 119.5t115 49.5q66 0 106.5 -28.5t40.5 -76.5
q0 -32 -18.5 -51t-48.5 -19q-15 0 -29.5 6t-23.5 16q22 7 32 22.5t10 41.5q0 34 -19 53.5t-51 19.5q-38 0 -60.5 -29.5t-22.5 -78.5q0 -39 14 -68t62 -75l118 -114q41 -39 57.5 -71.5t16.5 -73.5q0 -38 -20 -76.5t-52 -67.5q14 -25 20.5 -49t6.5 -48z" />
    <glyph glyph-name="dieresis" unicode="&#xa8;" 
d="M239 633q0 -25 -17 -42.5t-42 -17.5q-24 0 -42 18t-18 42t18 42.5t42 18.5q25 0 42 -18t17 -43zM380 633q0 -24 -18 -42t-42 -18q-25 0 -42.5 17.5t-17.5 42.5t17.5 43t42.5 18q24 0 42 -18.5t18 -42.5z" />
    <glyph glyph-name="copyright" unicode="&#xa9;" horiz-adv-x="603" 
d="M302 710q116 0 195.5 -103t79.5 -257t-79.5 -257t-195.5 -103q-117 0 -196.5 103.5t-79.5 256.5t79.5 256.5t196.5 103.5zM302 10q109 0 182.5 97.5t73.5 242.5t-73.5 242.5t-182.5 97.5t-182.5 -97t-73.5 -243t73.5 -243t182.5 -97zM328 551q-36 0 -56 -51.5t-20 -138.5
q0 -85 24.5 -135t65.5 -50q31 0 51.5 21t32.5 63h4q-8 -59 -40.5 -94t-81.5 -35q-67 0 -109 58.5t-42 152.5q0 97 47 160.5t118 63.5q9 0 18.5 -2t24.5 -9q10 -4 15 -5.5t9 -1.5q9 0 16.5 4.5t13.5 13.5l4 -149h-2q-18 65 -42 99.5t-51 34.5z" />
    <glyph glyph-name="ordfeminine" unicode="&#xaa;" horiz-adv-x="310" 
d="M285 419q5 0 8.5 1t5.5 2v-2q-9 -16 -24 -25t-34 -9q-25 0 -40.5 13.5t-18.5 37.5v4t-1 8q-5 -28 -27.5 -45.5t-51.5 -17.5q-33 0 -54 20.5t-21 54.5q0 36 24.5 59.5t93.5 42.5l34 9v69q0 25 -11 39.5t-29 14.5q-15 0 -24 -10.5t-9 -29.5q0 -17 6.5 -27t18.5 -10
q2 0 4.5 0.5t3.5 1.5q-4 -15 -17 -23.5t-31 -8.5q-22 0 -36 13.5t-14 35.5q0 32 28.5 52.5t72.5 20.5q59 0 88 -24.5t29 -74.5v-30.5t-1 -48.5v-45v-27q0 -21 6.5 -31t20.5 -10zM179 488v70l-21 -6q-27 -10 -39 -28t-12 -48q0 -22 8.5 -35.5t23.5 -13.5q17 0 28.5 16.5
t11.5 44.5zM273 312h-230v21h230v-21z" />
    <glyph glyph-name="guillemotleft" unicode="&#xab;" horiz-adv-x="355" 
d="M15 243v2q55 35 102 83t78 102h6q-15 -59 -34.5 -105.5t-43.5 -80.5q24 -34 43.5 -80.5t34.5 -105.5h-6q-31 54 -78 102t-102 83zM153 243v2q55 35 102 83t78 102h6q-15 -59 -34.5 -105.5t-43.5 -80.5q24 -34 43.5 -80.5t34.5 -105.5h-6q-31 54 -78 102t-102 83z" />
    <glyph glyph-name="registered" unicode="&#xae;" horiz-adv-x="411" 
d="M206 710q74 0 125 -56t51 -140q0 -83 -51 -139t-125 -56q-75 0 -126 56t-51 139q0 84 51 140t126 56zM206 334q69 0 114.5 51t45.5 129t-45.5 129.5t-114.5 51.5t-115 -51.5t-46 -129.5q0 -77 46 -128.5t115 -51.5zM193 616h-15v-97h15q25 0 36 11.5t11 35.5
q0 25 -11.5 37.5t-35.5 12.5zM112 623v4h98q39 0 60 -15.5t21 -44.5q0 -26 -19.5 -40.5t-51.5 -14.5q25 -1 39 -11.5t19 -30.5l6 -26q3 -16 8.5 -23t21.5 -13v-4h-66q-5 5 -8 13.5t-6 21.5l-8 35q-4 18 -13 26.5t-25 8.5h-10v-65q0 -16 3.5 -23t14.5 -13v-4h-84v4
q11 6 14.5 13.5t3.5 22.5v143q0 15 -3.5 22.5t-14.5 13.5z" />
    <glyph glyph-name="macron" unicode="&#xaf;" 
d="M367 618v-36h-231v36h231z" />
    <glyph glyph-name="degree" unicode="&#xb0;" horiz-adv-x="226" 
d="M113 709q38 0 65.5 -27.5t27.5 -65.5t-27.5 -65.5t-65.5 -27.5t-65.5 27.5t-27.5 65.5t27.5 65.5t65.5 27.5zM113 548q28 0 47.5 19.5t19.5 48.5t-19.5 48.5t-47.5 19.5t-47 -19.5t-19 -48.5t19 -48.5t47 -19.5z" />
    <glyph glyph-name="plusminus" unicode="&#xb1;" horiz-adv-x="399" 
d="M356 379v-27h-143v-108h-28v108h-142v27h142v107h28v-107h143zM356 168h-313v26h313v-26z" />
    <glyph glyph-name="twosuperior" unicode="&#xb2;" horiz-adv-x="270" 
d="M166 634q0 25 -12 40t-33 15t-34 -13t-13 -32t9 -30.5t24 -11.5q7 0 10.5 1t7.5 5h2q-6 -16 -18.5 -25t-29.5 -9q-23 0 -38 15.5t-15 39.5q0 34 26.5 54.5t68.5 20.5q54 0 84.5 -22t30.5 -61q0 -38 -30 -70.5t-121 -85.5h70q41 1 55 8t27 28h4l-11 -91h-213v2
q89 87 119 131t30 91z" />
    <glyph glyph-name="threesuperior" unicode="&#xb3;" horiz-adv-x="268" 
d="M79 468q0 -21 12 -34t32 -13q22 0 35.5 19.5t13.5 49.5q0 36 -15.5 53.5t-47.5 17.5v9q28 1 40.5 17t12.5 50q0 24 -10 38.5t-27 14.5q-16 0 -26.5 -11t-10.5 -28q0 -14 6 -23t16 -9q4 0 5.5 0.5t3.5 1.5l2 -1q-5 -10 -15.5 -15.5t-25.5 -5.5q-19 0 -31.5 12t-12.5 31
q0 28 25 45t64 17q49 0 77.5 -19t28.5 -51q0 -28 -21 -45.5t-58 -20.5q41 -2 66 -23t25 -55q0 -39 -32.5 -61.5t-87.5 -22.5q-45 0 -74 19t-29 50q0 22 14 35t36 13q16 0 27 -5.5t14 -15.5l-1 -1l-4.5 1.5t-5.5 0.5q-10 0 -15.5 -9.5t-5.5 -25.5z" />
    <glyph glyph-name="acute" unicode="&#xb4;" 
d="M209 727h102q-12 -56 -43 -100t-88 -84h-3q16 31 24 76t8 108z" />
    <glyph glyph-name="paragraph" unicode="&#xb6;" horiz-adv-x="412" 
d="M346 594v-660q0 -73 -37 -120t-97 -47q-57 0 -92 28t-35 77q0 30 19.5 50t45.5 20q20 0 34 -10t20 -29h-1q-4 4 -10.5 6t-13.5 2q-14 0 -23.5 -14t-9.5 -34q0 -35 19.5 -55t53.5 -20q46 0 74.5 41.5t28.5 106.5v741h-39v-552h-24v161q-96 0 -164.5 58t-68.5 149t68.5 149
t164.5 58h147v-2q-40 -22 -50 -41.5t-10 -62.5z" />
    <glyph glyph-name="periodcentered" unicode="&#xb7;" horiz-adv-x="214" 
d="M107 343q30 0 51 -21t21 -52q0 -30 -21 -51t-51 -21t-51 21t-21 51q0 31 21 52t51 21z" />
    <glyph glyph-name="cedilla" unicode="&#xb8;" 
d="M234 -223q-30 0 -53 16.5t-32 44.5l5 4q11 -18 23.5 -26.5t28.5 -8.5q20 0 31.5 14.5t11.5 41.5q0 28 -14.5 43t-43.5 17l40 86h18l-32 -70q46 1 74.5 -20.5t28.5 -58.5t-24.5 -60t-61.5 -23z" />
    <glyph glyph-name="onesuperior" unicode="&#xb9;" horiz-adv-x="198" 
d="M64 452v206q0 16 -9 23t-43 13v6h124v-248q0 -16 9 -23t41 -13v-6h-172v6q32 6 41 13t9 23z" />
    <glyph glyph-name="ordmasculine" unicode="&#xba;" horiz-adv-x="321" 
d="M301 548q0 -71 -40 -116.5t-101 -45.5q-60 0 -100 46t-40 116t40 116t100 46q61 0 101 -45.5t40 -116.5zM111 548q0 -70 12.5 -107.5t36.5 -37.5t37.5 38t13.5 107q0 70 -13 107.5t-38 37.5q-24 0 -36.5 -37.5t-12.5 -107.5zM281 312h-243v21h243v-21z" />
    <glyph glyph-name="guillemotright" unicode="&#xbb;" horiz-adv-x="355" 
d="M201 245v-2q-55 -35 -102 -83t-77 -102h-7q15 59 35 105.5t44 80.5q-24 34 -44 80.5t-35 105.5h7q30 -54 77 -102t102 -83zM339 245v-2q-55 -35 -102 -83t-77 -102h-7q15 59 35 105.5t44 80.5q-24 34 -44 80.5t-35 105.5h7q30 -54 77 -102t102 -83z" />
    <glyph glyph-name="onequarter" unicode="&#xbc;" horiz-adv-x="365" 
d="M153 452v206q0 16 -9 22.5t-43 13.5v6h124v-248q0 -16 9 -23t41 -13v-6h-172v6q32 6 41 13t9 23zM22 342v16h321v-16h-321zM76 93h103v151zM179 51v26h-132v1l146 214h56v-199h23q15 0 21.5 3.5t17.5 23.5h3v-70h-3q-11 20 -17.5 23.5t-21.5 3.5h-23v-26q0 -19 4.5 -28
t18.5 -19v-4h-116v4q14 10 18.5 19t4.5 28z" />
    <glyph glyph-name="onehalf" unicode="&#xbd;" horiz-adv-x="365" 
d="M153 452v206q0 16 -9 22.5t-43 13.5v6h124v-248q0 -16 9 -23t41 -13v-6h-172v6q32 6 41 13t9 23zM22 342v16h321v-16h-321zM224 224q0 25 -12 40t-33 15t-34 -13t-13 -32t9 -30.5t24 -11.5q7 0 10.5 1t7.5 5h2q-6 -17 -18 -25.5t-30 -8.5q-23 0 -38 15.5t-15 39.5
q0 34 26.5 54.5t68.5 20.5q54 0 84.5 -22t30.5 -61t-30.5 -71.5t-120.5 -84.5h70q41 1 55 8t27 28h4l-11 -91h-213v2q89 87 119 131t30 91z" />
    <glyph glyph-name="threequarters" unicode="&#xbe;" horiz-adv-x="365" 
d="M136 468q0 -21 12.5 -34t32.5 -13q22 0 35.5 19.5t13.5 49.5q0 36 -15.5 53.5t-47.5 17.5v9q28 1 40.5 17t12.5 50q0 24 -10 38.5t-27 14.5q-16 0 -26.5 -11t-10.5 -28q0 -14 6 -23t16 -9q5 0 6.5 0.5t2.5 1.5l2 -1q-5 -10 -15.5 -15.5t-25.5 -5.5q-19 0 -31.5 12
t-12.5 31q0 28 25 45t64 17q49 0 77.5 -19t28.5 -51q0 -28 -21 -45.5t-58 -20.5q41 -2 66 -23t25 -55q0 -39 -32.5 -61.5t-87.5 -22.5q-45 0 -74 19t-29 50q0 22 14 35t36 13q16 0 27 -5.5t14 -15.5l-2 -1q-2 1 -3.5 1.5t-5.5 0.5q-10 0 -16 -9.5t-6 -25.5zM22 342v16h321
v-16h-321zM76 93h103v151zM179 51v26h-132v1l146 214h56v-199h23q15 0 21.5 3.5t17.5 23.5h3v-70h-3q-11 20 -17.5 23.5t-21.5 3.5h-23v-26q0 -19 4.5 -28t18.5 -19v-4h-116v4q14 10 18.5 19t4.5 28z" />
    <glyph glyph-name="questiondown" unicode="&#xbf;" horiz-adv-x="421" 
d="M113 -7q0 -59 29.5 -95.5t78.5 -36.5q44 0 70 29.5t26 77.5q0 36 -17 59t-43 23q-9 0 -18 -3t-15 -9l-1 1q10 31 31.5 48.5t50.5 17.5q42 0 70 -30.5t28 -77.5q0 -68 -52 -112t-132 -44q-89 0 -144.5 54t-55.5 138q0 86 54 151t143 91v67h20v-176q-60 -18 -91.5 -62
t-31.5 -111zM299 486q0 -31 -20.5 -52t-50.5 -21q-31 0 -52 21t-21 52q0 30 21 51t52 21q30 0 50.5 -21t20.5 -51z" />
    <glyph glyph-name="Agrave" unicode="&#xc0;" horiz-adv-x="541" 
d="M308 255l-79 248l-79 -248h158zM102 82q0 -29 12.5 -49t37.5 -31v-2h-153v2q27 15 45 43t37 87l191 578h3l196 -598q19 -58 32 -76.5t38 -33.5v-2h-216v2q20 9 29.5 22.5t9.5 32.5q0 11 -2.5 25t-8.5 33l-36 113h-176l-29 -91q-5 -16 -7.5 -29.5t-2.5 -25.5zM182 879h119
q3 -46 12.5 -78.5t28.5 -67.5h-3q-61 22 -101.5 59.5t-55.5 86.5z" />
    <glyph glyph-name="Aacute" unicode="&#xc1;" horiz-adv-x="541" 
d="M308 255l-79 248l-79 -248h158zM102 82q0 -29 12.5 -49t37.5 -31v-2h-153v2q27 15 45 43t37 87l191 578h3l196 -598q19 -58 32 -76.5t38 -33.5v-2h-216v2q20 9 29.5 22.5t9.5 32.5q0 11 -2.5 25t-8.5 33l-36 113h-176l-29 -91q-5 -16 -7.5 -29.5t-2.5 -25.5zM243 879h119
q-15 -49 -55.5 -86.5t-101.5 -59.5h-3q19 35 28.5 67.5t12.5 78.5z" />
    <glyph glyph-name="Acircumflex" unicode="&#xc2;" horiz-adv-x="541" 
d="M308 255l-79 248l-79 -248h158zM102 82q0 -29 12.5 -49t37.5 -31v-2h-153v2q27 15 45 43t37 87l191 578h3l196 -598q19 -58 32 -76.5t38 -33.5v-2h-216v2q20 9 29.5 22.5t9.5 32.5q0 11 -2.5 25t-8.5 33l-36 113h-176l-29 -91q-5 -16 -7.5 -29.5t-2.5 -25.5zM403 728h-7
q-38 5 -72 19t-53 33q-20 -19 -55 -33t-72 -19h-6q51 40 81 79t49 87h5q19 -48 49 -87t81 -79z" />
    <glyph glyph-name="Atilde" unicode="&#xc3;" horiz-adv-x="541" 
d="M308 255l-79 248l-79 -248h158zM102 82q0 -29 12.5 -49t37.5 -31v-2h-153v2q27 15 45 43t37 87l191 578h3l196 -598q19 -58 32 -76.5t38 -33.5v-2h-216v2q20 9 29.5 22.5t9.5 32.5q0 11 -2.5 25t-8.5 33l-36 113h-176l-29 -91q-5 -16 -7.5 -29.5t-2.5 -25.5zM408 886h6
q-9 -69 -32 -105.5t-58 -36.5q-11 0 -24 6t-39 26q-25 19 -37.5 25t-22.5 6q-22 0 -37.5 -16.5t-28.5 -53.5h-7q9 69 32.5 106.5t56.5 37.5q12 0 25.5 -6.5t39.5 -26.5q25 -18 37 -24t22 -6q21 0 37 15.5t30 52.5z" />
    <glyph glyph-name="Adieresis" unicode="&#xc4;" horiz-adv-x="541" 
d="M308 255l-79 248l-79 -248h158zM102 82q0 -29 12.5 -49t37.5 -31v-2h-153v2q27 15 45 43t37 87l191 578h3l196 -598q19 -58 32 -76.5t38 -33.5v-2h-216v2q20 9 29.5 22.5t9.5 32.5q0 11 -2.5 25t-8.5 33l-36 113h-176l-29 -91q-5 -16 -7.5 -29.5t-2.5 -25.5zM259 799
q0 -25 -17 -42.5t-42 -17.5q-24 0 -42 18t-18 42t18 42.5t42 18.5q25 0 42 -18t17 -43zM400 799q0 -24 -18 -42t-42 -18q-25 0 -42.5 17.5t-17.5 42.5t17.5 43t42.5 18q24 0 42 -18.5t18 -42.5z" />
    <glyph glyph-name="Aring" unicode="&#xc5;" horiz-adv-x="541" 
d="M308 255l-79 248l-79 -248h158zM102 82q0 -29 12.5 -49t37.5 -31v-2h-153v2q27 15 45 43t37 87l191 578h3l196 -598q19 -58 32 -76.5t38 -33.5v-2h-216v2q20 9 29.5 22.5t9.5 32.5q0 11 -2.5 25t-8.5 33l-36 113h-176l-29 -91q-5 -16 -7.5 -29.5t-2.5 -25.5zM184 807
q0 34 25.5 59.5t60.5 25.5t60.5 -25t25.5 -60q0 -34 -25.5 -59t-60.5 -25t-60.5 25t-25.5 59zM208 807q0 -25 18.5 -43.5t43.5 -18.5q26 0 44 18.5t18 43.5q0 26 -18 44t-44 18q-25 0 -43.5 -18t-18.5 -44z" />
    <glyph glyph-name="AE" unicode="&#xc6;" horiz-adv-x="740" 
d="M343 268v335l-152 -335h152zM112 66q0 -22 11.5 -38t33.5 -26v-2h-158v2q25 14 48.5 44.5t49.5 85.5l224 483q4 10 5.5 16t1.5 11q0 15 -11.5 28t-38.5 28v2h346q22 0 34 2t19 6l24 -178h-2q-43 84 -90.5 115.5t-122.5 31.5h-30v-308h15q61 0 88 21.5t52 90.5h2v-232h-2
q-22 61 -46.5 80t-93.5 19h-15v-325h36q80 0 131 37.5t91 127.5h2l-22 -188h-404v2q31 15 42 38t11 78v124h-163l-48 -105q-10 -22 -15 -39.5t-5 -31.5z" />
    <glyph glyph-name="Ccedilla" unicode="&#xc7;" horiz-adv-x="465" 
d="M329 -140q0 -37 -24.5 -60t-61.5 -23q-30 0 -53 16.5t-32 44.5l5 4q11 -18 23.5 -26.5t28.5 -8.5q20 0 31.5 14.5t11.5 41.5q0 28 -14.5 43t-43.5 17l32 69q-94 12 -151 108.5t-57 245.5q0 156 72 260t178 104q14 0 27.5 -3.5t36.5 -13.5q17 -7 25.5 -9.5t15.5 -2.5
q14 0 27 7.5t21 21.5l8 -242h-3q-25 100 -64.5 159.5t-83.5 59.5q-64 0 -98.5 -86t-34.5 -239q0 -143 40 -226t108 -83q51 0 85 37.5t54 113.5l7 -2q-13 -98 -63.5 -155t-124.5 -57h-4h-4l-23 -51q46 1 74.5 -20.5t28.5 -58.5z" />
    <glyph glyph-name="Egrave" unicode="&#xc8;" horiz-adv-x="464" 
d="M153 879h119q3 -46 12.5 -78.5t28.5 -67.5h-3q-61 22 -101.5 59.5t-55.5 86.5zM14 698v2h334q22 0 34 2t19 6l24 -178h-2q-43 84 -90.5 115.5t-122.5 31.5h-30v-308h14q62 0 89 22t52 90h2v-232h-2q-22 60 -46.5 79.5t-94.5 19.5h-14v-325h36q79 0 130 37t92 128h2
l-22 -188h-404v2q31 15 42 38t11 78v464q0 55 -11 78t-42 38z" />
    <glyph glyph-name="Eacute" unicode="&#xc9;" horiz-adv-x="464" 
d="M214 879h119q-15 -49 -55.5 -86.5t-101.5 -59.5h-3q19 35 28.5 67.5t12.5 78.5zM14 698v2h334q22 0 34 2t19 6l24 -178h-2q-43 84 -90.5 115.5t-122.5 31.5h-30v-308h14q62 0 89 22t52 90h2v-232h-2q-22 60 -46.5 79.5t-94.5 19.5h-14v-325h36q79 0 130 37t92 128h2
l-22 -188h-404v2q31 15 42 38t11 78v464q0 55 -11 78t-42 38z" />
    <glyph glyph-name="Ecircumflex" unicode="&#xca;" horiz-adv-x="464" 
d="M14 698v2h334q22 0 34 2t19 6l24 -178h-2q-43 84 -90.5 115.5t-122.5 31.5h-30v-308h14q62 0 89 22t52 90h2v-232h-2q-22 60 -46.5 79.5t-94.5 19.5h-14v-325h36q79 0 130 37t92 128h2l-22 -188h-404v2q31 15 42 38t11 78v464q0 55 -11 78t-42 38zM374 728h-7
q-38 5 -72 19t-53 33q-20 -19 -55 -33t-72 -19h-6q51 40 81 79t49 87h5q19 -48 49 -87t81 -79z" />
    <glyph glyph-name="Edieresis" unicode="&#xcb;" horiz-adv-x="464" 
d="M230 799q0 -25 -17 -42.5t-42 -17.5q-24 0 -42 18t-18 42t18 42.5t42 18.5q25 0 42 -18t17 -43zM371 799q0 -24 -18 -42t-42 -18q-25 0 -42.5 17.5t-17.5 42.5t17.5 43t42.5 18q24 0 42 -18.5t18 -42.5zM14 698v2h334q22 0 34 2t19 6l24 -178h-2q-43 84 -90.5 115.5
t-122.5 31.5h-30v-308h14q62 0 89 22t52 90h2v-232h-2q-22 60 -46.5 79.5t-94.5 19.5h-14v-325h36q79 0 130 37t92 128h2l-22 -188h-404v2q31 15 42 38t11 78v464q0 55 -11 78t-42 38z" />
    <glyph glyph-name="Igrave" unicode="&#xcc;" horiz-adv-x="247" 
d="M180 582v-464q0 -55 11 -78t42 -38v-2h-219v2q31 15 42 38t11 78v464q0 55 -11 78t-42 38v2h219v-2q-31 -15 -42 -38t-11 -78zM35 879h119q3 -46 12.5 -78.5t28.5 -67.5h-3q-61 22 -101.5 59.5t-55.5 86.5z" />
    <glyph glyph-name="Iacute" unicode="&#xcd;" horiz-adv-x="247" 
d="M180 582v-464q0 -55 11 -78t42 -38v-2h-219v2q31 15 42 38t11 78v464q0 55 -11 78t-42 38v2h219v-2q-31 -15 -42 -38t-11 -78zM96 879h119q-15 -49 -55.5 -86.5t-101.5 -59.5h-3q19 35 28.5 67.5t12.5 78.5z" />
    <glyph glyph-name="Icircumflex" unicode="&#xce;" horiz-adv-x="247" 
d="M180 582v-464q0 -55 11 -78t42 -38v-2h-219v2q31 15 42 38t11 78v464q0 55 -11 78t-42 38v2h219v-2q-31 -15 -42 -38t-11 -78zM256 728h-7q-38 5 -72 19t-53 33q-20 -19 -55 -33t-72 -19h-6q51 40 81 79t49 87h5q19 -48 49 -87t81 -79z" />
    <glyph glyph-name="Idieresis" unicode="&#xcf;" horiz-adv-x="247" 
d="M180 582v-464q0 -55 11 -78t42 -38v-2h-219v2q31 15 42 38t11 78v464q0 55 -11 78t-42 38v2h219v-2q-31 -15 -42 -38t-11 -78zM112 799q0 -25 -17 -42.5t-42 -17.5q-24 0 -42 18t-18 42t18 42.5t42 18.5q25 0 42 -18t17 -43zM253 799q0 -24 -18 -42t-42 -18
q-25 0 -42.5 17.5t-17.5 42.5t17.5 43t42.5 18q24 0 42 -18.5t18 -42.5z" />
    <glyph glyph-name="Eth" unicode="&#xd0;" horiz-adv-x="543" 
d="M519 357q0 -164 -85.5 -260.5t-221.5 -96.5h-194v2q31 15 42 38t11 78v228h-44v26h44v210q0 55 -11 78t-42 38v2h179q146 0 234 -92t88 -251zM184 346v-322h21q93 0 141.5 84.5t48.5 248.5q0 153 -52.5 236t-147.5 83h-11v-304h80v-26h-80z" />
    <glyph glyph-name="Ntilde" unicode="&#xd1;" horiz-adv-x="516" 
d="M413 886h6q-9 -69 -32 -105.5t-58 -36.5q-11 0 -24 6t-39 26q-25 19 -37.5 25t-22.5 6q-22 0 -37.5 -16.5t-28.5 -53.5h-7q9 69 32.5 106.5t56.5 37.5q12 0 25.5 -6.5t39.5 -26.5q25 -18 37 -24t22 -6q21 0 37 15.5t30 52.5zM522 700v-2q-37 -17 -53.5 -48.5t-16.5 -83.5
v-573h-24l-332 634v-485q0 -58 16.5 -90.5t56.5 -49.5v-2h-172v2q37 17 53.5 48t16.5 84v448q0 55 -11 78t-42 38v2h175l234 -454v312q0 58 -16.5 90.5t-56.5 49.5v2h172z" />
    <glyph glyph-name="Ograve" unicode="&#xd2;" horiz-adv-x="540" 
d="M182 879h119q3 -46 12.5 -78.5t28.5 -67.5h-3q-61 22 -101.5 59.5t-55.5 86.5zM270 710q104 0 175 -103t71 -257t-71 -257t-175 -103q-105 0 -175.5 102.5t-70.5 257.5t70.5 257.5t175.5 102.5zM270 12q58 0 87 85t29 253t-29 253t-87 85t-87 -84t-29 -254t29 -254
t87 -84z" />
    <glyph glyph-name="Oacute" unicode="&#xd3;" horiz-adv-x="540" 
d="M243 879h119q-15 -49 -55.5 -86.5t-101.5 -59.5h-3q19 35 28.5 67.5t12.5 78.5zM270 710q104 0 175 -103t71 -257t-71 -257t-175 -103q-105 0 -175.5 102.5t-70.5 257.5t70.5 257.5t175.5 102.5zM270 12q58 0 87 85t29 253t-29 253t-87 85t-87 -84t-29 -254t29 -254
t87 -84z" />
    <glyph glyph-name="Ocircumflex" unicode="&#xd4;" horiz-adv-x="540" 
d="M270 710q104 0 175 -103t71 -257t-71 -257t-175 -103q-105 0 -175.5 102.5t-70.5 257.5t70.5 257.5t175.5 102.5zM270 12q58 0 87 85t29 253t-29 253t-87 85t-87 -84t-29 -254t29 -254t87 -84zM403 728h-7q-38 5 -72 19t-53 33q-20 -19 -55 -33t-72 -19h-6q51 40 81 79
t49 87h5q19 -48 49 -87t81 -79z" />
    <glyph glyph-name="Otilde" unicode="&#xd5;" horiz-adv-x="540" 
d="M407 886h6q-9 -69 -32 -105.5t-58 -36.5q-11 0 -24 6t-39 26q-25 19 -37.5 25t-22.5 6q-22 0 -37.5 -16.5t-28.5 -53.5h-7q9 69 32.5 106.5t56.5 37.5q12 0 25.5 -6.5t39.5 -26.5q25 -18 37 -24t22 -6q21 0 37 15.5t30 52.5zM270 710q104 0 175 -103t71 -257t-71 -257
t-175 -103q-105 0 -175.5 102.5t-70.5 257.5t70.5 257.5t175.5 102.5zM270 12q58 0 87 85t29 253t-29 253t-87 85t-87 -84t-29 -254t29 -254t87 -84z" />
    <glyph glyph-name="Odieresis" unicode="&#xd6;" horiz-adv-x="540" 
d="M259 799q0 -25 -17 -42.5t-42 -17.5q-24 0 -42 18t-18 42t18 42.5t42 18.5q25 0 42 -18t17 -43zM400 799q0 -24 -18 -42t-42 -18q-25 0 -42.5 17.5t-17.5 42.5t17.5 43t42.5 18q24 0 42 -18.5t18 -42.5zM270 710q104 0 175 -103t71 -257t-71 -257t-175 -103
q-105 0 -175.5 102.5t-70.5 257.5t70.5 257.5t175.5 102.5zM270 12q58 0 87 85t29 253t-29 253t-87 85t-87 -84t-29 -254t29 -254t87 -84z" />
    <glyph glyph-name="multiply" unicode="&#xd7;" horiz-adv-x="318" 
d="M35 214l105 106l-105 105l19 19l105 -105l104 105l19 -19l-104 -105l104 -106l-18 -18l-105 106l-105 -106z" />
    <glyph glyph-name="Oslash" unicode="&#xd8;" horiz-adv-x="540" 
d="M516 350q0 -154 -71 -257t-175 -103q-44 0 -84 20t-73 59l-53 -87l-20 14l57 93q-35 50 -54 117.5t-19 143.5q0 155 70.5 257.5t175.5 102.5q45 0 85.5 -21t73.5 -61l51 83l19 -14l-55 -89q35 -50 53.5 -116t18.5 -142zM270 12q58 0 87 85t29 253q0 47 -2 84t-6 67
l-210 -344q13 -73 38.5 -109t63.5 -36zM154 350q0 -48 2 -86.5t6 -69.5l211 343q-13 75 -39 113t-64 38q-58 0 -87 -84t-29 -254z" />
    <glyph glyph-name="Ugrave" unicode="&#xd9;" horiz-adv-x="512" 
d="M184 879h119q3 -46 12.5 -78.5t28.5 -67.5h-3q-61 22 -101.5 59.5t-55.5 86.5zM456 566v-361q0 -97 -52.5 -156t-142.5 -59q-99 0 -152 56.5t-53 161.5v374q0 55 -11 78t-42 38v2h219v-2q-31 -15 -42 -38t-11 -78v-368q0 -87 31.5 -130t95.5 -43q61 0 96 45t35 122v350
q0 58 -16.5 90.5t-56.5 49.5v2h172v-2q-37 -17 -53.5 -48t-16.5 -84z" />
    <glyph glyph-name="Uacute" unicode="&#xda;" horiz-adv-x="512" 
d="M245 879h119q-15 -49 -55.5 -86.5t-101.5 -59.5h-3q19 35 28.5 67.5t12.5 78.5zM456 566v-361q0 -97 -52.5 -156t-142.5 -59q-99 0 -152 56.5t-53 161.5v374q0 55 -11 78t-42 38v2h219v-2q-31 -15 -42 -38t-11 -78v-368q0 -87 31.5 -130t95.5 -43q61 0 96 45t35 122v350
q0 58 -16.5 90.5t-56.5 49.5v2h172v-2q-37 -17 -53.5 -48t-16.5 -84z" />
    <glyph glyph-name="Ucircumflex" unicode="&#xdb;" horiz-adv-x="512" 
d="M456 566v-361q0 -97 -52.5 -156t-142.5 -59q-99 0 -152 56.5t-53 161.5v374q0 55 -11 78t-42 38v2h219v-2q-31 -15 -42 -38t-11 -78v-368q0 -87 31.5 -130t95.5 -43q61 0 96 45t35 122v350q0 58 -16.5 90.5t-56.5 49.5v2h172v-2q-37 -17 -53.5 -48t-16.5 -84zM405 728h-7
q-38 5 -72 19t-53 33q-20 -19 -55 -33t-72 -19h-6q51 40 81 79t49 87h5q19 -48 49 -87t81 -79z" />
    <glyph glyph-name="Udieresis" unicode="&#xdc;" horiz-adv-x="512" 
d="M261 799q0 -25 -17 -42.5t-42 -17.5q-24 0 -42 18t-18 42t18 42.5t42 18.5q25 0 42 -18t17 -43zM402 799q0 -24 -18 -42t-42 -18q-25 0 -42.5 17.5t-17.5 42.5t17.5 43t42.5 18q24 0 42 -18.5t18 -42.5zM456 566v-361q0 -97 -52.5 -156t-142.5 -59q-99 0 -152 56.5
t-53 161.5v374q0 55 -11 78t-42 38v2h219v-2q-31 -15 -42 -38t-11 -78v-368q0 -87 31.5 -130t95.5 -43q61 0 96 45t35 122v350q0 58 -16.5 90.5t-56.5 49.5v2h172v-2q-37 -17 -53.5 -48t-16.5 -84z" />
    <glyph glyph-name="Yacute" unicode="&#xdd;" horiz-adv-x="525" 
d="M189 597l113 -266l112 250q7 15 10.5 28t3.5 25q0 22 -12 38t-35 26v2h145v-2q-24 -16 -39.5 -36t-34.5 -62l-137 -308v-181q0 -48 12 -70t48 -39v-2h-229v2q36 17 48 39t12 70v181l-137 308q-20 44 -34 63t-36 35v2h211v-2q-19 -12 -26.5 -23.5t-7.5 -26.5
q0 -10 3.5 -23t9.5 -28zM260 879h119q-15 -49 -55.5 -86.5t-101.5 -59.5h-3q19 35 28.5 67.5t12.5 78.5z" />
    <glyph glyph-name="Thorn" unicode="&#xde;" horiz-adv-x="496" 
d="M180 582v-15h60q111 0 176.5 -55.5t65.5 -151.5t-65.5 -151t-176.5 -55h-60v-39q0 -56 13 -76.5t52 -36.5v-2h-231v2q31 15 42 38t11 78v464q0 55 -11 78t-42 38v2h219v-2q-31 -15 -42 -38t-11 -78zM180 543v-365h34q72 0 111 47.5t39 134.5t-39 135t-111 48h-34z" />
    <glyph glyph-name="germandbls" unicode="&#xdf;" horiz-adv-x="487" 
d="M259 738q-47 0 -71.5 -43t-24.5 -124v-571h-148v2q27 15 34 31.5t7 63.5v366h-56v7l56 22v30q0 109 56 170.5t147 61.5q68 0 112.5 -34t44.5 -89q0 -24 -8 -44.5t-26 -39.5q-12 -13 -37 -32.5t-33 -26.5q-24 -23 -32 -38.5t-8 -35.5q0 -21 12.5 -37t85.5 -70
q63 -46 84 -80.5t21 -81.5q0 -67 -39 -111t-98 -44q-13 0 -25.5 3t-30.5 12q-12 6 -18 8t-12 2q-9 0 -17.5 -5t-19.5 -20l-9 191h2q33 -88 66 -130t69 -42q27 0 45.5 22t18.5 54q0 30 -13.5 52t-76.5 69q-40 31 -52 42t-20 22q-15 18 -22 39.5t-7 48.5q0 31 13.5 58t68.5 87
q22 25 32.5 56t10.5 72q0 50 -22 78.5t-60 28.5z" />
    <glyph glyph-name="agrave" unicode="&#xe0;" horiz-adv-x="407" 
d="M392 36q8 0 14.5 2.5t10.5 6.5v-2q-10 -24 -32 -37.5t-51 -13.5q-36 0 -58.5 21.5t-26.5 61.5l-1 19q-8 -46 -38.5 -73.5t-75.5 -27.5q-50 0 -80.5 31.5t-30.5 83.5q0 56 39 93t142 67l43 12v123q0 36 -16.5 56.5t-44.5 20.5q-25 0 -40.5 -18.5t-15.5 -48.5
q0 -29 11 -44.5t32 -15.5q3 0 6.5 1t6.5 2q-6 -22 -24 -34.5t-42 -12.5q-34 0 -54 20t-20 56q0 50 42.5 82t106.5 32q82 0 121 -35.5t39 -109.5v-59.5t-1 -93.5q-1 -49 -1 -71.5v-39.5q0 -26 10 -40t29 -14zM246 154l1 107l-27 -9q-50 -17 -72 -46t-22 -75q0 -37 14.5 -57.5
t40.5 -20.5q30 0 47 26.5t18 74.5zM129 727h102q0 -63 8 -108t24 -76h-4q-56 40 -87 83.5t-43 100.5z" />
    <glyph glyph-name="aacute" unicode="&#xe1;" horiz-adv-x="407" 
d="M392 36q8 0 14.5 2.5t10.5 6.5v-2q-10 -24 -32 -37.5t-51 -13.5q-36 0 -58.5 21.5t-26.5 61.5l-1 19q-8 -46 -38.5 -73.5t-75.5 -27.5q-50 0 -80.5 31.5t-30.5 83.5q0 56 39 93t142 67l43 12v123q0 36 -16.5 56.5t-44.5 20.5q-25 0 -40.5 -18.5t-15.5 -48.5
q0 -29 11 -44.5t32 -15.5q3 0 6.5 1t6.5 2q-6 -22 -24 -34.5t-42 -12.5q-34 0 -54 20t-20 56q0 50 42.5 82t106.5 32q82 0 121 -35.5t39 -109.5v-59.5t-1 -93.5q-1 -49 -1 -71.5v-39.5q0 -26 10 -40t29 -14zM246 154l1 107l-27 -9q-50 -17 -72 -46t-22 -75q0 -37 14.5 -57.5
t40.5 -20.5q30 0 47 26.5t18 74.5zM179 727h102q-12 -56 -43 -100t-88 -84h-3q16 31 24 76t8 108z" />
    <glyph glyph-name="acircumflex" unicode="&#xe2;" horiz-adv-x="407" 
d="M392 36q8 0 14.5 2.5t10.5 6.5v-2q-10 -24 -32 -37.5t-51 -13.5q-36 0 -58.5 21.5t-26.5 61.5l-1 19q-8 -46 -38.5 -73.5t-75.5 -27.5q-50 0 -80.5 31.5t-30.5 83.5q0 56 39 93t142 67l43 12v123q0 36 -16.5 56.5t-44.5 20.5q-25 0 -40.5 -18.5t-15.5 -48.5
q0 -29 11 -44.5t32 -15.5q3 0 6.5 1t6.5 2q-6 -22 -24 -34.5t-42 -12.5q-34 0 -54 20t-20 56q0 50 42.5 82t106.5 32q82 0 121 -35.5t39 -109.5v-59.5t-1 -93.5q-1 -49 -1 -71.5v-39.5q0 -26 10 -40t29 -14zM246 154l1 107l-27 -9q-50 -17 -72 -46t-22 -75q0 -37 14.5 -57.5
t40.5 -20.5q30 0 47 26.5t18 74.5zM330 539h-6q-34 14 -66.5 37t-50.5 45q-19 -22 -52 -45t-66 -37h-6q43 48 73.5 100t48.5 106h4q17 -55 47.5 -107t73.5 -99z" />
    <glyph glyph-name="atilde" unicode="&#xe3;" horiz-adv-x="407" 
d="M392 36q8 0 14.5 2.5t10.5 6.5v-2q-10 -24 -32 -37.5t-51 -13.5q-36 0 -58.5 21.5t-26.5 61.5l-1 19q-8 -46 -38.5 -73.5t-75.5 -27.5q-50 0 -80.5 31.5t-30.5 83.5q0 56 39 93t142 67l43 12v123q0 36 -16.5 56.5t-44.5 20.5q-25 0 -40.5 -18.5t-15.5 -48.5
q0 -29 11 -44.5t32 -15.5q3 0 6.5 1t6.5 2q-6 -22 -24 -34.5t-42 -12.5q-34 0 -54 20t-20 56q0 50 42.5 82t106.5 32q82 0 121 -35.5t39 -109.5v-59.5t-1 -93.5q-1 -49 -1 -71.5v-39.5q0 -26 10 -40t29 -14zM246 154l1 107l-27 -9q-50 -17 -72 -46t-22 -75q0 -37 14.5 -57.5
t40.5 -20.5q30 0 47 26.5t18 74.5zM342 707h6q-8 -67 -30 -104t-54 -37q-13 0 -27 6.5t-39 27.5q-21 18 -31 23t-19 5q-21 0 -36 -16t-26 -51h-7q9 69 31 105t54 36q13 0 26.5 -6.5t38.5 -27.5q21 -17 31.5 -22.5t19.5 -5.5q20 0 34.5 15.5t27.5 51.5z" />
    <glyph glyph-name="adieresis" unicode="&#xe4;" horiz-adv-x="407" 
d="M392 36q8 0 14.5 2.5t10.5 6.5v-2q-10 -24 -32 -37.5t-51 -13.5q-36 0 -58.5 21.5t-26.5 61.5l-1 19q-8 -46 -38.5 -73.5t-75.5 -27.5q-50 0 -80.5 31.5t-30.5 83.5q0 56 39 93t142 67l43 12v123q0 36 -16.5 56.5t-44.5 20.5q-25 0 -40.5 -18.5t-15.5 -48.5
q0 -29 11 -44.5t32 -15.5q3 0 6.5 1t6.5 2q-6 -22 -24 -34.5t-42 -12.5q-34 0 -54 20t-20 56q0 50 42.5 82t106.5 32q82 0 121 -35.5t39 -109.5v-59.5t-1 -93.5q-1 -49 -1 -71.5v-39.5q0 -26 10 -40t29 -14zM246 154l1 107l-27 -9q-50 -17 -72 -46t-22 -75q0 -37 14.5 -57.5
t40.5 -20.5q30 0 47 26.5t18 74.5zM195 633q0 -25 -17 -42.5t-42 -17.5q-24 0 -42 18t-18 42t18 42.5t42 18.5q25 0 42 -18t17 -43zM336 633q0 -24 -18 -42t-42 -18q-25 0 -42.5 17.5t-17.5 42.5t17.5 43t42.5 18q24 0 42 -18.5t18 -42.5z" />
    <glyph glyph-name="aring" unicode="&#xe5;" horiz-adv-x="407" 
d="M392 36q8 0 14.5 2.5t10.5 6.5v-2q-10 -24 -32 -37.5t-51 -13.5q-36 0 -58.5 21.5t-26.5 61.5l-1 19q-8 -46 -38.5 -73.5t-75.5 -27.5q-50 0 -80.5 31.5t-30.5 83.5q0 56 39 93t142 67l43 12v123q0 36 -16.5 56.5t-44.5 20.5q-25 0 -40.5 -18.5t-15.5 -48.5
q0 -29 11 -44.5t32 -15.5q3 0 6.5 1t6.5 2q-6 -22 -24 -34.5t-42 -12.5q-34 0 -54 20t-20 56q0 50 42.5 82t106.5 32q82 0 121 -35.5t39 -109.5v-59.5t-1 -93.5q-1 -49 -1 -71.5v-39.5q0 -26 10 -40t29 -14zM246 154l1 107l-27 -9q-50 -17 -72 -46t-22 -75q0 -37 14.5 -57.5
t40.5 -20.5q30 0 47 26.5t18 74.5zM120 633q0 34 25.5 59t60.5 25t60.5 -25t25.5 -59q0 -35 -25.5 -60t-60.5 -25t-60.5 25.5t-25.5 59.5zM144 633q0 -25 18.5 -43.5t43.5 -18.5q26 0 44 18.5t18 43.5q0 26 -18 44t-44 18q-25 0 -43.5 -18t-18.5 -44z" />
    <glyph glyph-name="ae" unicode="&#xe6;" horiz-adv-x="601" 
d="M574 163l7 -1q-11 -84 -51.5 -128t-107.5 -44q-56 0 -100.5 33t-63.5 90q-4 -51 -39.5 -85.5t-82.5 -34.5q-51 0 -82 31t-31 84q0 56 39 93t142 67l43 12v122q0 36 -16.5 57t-45.5 21q-25 0 -40 -18.5t-15 -48.5q0 -29 11 -44.5t32 -15.5q3 0 6.5 1t6.5 2
q-6 -22 -24 -34.5t-42 -12.5q-34 0 -54 20t-20 56q0 50 42.5 82t106.5 32q42 0 70.5 -16.5t43.5 -49.5q25 33 53 49t60 16q77 0 119 -61.5t42 -172.5h-236q0 -104 30 -160.5t86 -56.5q40 0 68 29.5t43 86.5zM422 479q-31 0 -51.5 -54t-22.5 -139h133q0 111 -14 152t-45 41z
M246 154l1 105l-27 -8q-50 -17 -72 -45.5t-22 -74.5q0 -37 14.5 -57.5t40.5 -20.5q30 0 47 26.5t18 74.5z" />
    <glyph glyph-name="ccedilla" unicode="&#xe7;" horiz-adv-x="368" 
d="M272 -140q0 -37 -24.5 -60t-61.5 -23q-30 0 -53 16.5t-32 44.5l5 4q11 -18 23.5 -26.5t28.5 -8.5q20 0 31.5 14.5t11.5 41.5q0 28 -14.5 43t-43.5 17l32 69q-70 10 -113.5 77.5t-43.5 169.5q0 109 60 184.5t142 75.5q58 0 93.5 -29t35.5 -77q0 -34 -20.5 -55t-52.5 -21
q-24 0 -41 11.5t-21 31.5q2 -1 5 -1h9q20 0 32.5 16.5t12.5 43.5q0 30 -12.5 45.5t-37.5 15.5q-42 0 -68.5 -58.5t-26.5 -154.5q0 -105 28.5 -161t82.5 -56q42 0 68 27.5t37 83.5l7 -1q-7 -82 -47 -126t-107 -44h-2.5h-2.5l-23 -51q46 1 74.5 -20.5t28.5 -58.5z" />
    <glyph glyph-name="egrave" unicode="&#xe8;" horiz-adv-x="383" 
d="M18 243q0 109 54 182.5t132 73.5q77 0 119 -61t42 -173h-236q0 -104 30 -161t86 -57q40 0 68 29.5t43 86.5l7 -1q-11 -84 -51.5 -128t-107.5 -44q-81 0 -133.5 70t-52.5 183zM204 480q-31 0 -51.5 -53.5t-22.5 -138.5h133q0 111 -14 151.5t-45 40.5zM133 727h102
q0 -63 8 -108t24 -76h-4q-56 40 -87 83.5t-43 100.5z" />
    <glyph glyph-name="eacute" unicode="&#xe9;" horiz-adv-x="383" 
d="M182 727h102q-12 -56 -43 -100t-88 -84h-3q16 31 24 76t8 108zM18 243q0 109 54 182.5t132 73.5q77 0 119 -61t42 -173h-236q0 -104 30 -161t86 -57q40 0 68 29.5t43 86.5l7 -1q-11 -84 -51.5 -128t-107.5 -44q-81 0 -133.5 70t-52.5 183zM204 480q-31 0 -51.5 -53.5
t-22.5 -138.5h133q0 111 -14 151.5t-45 40.5z" />
    <glyph glyph-name="ecircumflex" unicode="&#xea;" horiz-adv-x="383" 
d="M333 539h-6q-34 14 -66.5 37t-50.5 45q-19 -22 -52 -45t-66 -37h-6q43 48 73.5 100t48.5 106h4q17 -55 47.5 -107t73.5 -99zM18 243q0 109 54 182.5t132 73.5q77 0 119 -61t42 -173h-236q0 -104 30 -161t86 -57q40 0 68 29.5t43 86.5l7 -1q-11 -84 -51.5 -128t-107.5 -44
q-81 0 -133.5 70t-52.5 183zM204 480q-31 0 -51.5 -53.5t-22.5 -138.5h133q0 111 -14 151.5t-45 40.5z" />
    <glyph glyph-name="edieresis" unicode="&#xeb;" horiz-adv-x="383" 
d="M199 633q0 -25 -17 -42.5t-42 -17.5q-24 0 -42 18t-18 42t18 42.5t42 18.5q25 0 42 -18t17 -43zM340 633q0 -24 -18 -42t-42 -18q-25 0 -42.5 17.5t-17.5 42.5t17.5 43t42.5 18q24 0 42 -18.5t18 -42.5zM18 243q0 109 54 182.5t132 73.5q77 0 119 -61t42 -173h-236
q0 -104 30 -161t86 -57q40 0 68 29.5t43 86.5l7 -1q-11 -84 -51.5 -128t-107.5 -44q-81 0 -133.5 70t-52.5 183zM204 480q-31 0 -51.5 -53.5t-22.5 -138.5h133q0 111 -14 151.5t-45 40.5z" />
    <glyph glyph-name="igrave" unicode="&#xec;" horiz-adv-x="218" 
d="M10 489h153v-388q0 -47 7.5 -65t34.5 -34v-2h-190v2q27 15 34 32t7 67v278q0 49 -9 70.5t-37 37.5v2zM31 727h102q0 -63 8 -108t24 -76h-4q-56 40 -87 83.5t-43 100.5z" />
    <glyph glyph-name="iacute" unicode="&#xed;" horiz-adv-x="218" 
d="M80 727h102q-12 -56 -43 -100t-88 -84h-3q16 31 24 76t8 108zM10 489h153v-388q0 -47 7.5 -65t34.5 -34v-2h-190v2q27 15 34 32t7 67v278q0 49 -9 70.5t-37 37.5v2z" />
    <glyph glyph-name="icircumflex" unicode="&#xee;" horiz-adv-x="218" 
d="M231 539h-6q-34 14 -66.5 37t-50.5 45q-19 -22 -52 -45t-66 -37h-6q43 48 73.5 100t48.5 106h4q17 -55 47.5 -107t73.5 -99zM10 489h153v-388q0 -47 7.5 -65t34.5 -34v-2h-190v2q27 15 34 32t7 67v278q0 49 -9 70.5t-37 37.5v2z" />
    <glyph glyph-name="idieresis" unicode="&#xef;" horiz-adv-x="218" 
d="M97 633q0 -25 -17 -42.5t-42 -17.5q-24 0 -42 18t-18 42t18 42.5t42 18.5q25 0 42 -18t17 -43zM238 633q0 -24 -18 -42t-42 -18q-25 0 -42.5 17.5t-17.5 42.5t17.5 43t42.5 18q24 0 42 -18.5t18 -42.5zM10 489h153v-388q0 -47 7.5 -65t34.5 -34v-2h-190v2q27 15 34 32
t7 67v278q0 49 -9 70.5t-37 37.5v2z" />
    <glyph glyph-name="eth" unicode="&#xf0;" horiz-adv-x="418" 
d="M399 266q0 -122 -53 -199t-137 -77q-82 0 -136.5 72t-54.5 182t54 182t135 72q20 0 38.5 -5.5t30.5 -15.5q-3 39 -16 75.5t-35 69.5l-111 -47l-9 21l106 45q-27 34 -64.5 61t-85.5 47l3 10q56 -15 103.5 -40.5t85.5 -59.5l86 36l9 -20l-78 -33q64 -66 96.5 -160.5
t32.5 -215.5zM132 244q0 -115 19.5 -175t57.5 -60t57 59.5t19 175.5t-19 175.5t-57 59.5t-57.5 -60t-19.5 -175z" />
    <glyph glyph-name="ntilde" unicode="&#xf1;" horiz-adv-x="453" 
d="M10 487v2h153v-101q14 53 47 82t79 29q53 0 82.5 -34t29.5 -96v-268q0 -49 7.5 -66.5t34.5 -32.5v-2h-190v2q27 15 34 32.5t7 66.5v263q0 38 -14 56t-42 18q-34 0 -54.5 -33.5t-20.5 -93.5v-210q0 -47 7.5 -65t34.5 -34v-2h-190v2q27 15 34 32t7 67v278q0 49 -9 70.5
t-37 37.5zM365 707h6q-8 -67 -30 -104t-54 -37q-13 0 -27 6.5t-39 27.5q-21 18 -31 23t-19 5q-21 0 -36 -16t-26 -51h-7q9 69 31 105t54 36q13 0 26.5 -6.5t38.5 -27.5q21 -17 31.5 -22.5t19.5 -5.5q20 0 34.5 15.5t27.5 51.5z" />
    <glyph glyph-name="ograve" unicode="&#xf2;" horiz-adv-x="418" 
d="M399 245q0 -111 -54 -183t-136 -72q-83 0 -137 72t-54 183q0 110 54.5 182t136.5 72t136 -72t54 -182zM132 245q0 -115 19.5 -175.5t57.5 -60.5t57 60t19 176t-19 175.5t-57 59.5t-57.5 -60t-19.5 -175zM131 727h102q0 -63 8 -108t24 -76h-4q-56 40 -87 83.5t-43 100.5z
" />
    <glyph glyph-name="oacute" unicode="&#xf3;" horiz-adv-x="418" 
d="M181 727h102q-12 -56 -43 -100t-88 -84h-3q16 31 24 76t8 108zM399 245q0 -111 -54 -183t-136 -72q-83 0 -137 72t-54 183q0 110 54.5 182t136.5 72t136 -72t54 -182zM132 245q0 -115 19.5 -175.5t57.5 -60.5t57 60t19 176t-19 175.5t-57 59.5t-57.5 -60t-19.5 -175z" />
    <glyph glyph-name="ocircumflex" unicode="&#xf4;" horiz-adv-x="418" 
d="M332 539h-6q-34 14 -66.5 37t-50.5 45q-19 -22 -52 -45t-66 -37h-6q43 48 73.5 100t48.5 106h4q17 -55 47.5 -107t73.5 -99zM399 245q0 -111 -54 -183t-136 -72q-83 0 -137 72t-54 183q0 110 54.5 182t136.5 72t136 -72t54 -182zM132 245q0 -115 19.5 -175.5t57.5 -60.5
t57 60t19 176t-19 175.5t-57 59.5t-57.5 -60t-19.5 -175z" />
    <glyph glyph-name="otilde" unicode="&#xf5;" horiz-adv-x="418" 
d="M399 245q0 -111 -54 -183t-136 -72q-83 0 -137 72t-54 183q0 110 54.5 182t136.5 72t136 -72t54 -182zM132 245q0 -115 19.5 -175.5t57.5 -60.5t57 60t19 176t-19 175.5t-57 59.5t-57.5 -60t-19.5 -175zM337 707h6q-8 -67 -30 -104t-54 -37q-13 0 -27 6.5t-39 27.5
q-21 18 -31 23t-19 5q-21 0 -36 -16t-26 -51h-7q9 69 31 105t54 36q13 0 26.5 -6.5t38.5 -27.5q21 -17 31.5 -22.5t19.5 -5.5q20 0 34.5 15.5t27.5 51.5z" />
    <glyph glyph-name="odieresis" unicode="&#xf6;" horiz-adv-x="418" 
d="M197 633q0 -25 -17 -42.5t-42 -17.5q-24 0 -42 18t-18 42t18 42.5t42 18.5q25 0 42 -18t17 -43zM338 633q0 -24 -18 -42t-42 -18q-25 0 -42.5 17.5t-17.5 42.5t17.5 43t42.5 18q24 0 42 -18.5t18 -42.5zM399 245q0 -111 -54 -183t-136 -72q-83 0 -137 72t-54 183
q0 110 54.5 182t136.5 72t136 -72t54 -182zM132 245q0 -115 19.5 -175.5t57.5 -60.5t57 60t19 176t-19 175.5t-57 59.5t-57.5 -60t-19.5 -175z" />
    <glyph glyph-name="divide" unicode="&#xf7;" horiz-adv-x="399" 
d="M199 424q-13 0 -22.5 9.5t-9.5 23.5t9.5 23t22.5 9q14 0 23.5 -9.5t9.5 -22.5t-9.5 -23t-23.5 -10zM356 308h-313v28h313v-28zM199 155q-13 0 -22.5 9.5t-9.5 22.5q0 14 9 23.5t23 9.5t23.5 -9.5t9.5 -23.5q0 -13 -10 -22.5t-23 -9.5z" />
    <glyph glyph-name="oslash" unicode="&#xf8;" horiz-adv-x="418" 
d="M399 245q0 -111 -54 -183t-136 -72q-33 0 -62.5 12.5t-54.5 36.5l-38 -60l-19 13l41 65q-28 36 -43 84t-15 104q0 110 54.5 182t136.5 72q33 0 62.5 -12.5t52.5 -35.5l36 57l19 -12l-39 -62q29 -35 44 -83.5t15 -105.5zM209 480q-38 0 -57.5 -60t-19.5 -175q0 -28 1 -51
t3 -42l140 223q-8 52 -25 78.5t-42 26.5zM209 9q38 0 57 60t19 176q0 29 -1 52t-3 43l-140 -223q8 -53 25.5 -80.5t42.5 -27.5z" />
    <glyph glyph-name="ugrave" unicode="&#xf9;" horiz-adv-x="448" 
d="M212 51q34 0 53 33t19 94v201q0 49 -9 71t-38 37v2h154v-380q0 -51 8 -71.5t33 -35.5v-2h-148v100q-14 -54 -45.5 -82t-76.5 -28q-52 0 -81.5 34t-29.5 96v259q0 49 -9 70.5t-37 37.5v2h153v-363q0 -37 13.5 -56t40.5 -19zM146 727h102q0 -63 8 -108t24 -76h-4
q-56 40 -87 83.5t-43 100.5z" />
    <glyph glyph-name="uacute" unicode="&#xfa;" horiz-adv-x="448" 
d="M195 727h102q-12 -56 -43 -100t-88 -84h-3q16 31 24 76t8 108zM212 51q34 0 53 33t19 94v201q0 49 -9 71t-38 37v2h154v-380q0 -51 8 -71.5t33 -35.5v-2h-148v100q-14 -54 -45.5 -82t-76.5 -28q-52 0 -81.5 34t-29.5 96v259q0 49 -9 70.5t-37 37.5v2h153v-363
q0 -37 13.5 -56t40.5 -19z" />
    <glyph glyph-name="ucircumflex" unicode="&#xfb;" horiz-adv-x="448" 
d="M346 539h-6q-34 14 -66.5 37t-50.5 45q-19 -22 -52 -45t-66 -37h-6q43 48 73.5 100t48.5 106h4q17 -55 47.5 -107t73.5 -99zM212 51q34 0 53 33t19 94v201q0 49 -9 71t-38 37v2h154v-380q0 -51 8 -71.5t33 -35.5v-2h-148v100q-14 -54 -45.5 -82t-76.5 -28q-52 0 -81.5 34
t-29.5 96v259q0 49 -9 70.5t-37 37.5v2h153v-363q0 -37 13.5 -56t40.5 -19z" />
    <glyph glyph-name="udieresis" unicode="&#xfc;" horiz-adv-x="448" 
d="M212 633q0 -25 -17 -42.5t-42 -17.5q-24 0 -42 18t-18 42t18 42.5t42 18.5q25 0 42 -18t17 -43zM353 633q0 -24 -18 -42t-42 -18q-25 0 -42.5 17.5t-17.5 42.5t17.5 43t42.5 18q24 0 42 -18.5t18 -42.5zM212 51q34 0 53 33t19 94v201q0 49 -9 71t-38 37v2h154v-380
q0 -51 8 -71.5t33 -35.5v-2h-148v100q-14 -54 -45.5 -82t-76.5 -28q-52 0 -81.5 34t-29.5 96v259q0 49 -9 70.5t-37 37.5v2h153v-363q0 -37 13.5 -56t40.5 -19z" />
    <glyph glyph-name="yacute" unicode="&#xfd;" horiz-adv-x="398" 
d="M106 -173q21 0 35 17.5t28 61.5l23 73l-141 402q-16 47 -26.5 66t-34.5 40v2h191v-2q-17 -9 -25.5 -21t-8.5 -28q0 -10 3 -23t9 -32l81 -257l75 248q4 13 6.5 26t2.5 24q0 24 -11 39t-34 24v2h129v-2q-25 -20 -37 -41.5t-26 -68.5l-153 -486q-23 -70 -49.5 -97.5
t-65.5 -27.5q-33 0 -56 21.5t-23 55.5q0 32 21 52.5t49 20.5q9 0 16.5 -2t12.5 -7q-11 -5 -18 -16.5t-7 -26.5q0 -17 9.5 -27t24.5 -10zM193 727h102q-12 -56 -43 -100t-88 -84h-3q16 31 24 76t8 108z" />
    <glyph glyph-name="thorn" unicode="&#xfe;" horiz-adv-x="460" 
d="M327 245q0 99 -21.5 155t-60.5 56q-36 0 -60 -43t-24 -113v-107q0 -74 23.5 -118.5t59.5 -44.5q39 0 61 57t22 158zM7 747v2h154v-368q10 57 42 87.5t81 30.5q68 0 113 -70.5t45 -183.5q0 -111 -46.5 -183t-114.5 -72q-49 0 -79.5 29t-40.5 84v-226q0 -46 9.5 -65
t42.5 -33v-2h-200v2q27 14 34 31.5t7 66.5v762q0 48 -9 70t-38 38z" />
    <glyph glyph-name="ydieresis" unicode="&#xff;" horiz-adv-x="398" 
d="M106 -173q21 0 35 17.5t28 61.5l23 73l-141 402q-16 47 -26.5 66t-34.5 40v2h191v-2q-17 -9 -25.5 -21t-8.5 -28q0 -10 3 -23t9 -32l81 -257l75 248q4 13 6.5 26t2.5 24q0 24 -11 39t-34 24v2h129v-2q-25 -20 -37 -41.5t-26 -68.5l-153 -486q-23 -70 -49.5 -97.5
t-65.5 -27.5q-33 0 -56 21.5t-23 55.5q0 32 21 52.5t49 20.5q9 0 16.5 -2t12.5 -7q-11 -5 -18 -16.5t-7 -26.5q0 -17 9.5 -27t24.5 -10zM210 633q0 -25 -17 -42.5t-42 -17.5q-24 0 -42 18t-18 42t18 42.5t42 18.5q25 0 42 -18t17 -43zM351 633q0 -24 -18 -42t-42 -18
q-25 0 -42.5 17.5t-17.5 42.5t17.5 43t42.5 18q24 0 42 -18.5t18 -42.5z" />
    <glyph glyph-name="Amacron" unicode="&#x100;" horiz-adv-x="541" 
d="M308 255l-79 248l-79 -248h158zM102 82q0 -29 12.5 -49t37.5 -31v-2h-153v2q27 15 45 43t37 87l191 578h3l196 -598q19 -58 32 -76.5t38 -33.5v-2h-216v2q20 9 29.5 22.5t9.5 32.5q0 11 -2.5 25t-8.5 33l-36 113h-176l-29 -91q-5 -16 -7.5 -29.5t-2.5 -25.5zM386 794v-36
h-231v36h231z" />
    <glyph glyph-name="amacron" unicode="&#x101;" horiz-adv-x="407" 
d="M392 36q8 0 14.5 2.5t10.5 6.5v-2q-10 -24 -32 -37.5t-51 -13.5q-36 0 -58.5 21.5t-26.5 61.5l-1 19q-8 -46 -38.5 -73.5t-75.5 -27.5q-50 0 -80.5 31.5t-30.5 83.5q0 56 39 93t142 67l43 12v123q0 36 -16.5 56.5t-44.5 20.5q-25 0 -40.5 -18.5t-15.5 -48.5
q0 -29 11 -44.5t32 -15.5q3 0 6.5 1t6.5 2q-6 -22 -24 -34.5t-42 -12.5q-34 0 -54 20t-20 56q0 50 42.5 82t106.5 32q82 0 121 -35.5t39 -109.5v-59.5t-1 -93.5q-1 -49 -1 -71.5v-39.5q0 -26 10 -40t29 -14zM246 154l1 107l-27 -9q-50 -17 -72 -46t-22 -75q0 -37 14.5 -57.5
t40.5 -20.5q30 0 47 26.5t18 74.5zM322 618v-36h-231v36h231z" />
    <glyph glyph-name="Abreve" unicode="&#x102;" horiz-adv-x="541" 
d="M308 255l-79 248l-79 -248h158zM102 82q0 -29 12.5 -49t37.5 -31v-2h-153v2q27 15 45 43t37 87l191 578h3l196 -598q19 -58 32 -76.5t38 -33.5v-2h-216v2q20 9 29.5 22.5t9.5 32.5q0 11 -2.5 25t-8.5 33l-36 113h-176l-29 -91q-5 -16 -7.5 -29.5t-2.5 -25.5zM382 880h5
q-6 -74 -34.5 -110.5t-81.5 -36.5t-82 36.5t-35 110.5h6q6 -35 35.5 -54.5t75.5 -19.5q45 0 75 19.5t36 54.5z" />
    <glyph glyph-name="abreve" unicode="&#x103;" horiz-adv-x="407" 
d="M392 36q8 0 14.5 2.5t10.5 6.5v-2q-10 -24 -32 -37.5t-51 -13.5q-36 0 -58.5 21.5t-26.5 61.5l-1 19q-8 -46 -38.5 -73.5t-75.5 -27.5q-50 0 -80.5 31.5t-30.5 83.5q0 56 39 93t142 67l43 12v123q0 36 -16.5 56.5t-44.5 20.5q-25 0 -40.5 -18.5t-15.5 -48.5
q0 -29 11 -44.5t32 -15.5q3 0 6.5 1t6.5 2q-6 -22 -24 -34.5t-42 -12.5q-34 0 -54 20t-20 56q0 50 42.5 82t106.5 32q82 0 121 -35.5t39 -109.5v-59.5t-1 -93.5q-1 -49 -1 -71.5v-39.5q0 -26 10 -40t29 -14zM246 154l1 107l-27 -9q-50 -17 -72 -46t-22 -75q0 -37 14.5 -57.5
t40.5 -20.5q30 0 47 26.5t18 74.5zM305 722h6q0 -80 -28.5 -126.5t-76.5 -46.5t-76.5 46.5t-28.5 126.5h6q5 -46 31.5 -71t67.5 -25t67.5 25t31.5 71z" />
    <glyph glyph-name="Aogonek" unicode="&#x104;" horiz-adv-x="541" 
d="M377 -132l3 -2q-13 -49 -37 -74t-59 -25t-57.5 21.5t-22.5 56.5q0 38 27.5 74.5t110.5 94.5q10 7 16 18.5t6 24.5q0 11 -2.5 25t-8.5 33l-36 113h-176l-29 -91q-5 -16 -7.5 -29.5t-2.5 -25.5q0 -29 12.5 -49t37.5 -31v-2h-153v2q27 15 45 43t37 87l191 578h3l196 -598
q19 -58 32 -76.5t38 -33.5v-2h-201q-35 -31 -53 -63.5t-18 -63.5q0 -28 12.5 -42.5t35.5 -14.5q19 0 33 12t27 40zM308 255l-79 248l-79 -248h158z" />
    <glyph glyph-name="aogonek" unicode="&#x105;" horiz-adv-x="407" 
d="M323 -233q-35 0 -57.5 21.5t-22.5 56.5q0 36 26.5 72t83.5 76q-3 -1 -7 -1h-12q-36 0 -58.5 21.5t-26.5 61.5l-1 19q-8 -46 -38.5 -73.5t-75.5 -27.5q-50 0 -80.5 31.5t-30.5 83.5q0 56 39 93t142 67l43 12v123q0 36 -16.5 56.5t-44.5 20.5q-25 0 -40.5 -18.5
t-15.5 -48.5q0 -29 11 -44.5t32 -15.5q3 0 6.5 1t6.5 2q-6 -22 -24 -34.5t-42 -12.5q-34 0 -54 20t-20 56q0 50 42.5 82t106.5 32q82 0 121 -35.5t39 -109.5v-59.5t-1 -93.5q-1 -49 -1 -71.5v-39.5q0 -26 10 -40t29 -14q8 0 14.5 2.5t10.5 6.5v-2q-4 -8 -12 -16.5t-26 -25.5
q-43 -39 -57 -67t-14 -61q0 -28 12.5 -42.5t34.5 -14.5q19 0 33 12t28 40l2 -2q-13 -50 -36.5 -74.5t-58.5 -24.5zM246 154l1 107l-27 -9q-50 -17 -72 -46t-22 -75q0 -37 14.5 -57.5t40.5 -20.5q30 0 47 26.5t18 74.5z" />
    <glyph glyph-name="Cacute" unicode="&#x106;" horiz-adv-x="465" 
d="M379 681q14 0 27 7.5t21 21.5l8 -242h-3q-25 100 -64.5 159.5t-83.5 59.5q-64 0 -98.5 -86t-34.5 -239q0 -143 40 -226t108 -83q51 0 85 37.5t54 113.5l7 -2q-13 -98 -63.5 -155t-124.5 -57q-103 0 -168 98.5t-65 257.5q0 156 72 260t178 104q14 0 27.5 -3.5t36.5 -13.5
q17 -7 25.5 -9.5t15.5 -2.5zM249 879h119q-15 -49 -55.5 -86.5t-101.5 -59.5h-3q19 35 28.5 67.5t12.5 78.5z" />
    <glyph glyph-name="cacute" unicode="&#x107;" horiz-adv-x="368" 
d="M192 727h102q-12 -56 -43 -100t-88 -84h-3q16 31 24 76t8 108zM273 419q0 30 -12.5 45.5t-37.5 15.5q-42 0 -68.5 -58.5t-26.5 -154.5q0 -105 28.5 -161t82.5 -56q42 0 68 27.5t37 83.5l7 -1q-7 -82 -47 -126t-107 -44q-78 0 -128.5 69t-50.5 180q0 109 60 184.5
t142 75.5q58 0 93.5 -29t35.5 -77q0 -34 -20.5 -55t-52.5 -21q-24 0 -41 11.5t-21 31.5q2 -1 5 -1h9q20 0 32.5 16.5t12.5 43.5z" />
    <glyph glyph-name="Ccircumflex" unicode="&#x108;" horiz-adv-x="465" 
d="M379 681q14 0 27 7.5t21 21.5l8 -242h-3q-25 100 -64.5 159.5t-83.5 59.5q-64 0 -98.5 -86t-34.5 -239q0 -143 40 -226t108 -83q51 0 85 37.5t54 113.5l7 -2q-13 -98 -63.5 -155t-124.5 -57q-103 0 -168 98.5t-65 257.5q0 156 72 260t178 104q14 0 27.5 -3.5t36.5 -13.5
q17 -7 25.5 -9.5t15.5 -2.5zM409 728h-7q-38 5 -72 19t-53 33q-20 -19 -55 -33t-72 -19h-6q51 40 81 79t49 87h5q19 -48 49 -87t81 -79z" />
    <glyph glyph-name="ccircumflex" unicode="&#x109;" horiz-adv-x="368" 
d="M343 539h-6q-34 14 -66.5 37t-50.5 45q-19 -22 -52 -45t-66 -37h-6q43 48 73.5 100t48.5 106h4q17 -55 47.5 -107t73.5 -99zM273 419q0 30 -12.5 45.5t-37.5 15.5q-42 0 -68.5 -58.5t-26.5 -154.5q0 -105 28.5 -161t82.5 -56q42 0 68 27.5t37 83.5l7 -1q-7 -82 -47 -126
t-107 -44q-78 0 -128.5 69t-50.5 180q0 109 60 184.5t142 75.5q58 0 93.5 -29t35.5 -77q0 -34 -20.5 -55t-52.5 -21q-24 0 -41 11.5t-21 31.5q2 -1 5 -1h9q20 0 32.5 16.5t12.5 43.5z" />
    <glyph glyph-name="Cdotaccent" unicode="&#x10a;" horiz-adv-x="465" 
d="M276 743q-28 0 -47.5 20t-19.5 48t19.5 48t47.5 20t48.5 -20t20.5 -48t-20.5 -48t-48.5 -20zM379 681q14 0 27 7.5t21 21.5l8 -242h-3q-25 100 -64.5 159.5t-83.5 59.5q-64 0 -98.5 -86t-34.5 -239q0 -143 40 -226t108 -83q51 0 85 37.5t54 113.5l7 -2
q-13 -98 -63.5 -155t-124.5 -57q-103 0 -168 98.5t-65 257.5q0 156 72 260t178 104q14 0 27.5 -3.5t36.5 -13.5q17 -7 25.5 -9.5t15.5 -2.5z" />
    <glyph glyph-name="cdotaccent" unicode="&#x10b;" horiz-adv-x="368" 
d="M273 419q0 30 -12.5 45.5t-37.5 15.5q-42 0 -68.5 -58.5t-26.5 -154.5q0 -105 28.5 -161t82.5 -56q42 0 68 27.5t37 83.5l7 -1q-7 -82 -47 -126t-107 -44q-78 0 -128.5 69t-50.5 180q0 109 60 184.5t142 75.5q58 0 93.5 -29t35.5 -77q0 -34 -20.5 -55t-52.5 -21
q-24 0 -41 11.5t-21 31.5q2 -1 5 -1h9q20 0 32.5 16.5t12.5 43.5zM219 576q-28 0 -47.5 20t-19.5 48t19.5 47.5t47.5 19.5q29 0 49 -19.5t20 -47.5t-20.5 -48t-48.5 -20z" />
    <glyph glyph-name="Ccaron" unicode="&#x10c;" horiz-adv-x="465" 
d="M379 681q14 0 27 7.5t21 21.5l8 -242h-3q-25 100 -64.5 159.5t-83.5 59.5q-64 0 -98.5 -86t-34.5 -239q0 -143 40 -226t108 -83q51 0 85 37.5t54 113.5l7 -2q-13 -98 -63.5 -155t-124.5 -57q-103 0 -168 98.5t-65 257.5q0 156 72 260t178 104q14 0 27.5 -3.5t36.5 -13.5
q17 -7 25.5 -9.5t15.5 -2.5zM144 894h6q38 -5 72.5 -18.5t54.5 -32.5q19 19 53 32.5t72 18.5h7q-51 -40 -81 -79t-49 -87h-5q-19 48 -49 87t-81 79z" />
    <glyph glyph-name="ccaron" unicode="&#x10d;" horiz-adv-x="368" 
d="M96 747h6q32 -13 65 -35.5t53 -45.5q19 23 52 45.5t65 35.5h6q-43 -47 -73.5 -99t-47.5 -107h-4q-18 54 -48.5 106t-73.5 100zM273 419q0 30 -12.5 45.5t-37.5 15.5q-42 0 -68.5 -58.5t-26.5 -154.5q0 -105 28.5 -161t82.5 -56q42 0 68 27.5t37 83.5l7 -1
q-7 -82 -47 -126t-107 -44q-78 0 -128.5 69t-50.5 180q0 109 60 184.5t142 75.5q58 0 93.5 -29t35.5 -77q0 -34 -20.5 -55t-52.5 -21q-24 0 -41 11.5t-21 31.5q2 -1 5 -1h9q20 0 32.5 16.5t12.5 43.5z" />
    <glyph glyph-name="Dcaron" unicode="&#x10e;" horiz-adv-x="539" 
d="M115 894h6q38 -5 72.5 -18.5t54.5 -32.5q19 19 53 32.5t72 18.5h7q-51 -40 -81 -79t-49 -87h-5q-19 48 -49 87t-81 79zM208 0h-194v2q31 15 42 38t11 78v464q0 55 -11 78t-42 38v2h179q146 0 234 -92t88 -251q0 -164 -85.5 -260.5t-221.5 -96.5zM180 676v-652h21
q93 0 141.5 84.5t48.5 248.5q0 153 -52.5 236t-147.5 83h-11z" />
    <glyph glyph-name="dcaron" unicode="&#x10f;" horiz-adv-x="460" 
d="M451 749h100q-11 -52 -44 -112t-70 -96h-3q12 45 16.5 99t0.5 109zM134 244q0 -100 21 -155.5t59 -55.5q36 0 60.5 43.5t24.5 113.5v107q0 72 -24 117t-60 45q-38 0 -59.5 -57t-21.5 -158zM179 499q49 0 79 -28.5t41 -84.5v253q0 47 -9 69t-38 39v2h153v-640
q0 -53 8.5 -73t33.5 -34v-2h-148v108q-11 -57 -43 -87.5t-81 -30.5q-68 0 -112 69.5t-44 183.5q0 111 46 183.5t114 72.5z" />
    <glyph glyph-name="Dcroat" unicode="&#x110;" horiz-adv-x="543" 
d="M519 357q0 -164 -85.5 -260.5t-221.5 -96.5h-194v2q31 15 42 38t11 78v228h-44v26h44v210q0 55 -11 78t-42 38v2h179q146 0 234 -92t88 -251zM184 346v-322h21q93 0 141.5 84.5t48.5 248.5q0 153 -52.5 236t-147.5 83h-11v-304h80v-26h-80z" />
    <glyph glyph-name="dcroat" unicode="&#x111;" horiz-adv-x="460" 
d="M134 244q0 -100 21 -155.5t59 -55.5q36 0 60.5 43.5t24.5 113.5v107q0 72 -24 117t-60 45q-38 0 -59.5 -57t-21.5 -158zM299 0v108q-11 -57 -43 -87.5t-81 -30.5q-68 0 -112 69.5t-44 183.5q0 111 46 183.5t114 72.5q49 0 79 -28.5t41 -84.5v191h-99v25h99v37q0 47 -9 69
t-38 39v2h153v-147h38v-25h-38v-468q0 -53 8.5 -73t33.5 -34v-2h-148z" />
    <glyph glyph-name="Emacron" unicode="&#x112;" horiz-adv-x="464" 
d="M357 794v-36h-231v36h231zM14 698v2h334q22 0 34 2t19 6l24 -178h-2q-43 84 -90.5 115.5t-122.5 31.5h-30v-308h14q62 0 89 22t52 90h2v-232h-2q-22 60 -46.5 79.5t-94.5 19.5h-14v-325h36q79 0 130 37t92 128h2l-22 -188h-404v2q31 15 42 38t11 78v464q0 55 -11 78
t-42 38z" />
    <glyph glyph-name="emacron" unicode="&#x113;" horiz-adv-x="383" 
d="M18 243q0 109 54 182.5t132 73.5q77 0 119 -61t42 -173h-236q0 -104 30 -161t86 -57q40 0 68 29.5t43 86.5l7 -1q-11 -84 -51.5 -128t-107.5 -44q-81 0 -133.5 70t-52.5 183zM204 480q-31 0 -51.5 -53.5t-22.5 -138.5h133q0 111 -14 151.5t-45 40.5zM325 618v-36h-231v36
h231z" />
    <glyph glyph-name="Ebreve" unicode="&#x114;" horiz-adv-x="464" 
d="M353 880h5q-6 -74 -34.5 -110.5t-81.5 -36.5t-82 36.5t-35 110.5h6q6 -35 35.5 -54.5t75.5 -19.5q45 0 75 19.5t36 54.5zM14 698v2h334q22 0 34 2t19 6l24 -178h-2q-43 84 -90.5 115.5t-122.5 31.5h-30v-308h14q62 0 89 22t52 90h2v-232h-2q-22 60 -46.5 79.5t-94.5 19.5
h-14v-325h36q79 0 130 37t92 128h2l-22 -188h-404v2q31 15 42 38t11 78v464q0 55 -11 78t-42 38z" />
    <glyph glyph-name="ebreve" unicode="&#x115;" horiz-adv-x="383" 
d="M18 243q0 109 54 182.5t132 73.5q77 0 119 -61t42 -173h-236q0 -104 30 -161t86 -57q40 0 68 29.5t43 86.5l7 -1q-11 -84 -51.5 -128t-107.5 -44q-81 0 -133.5 70t-52.5 183zM204 480q-31 0 -51.5 -53.5t-22.5 -138.5h133q0 111 -14 151.5t-45 40.5zM309 722h6
q0 -80 -28.5 -126.5t-76.5 -46.5t-76.5 46.5t-28.5 126.5h6q5 -46 31.5 -71t67.5 -25t67.5 25t31.5 71z" />
    <glyph glyph-name="Edotaccent" unicode="&#x116;" horiz-adv-x="464" 
d="M241 743q-28 0 -47.5 20t-19.5 48t19.5 48t47.5 20t48.5 -20t20.5 -48t-20.5 -48t-48.5 -20zM14 698v2h334q22 0 34 2t19 6l24 -178h-2q-43 84 -90.5 115.5t-122.5 31.5h-30v-308h14q62 0 89 22t52 90h2v-232h-2q-22 60 -46.5 79.5t-94.5 19.5h-14v-325h36q79 0 130 37
t92 128h2l-22 -188h-404v2q31 15 42 38t11 78v464q0 55 -11 78t-42 38z" />
    <glyph glyph-name="edotaccent" unicode="&#x117;" horiz-adv-x="383" 
d="M18 243q0 109 54 182.5t132 73.5q77 0 119 -61t42 -173h-236q0 -104 30 -161t86 -57q40 0 68 29.5t43 86.5l7 -1q-11 -84 -51.5 -128t-107.5 -44q-81 0 -133.5 70t-52.5 183zM204 480q-31 0 -51.5 -53.5t-22.5 -138.5h133q0 111 -14 151.5t-45 40.5zM209 576
q-28 0 -47.5 20t-19.5 48t19.5 47.5t47.5 19.5q29 0 49 -19.5t20 -47.5t-20.5 -48t-48.5 -20z" />
    <glyph glyph-name="Eogonek" unicode="&#x118;" horiz-adv-x="464" 
d="M372 -132l2 -2q-13 -50 -36.5 -74.5t-58.5 -24.5q-36 0 -58 21.5t-22 56.5q0 38 27.5 76t87.5 79h-300v2q31 15 42 38t11 78v464q0 55 -11 78t-42 38v2h334q22 0 34 2t19 6l24 -178h-2q-43 84 -90.5 115.5t-122.5 31.5h-30v-308h14q62 0 89 22t52 90h2v-232h-2
q-22 60 -46.5 79.5t-94.5 19.5h-14v-325h36q79 0 130 37t92 128h2l-22 -188h-86q-33 -31 -50.5 -63.5t-17.5 -63.5q0 -28 12.5 -42.5t34.5 -14.5q19 0 33 12t28 40z" />
    <glyph glyph-name="eogonek" unicode="&#x119;" horiz-adv-x="383" 
d="M216 -233q-35 0 -57 21.5t-22 56.5q0 37 26 73.5t82 76.5q-9 -2 -20 -3.5t-21 -1.5q-81 0 -133.5 70t-52.5 183q0 109 54 182.5t132 73.5q77 0 119 -61t42 -173h-236q0 -104 30 -161t86 -57q40 0 68 29.5t43 86.5l7 -1q-7 -53 -27 -90.5t-57 -64.5q-38 -29 -58 -63.5
t-20 -70.5q0 -28 12.5 -42.5t35.5 -14.5q19 0 33 12t28 40l2 -2q-13 -50 -37 -74.5t-59 -24.5zM204 480q-31 0 -51.5 -53.5t-22.5 -138.5h133q0 111 -14 151.5t-45 40.5z" />
    <glyph glyph-name="Ecaron" unicode="&#x11a;" horiz-adv-x="464" 
d="M109 894h6q38 -5 72.5 -18.5t54.5 -32.5q19 19 53 32.5t72 18.5h7q-51 -40 -81 -79t-49 -87h-5q-19 48 -49 87t-81 79zM14 698v2h334q22 0 34 2t19 6l24 -178h-2q-43 84 -90.5 115.5t-122.5 31.5h-30v-308h14q62 0 89 22t52 90h2v-232h-2q-22 60 -46.5 79.5t-94.5 19.5
h-14v-325h36q79 0 130 37t92 128h2l-22 -188h-404v2q31 15 42 38t11 78v464q0 55 -11 78t-42 38z" />
    <glyph glyph-name="ecaron" unicode="&#x11b;" horiz-adv-x="383" 
d="M87 747h6q32 -13 65 -35.5t53 -45.5q19 23 52 45.5t65 35.5h6q-43 -47 -73.5 -99t-47.5 -107h-4q-18 54 -48.5 106t-73.5 100zM18 243q0 109 54 182.5t132 73.5q77 0 119 -61t42 -173h-236q0 -104 30 -161t86 -57q40 0 68 29.5t43 86.5l7 -1q-11 -84 -51.5 -128
t-107.5 -44q-81 0 -133.5 70t-52.5 183zM204 480q-31 0 -51.5 -53.5t-22.5 -138.5h133q0 111 -14 151.5t-45 40.5z" />
    <glyph glyph-name="Gcircumflex" unicode="&#x11c;" horiz-adv-x="513" 
d="M283 687q-63 0 -98.5 -91.5t-35.5 -254.5q0 -156 31 -237.5t91 -81.5q41 0 66.5 38t25.5 101v49q0 51 -11.5 75.5t-41.5 41.5v2h193v-2q-20 -14 -27.5 -36.5t-7.5 -79.5v-221h-2l-77 103q-14 -47 -52.5 -75t-90.5 -28q-96 0 -159 99t-63 251q0 68 14.5 128.5t41.5 109.5
q36 63 86.5 97.5t107.5 34.5q15 0 30.5 -3.5t41.5 -13.5q18 -8 27 -10t16 -2q15 0 27.5 7.5t21.5 21.5l9 -242h-3q-27 99 -70 159t-91 60zM414 728h-7q-38 5 -72 19t-53 33q-20 -19 -55 -33t-72 -19h-6q51 40 81 79t49 87h5q19 -48 49 -87t81 -79z" />
    <glyph glyph-name="gcircumflex" unicode="&#x11d;" horiz-adv-x="425" 
d="M332 557h-6q-34 14 -66.5 37t-50.5 45q-19 -22 -52 -45t-66 -37h-6q43 48 73.5 100t48.5 106h4q17 -55 47.5 -107t73.5 -99zM268 336q0 69 -15.5 107.5t-44.5 38.5t-44.5 -38.5t-15.5 -107.5t15.5 -107t44.5 -38t44.5 38t15.5 107zM424 -46q0 -83 -64.5 -135t-162.5 -52
q-84 0 -138 33t-54 89q0 41 31 68.5t84 34.5q-42 6 -67.5 32.5t-25.5 66.5q0 34 25 63t64 43q-36 19 -56 56t-20 83q0 72 46 117.5t122 45.5q25 0 48.5 -6t44.5 -17q6 43 28 69.5t52 26.5q28 0 44 -15.5t16 -41.5q0 -18 -13 -34.5t-35 -27.5l-1 2q2 5 2.5 9.5t0.5 8.5
q0 16 -9.5 26t-25.5 10t-28 -11t-18 -31q30 -22 46.5 -55.5t16.5 -75.5q0 -72 -46 -117t-123 -45q-22 0 -42 4t-37 12q-20 -9 -31 -22.5t-11 -29.5q0 -21 15.5 -33t42.5 -12h125q74 0 114 -36.5t40 -102.5zM83 -104q0 -51 34.5 -81t91.5 -30q60 0 99 33t39 84q0 47 -26 67.5
t-84 20.5h-62q-44 0 -68 -24.5t-24 -69.5z" />
    <glyph glyph-name="Gbreve" unicode="&#x11e;" horiz-adv-x="513" 
d="M393 880h5q-6 -74 -34.5 -110.5t-81.5 -36.5t-82 36.5t-35 110.5h6q6 -35 35.5 -54.5t75.5 -19.5q45 0 75 19.5t36 54.5zM283 687q-63 0 -98.5 -91.5t-35.5 -254.5q0 -156 31 -237.5t91 -81.5q41 0 66.5 38t25.5 101v49q0 51 -11.5 75.5t-41.5 41.5v2h193v-2
q-20 -14 -27.5 -36.5t-7.5 -79.5v-221h-2l-77 103q-14 -47 -52.5 -75t-90.5 -28q-96 0 -159 99t-63 251q0 68 14.5 128.5t41.5 109.5q36 63 86.5 97.5t107.5 34.5q15 0 30.5 -3.5t41.5 -13.5q18 -8 27 -10t16 -2q15 0 27.5 7.5t21.5 21.5l9 -242h-3q-27 99 -70 159t-91 60z
" />
    <glyph glyph-name="gbreve" unicode="&#x11f;" horiz-adv-x="425" 
d="M268 336q0 69 -15.5 107.5t-44.5 38.5t-44.5 -38.5t-15.5 -107.5t15.5 -107t44.5 -38t44.5 38t15.5 107zM424 -46q0 -83 -64.5 -135t-162.5 -52q-84 0 -138 33t-54 89q0 41 31 68.5t84 34.5q-42 6 -67.5 32.5t-25.5 66.5q0 34 25 63t64 43q-36 19 -56 56t-20 83
q0 72 46 117.5t122 45.5q25 0 48.5 -6t44.5 -17q6 43 28 69.5t52 26.5q28 0 44 -15.5t16 -41.5q0 -18 -13 -34.5t-35 -27.5l-1 2q2 5 2.5 9.5t0.5 8.5q0 16 -9.5 26t-25.5 10t-28 -11t-18 -31q30 -22 46.5 -55.5t16.5 -75.5q0 -72 -46 -117t-123 -45q-22 0 -42 4t-37 12
q-20 -9 -31 -22.5t-11 -29.5q0 -21 15.5 -33t42.5 -12h125q74 0 114 -36.5t40 -102.5zM83 -104q0 -51 34.5 -81t91.5 -30q60 0 99 33t39 84q0 47 -26 67.5t-84 20.5h-62q-44 0 -68 -24.5t-24 -69.5zM307 722h6q0 -80 -28.5 -126.5t-76.5 -46.5t-76.5 46.5t-28.5 126.5h6
q5 -46 31.5 -71t67.5 -25t67.5 25t31.5 71z" />
    <glyph glyph-name="Gdotaccent" unicode="&#x120;" horiz-adv-x="513" 
d="M281 743q-28 0 -47.5 20t-19.5 48t19.5 48t47.5 20t48.5 -20t20.5 -48t-20.5 -48t-48.5 -20zM283 687q-63 0 -98.5 -91.5t-35.5 -254.5q0 -156 31 -237.5t91 -81.5q41 0 66.5 38t25.5 101v49q0 51 -11.5 75.5t-41.5 41.5v2h193v-2q-20 -14 -27.5 -36.5t-7.5 -79.5v-221
h-2l-77 103q-14 -47 -52.5 -75t-90.5 -28q-96 0 -159 99t-63 251q0 68 14.5 128.5t41.5 109.5q36 63 86.5 97.5t107.5 34.5q15 0 30.5 -3.5t41.5 -13.5q18 -8 27 -10t16 -2q15 0 27.5 7.5t21.5 21.5l9 -242h-3q-27 99 -70 159t-91 60z" />
    <glyph glyph-name="gdotaccent" unicode="&#x121;" horiz-adv-x="425" 
d="M268 336q0 69 -15.5 107.5t-44.5 38.5t-44.5 -38.5t-15.5 -107.5t15.5 -107t44.5 -38t44.5 38t15.5 107zM424 -46q0 -83 -64.5 -135t-162.5 -52q-84 0 -138 33t-54 89q0 41 31 68.5t84 34.5q-42 6 -67.5 32.5t-25.5 66.5q0 34 25 63t64 43q-36 19 -56 56t-20 83
q0 72 46 117.5t122 45.5q25 0 48.5 -6t44.5 -17q6 43 28 69.5t52 26.5q28 0 44 -15.5t16 -41.5q0 -18 -13 -34.5t-35 -27.5l-1 2q2 5 2.5 9.5t0.5 8.5q0 16 -9.5 26t-25.5 10t-28 -11t-18 -31q30 -22 46.5 -55.5t16.5 -75.5q0 -72 -46 -117t-123 -45q-22 0 -42 4t-37 12
q-20 -9 -31 -22.5t-11 -29.5q0 -21 15.5 -33t42.5 -12h125q74 0 114 -36.5t40 -102.5zM83 -104q0 -51 34.5 -81t91.5 -30q60 0 99 33t39 84q0 47 -26 67.5t-84 20.5h-62q-44 0 -68 -24.5t-24 -69.5zM208 576q-28 0 -47.5 20t-19.5 48t19.5 47.5t47.5 19.5q29 0 49 -19.5
t20 -47.5t-20.5 -48t-48.5 -20z" />
    <glyph glyph-name="Gcommaaccent" unicode="&#x122;" horiz-adv-x="513" 
d="M274 -52q33 0 52.5 -20t19.5 -55q0 -46 -34.5 -75.5t-89.5 -31.5v14q38 3 60 20.5t26 48.5q-7 -7 -17.5 -10.5t-23.5 -3.5q-24 0 -39.5 15.5t-15.5 38.5q0 26 17.5 42.5t44.5 16.5zM283 687q-63 0 -98.5 -91.5t-35.5 -254.5q0 -156 31 -237.5t91 -81.5q41 0 66.5 38
t25.5 101v49q0 51 -11.5 75.5t-41.5 41.5v2h193v-2q-20 -14 -27.5 -36.5t-7.5 -79.5v-221h-2l-77 103q-14 -47 -52.5 -75t-90.5 -28q-96 0 -159 99t-63 251q0 68 14.5 128.5t41.5 109.5q36 63 86.5 97.5t107.5 34.5q15 0 30.5 -3.5t41.5 -13.5q18 -8 27 -10t16 -2
q15 0 27.5 7.5t21.5 21.5l9 -242h-3q-27 99 -70 159t-91 60z" />
    <glyph glyph-name="gcommaaccent" unicode="&#x123;" horiz-adv-x="425" 
d="M213 562q-33 0 -52.5 20.5t-19.5 55.5q0 46 34.5 75t89.5 31v-13q-38 -3 -60 -20.5t-26 -48.5q7 7 18 10.5t23 3.5q23 0 39 -16t16 -39q0 -26 -17.5 -42.5t-44.5 -16.5zM268 336q0 69 -15.5 107.5t-44.5 38.5t-44.5 -38.5t-15.5 -107.5t15.5 -107t44.5 -38t44.5 38
t15.5 107zM424 -46q0 -83 -64.5 -135t-162.5 -52q-84 0 -138 33t-54 89q0 41 31 68.5t84 34.5q-42 6 -67.5 32.5t-25.5 66.5q0 34 25 63t64 43q-36 19 -56 56t-20 83q0 72 46 117.5t122 45.5q25 0 48.5 -6t44.5 -17q6 43 28 69.5t52 26.5q28 0 44 -15.5t16 -41.5
q0 -18 -13 -34.5t-35 -27.5l-1 2q2 5 2.5 9.5t0.5 8.5q0 16 -9.5 26t-25.5 10t-28 -11t-18 -31q30 -22 46.5 -55.5t16.5 -75.5q0 -72 -46 -117t-123 -45q-22 0 -42 4t-37 12q-20 -9 -31 -22.5t-11 -29.5q0 -21 15.5 -33t42.5 -12h125q74 0 114 -36.5t40 -102.5zM83 -104
q0 -51 34.5 -81t91.5 -30q60 0 99 33t39 84q0 47 -26 67.5t-84 20.5h-62q-44 0 -68 -24.5t-24 -69.5z" />
    <glyph glyph-name="Hcircumflex" unicode="&#x124;" horiz-adv-x="565" 
d="M67 118v464q0 55 -11 78t-42 38v2h219v-2q-31 -15 -42 -38t-11 -78v-211h206v211q0 55 -11.5 78t-42.5 38v2h220v-2q-31 -15 -42.5 -38t-11.5 -78v-464q0 -55 11.5 -78t42.5 -38v-2h-220v2q31 15 42.5 38t11.5 78v226h-206v-226q0 -55 11 -78t42 -38v-2h-219v2
q31 15 42 38t11 78zM415 728h-7q-38 5 -72 19t-53 33q-20 -19 -55 -33t-72 -19h-6q51 40 81 79t49 87h5q19 -48 49 -87t81 -79z" />
    <glyph glyph-name="hcircumflex" unicode="&#x125;" horiz-adv-x="449" 
d="M6 747v2h154v-361q14 53 47 82t78 29q53 0 82.5 -34t29.5 -96v-268q0 -47 7.5 -65t34.5 -34v-2h-190v2q27 15 34.5 32.5t7.5 66.5v263q0 37 -14 55.5t-42 18.5q-34 0 -54.5 -33.5t-20.5 -93.5v-210q0 -49 7 -66.5t34 -32.5v-2h-189v2q27 15 34 32.5t7 66.5v538
q0 48 -9 69.5t-38 38.5zM357 768h-7q-38 5 -72 19t-53 33q-20 -19 -55 -33t-72 -19h-6q51 40 81 79t49 87h5q19 -48 49 -87t81 -79z" />
    <glyph glyph-name="Hbar" unicode="&#x126;" horiz-adv-x="573" 
d="M184 351h206v121h-206v-121zM237 2v-2h-219v2q31 15 42 38t11 78v354h-44v26h44v84q0 55 -11 78t-42 38v2h219v-2q-31 -15 -42 -38t-11 -78v-84h206v84q0 55 -11.5 78t-42.5 38v2h220v-2q-31 -15 -42.5 -38t-11.5 -78v-84h44v-26h-44v-354q0 -55 11.5 -78t42.5 -38v-2
h-220v2q31 15 42.5 38t11.5 78v206h-206v-206q0 -55 11 -78t42 -38z" />
    <glyph glyph-name="hbar" unicode="&#x127;" horiz-adv-x="449" 
d="M201 2v-2h-189v2q27 15 34 32.5t7 66.5v476h-38v25h38v37q0 48 -9 69.5t-38 38.5v2h154v-147h99v-25h-99v-189q14 53 47 82t78 29q53 0 82.5 -34t29.5 -96v-268q0 -47 7.5 -65t34.5 -34v-2h-190v2q27 15 34.5 32.5t7.5 66.5v263q0 37 -14 55.5t-42 18.5
q-34 0 -54.5 -33.5t-20.5 -93.5v-210q0 -49 7 -66.5t34 -32.5z" />
    <glyph glyph-name="Itilde" unicode="&#x128;" horiz-adv-x="247" 
d="M180 582v-464q0 -55 11 -78t42 -38v-2h-219v2q31 15 42 38t11 78v464q0 55 -11 78t-42 38v2h219v-2q-31 -15 -42 -38t-11 -78zM260 886h6q-9 -69 -32 -105.5t-58 -36.5q-11 0 -24 6t-39 26q-25 19 -37.5 25t-22.5 6q-22 0 -37.5 -16.5t-28.5 -53.5h-7q9 69 32.5 106.5
t56.5 37.5q12 0 25.5 -6.5t39.5 -26.5q25 -18 37 -24t22 -6q21 0 37 15.5t30 52.5z" />
    <glyph glyph-name="itilde" unicode="&#x129;" horiz-adv-x="218" 
d="M233 708h6q-8 -68 -29.5 -105t-52.5 -37q-13 0 -26.5 6.5t-37.5 27.5q-21 17 -31 22.5t-19 5.5q-20 0 -34.5 -15.5t-26.5 -51.5h-6q9 68 30.5 105t52.5 37q12 0 25.5 -6.5t37.5 -27.5q21 -18 31.5 -23.5t19.5 -5.5q19 0 33 15.5t27 52.5zM10 489h153v-388q0 -47 7.5 -65
t34.5 -34v-2h-190v2q27 15 34 32t7 67v278q0 49 -9 70.5t-37 37.5v2z" />
    <glyph glyph-name="Imacron" unicode="&#x12a;" horiz-adv-x="247" 
d="M180 582v-464q0 -55 11 -78t42 -38v-2h-219v2q31 15 42 38t11 78v464q0 55 -11 78t-42 38v2h219v-2q-31 -15 -42 -38t-11 -78zM239 794v-36h-231v36h231z" />
    <glyph glyph-name="imacron" unicode="&#x12b;" horiz-adv-x="218" 
d="M203 618v-36h-198v36h198zM10 489h153v-388q0 -47 7.5 -65t34.5 -34v-2h-190v2q27 15 34 32t7 67v278q0 49 -9 70.5t-37 37.5v2z" />
    <glyph glyph-name="Ibreve" unicode="&#x12c;" horiz-adv-x="247" 
d="M180 582v-464q0 -55 11 -78t42 -38v-2h-219v2q31 15 42 38t11 78v464q0 55 -11 78t-42 38v2h219v-2q-31 -15 -42 -38t-11 -78zM235 880h5q-6 -74 -34.5 -110.5t-81.5 -36.5t-82 36.5t-35 110.5h6q6 -35 35.5 -54.5t75.5 -19.5q45 0 75 19.5t36 54.5z" />
    <glyph glyph-name="ibreve" unicode="&#x12d;" horiz-adv-x="218" 
d="M206 722h7q0 -80 -28.5 -126.5t-76.5 -46.5t-76.5 46.5t-28.5 126.5h6q5 -46 31.5 -71t67.5 -25t67 25t31 71zM10 489h153v-388q0 -47 7.5 -65t34.5 -34v-2h-190v2q27 15 34 32t7 67v278q0 49 -9 70.5t-37 37.5v2z" />
    <glyph glyph-name="Iogonek" unicode="&#x12e;" horiz-adv-x="247" 
d="M204 -132l2 -2q-13 -50 -36.5 -74.5t-58.5 -24.5q-36 0 -58 21.5t-22 56.5q0 38 27.5 76t87.5 79h-132v2q31 15 42 38t11 78v464q0 55 -11 78t-42 38v2h219v-2q-31 -15 -42 -38t-11 -78v-464q0 -55 11 -78t42 -38v-2h-69q-33 -31 -50.5 -63.5t-17.5 -63.5
q0 -28 12.5 -42.5t34.5 -14.5q19 0 33 12t28 40z" />
    <glyph glyph-name="iogonek" unicode="&#x12f;" horiz-adv-x="218" 
d="M109 576q-28 0 -48 20t-20 48t20 47.5t48 19.5t48 -19.5t20 -47.5t-20 -48t-48 -20zM189 -132l2 -2q-13 -50 -36.5 -74.5t-58.5 -24.5q-36 0 -58 21.5t-22 56.5q0 38 27.5 76t87.5 79h-116v2q27 15 34 32t7 67v278q0 49 -9 70.5t-37 37.5v2h153v-388q0 -47 7.5 -65
t34.5 -34v-2h-56q-33 -31 -50.5 -63.5t-17.5 -63.5q0 -28 12.5 -42.5t34.5 -14.5q19 0 33 12t28 40z" />
    <glyph glyph-name="Idotaccent" unicode="&#x130;" horiz-adv-x="247" 
d="M180 582v-464q0 -55 11 -78t42 -38v-2h-219v2q31 15 42 38t11 78v464q0 55 -11 78t-42 38v2h219v-2q-31 -15 -42 -38t-11 -78zM123 743q-28 0 -47.5 20t-19.5 48t19.5 48t47.5 20t48.5 -20t20.5 -48t-20.5 -48t-48.5 -20z" />
    <glyph glyph-name="dotlessi" unicode="&#x131;" horiz-adv-x="218" 
d="M10 489h153v-388q0 -47 7.5 -65t34.5 -34v-2h-190v2q27 15 34 32t7 67v278q0 49 -9 70.5t-37 37.5v2z" />
    <glyph glyph-name="IJ" unicode="&#x132;" 
 />
    <glyph glyph-name="Jcircumflex" unicode="&#x134;" horiz-adv-x="443" 
d="M187 9q42 0 64 39t22 113v421q0 55 -11 78t-42 38v2h219v-2q-31 -15 -42 -38t-11 -78v-389q0 -94 -55.5 -148.5t-146.5 -54.5q-79 0 -128 38t-49 102q0 44 27.5 71t70.5 27q24 0 44.5 -9.5t30.5 -26.5q-28 -3 -48 -27.5t-20 -60.5q0 -44 20 -69.5t55 -25.5zM462 728h-7
q-38 5 -72 19t-53 33q-20 -19 -55 -33t-72 -19h-6q51 40 81 79t49 87h5q19 -48 49 -87t81 -79z" />
    <glyph glyph-name="jcircumflex" unicode="&#x135;" horiz-adv-x="213" 
d="M231 539h-6q-34 14 -66.5 37t-50.5 45q-19 -22 -52 -45t-66 -37h-6q43 48 73.5 100t48.5 106h4q17 -55 47.5 -107t73.5 -99zM163 489v-541q0 -87 -41 -134t-114 -47q-57 0 -90 24.5t-33 67.5q0 31 20.5 51.5t50.5 20.5q17 0 32 -8t22 -21q-22 -6 -34 -22t-12 -40
q0 -25 12 -40.5t33 -15.5q24 0 35.5 26t11.5 90v479q0 49 -9 70.5t-37 37.5v2h153z" />
    <glyph glyph-name="Kcommaaccent" unicode="&#x136;" horiz-adv-x="546" 
d="M265 -52q33 0 52.5 -20t19.5 -55q0 -46 -34.5 -75.5t-89.5 -31.5v14q38 3 60 20.5t26 48.5q-7 -7 -17.5 -10.5t-23.5 -3.5q-24 0 -39.5 15.5t-15.5 38.5q0 26 17.5 42.5t44.5 16.5zM233 2v-2h-219v2q31 15 42 38t11 78v464q0 55 -11 78t-42 38v2h219v-2q-31 -15 -42 -38
t-11 -78v-267l190 286q8 12 12 23t4 20q0 17 -11 31t-31 23v2h194v-2q-48 -14 -81.5 -38.5t-60.5 -66.5l-110 -167l174 -314q30 -53 50.5 -76t45.5 -34v-2h-217v2q11 8 17 18t6 23q0 12 -4 25.5t-13 30.5l-130 230l-35 -53v-158q0 -55 11 -78t42 -38z" />
    <glyph glyph-name="kcommaaccent" unicode="&#x137;" horiz-adv-x="447" 
d="M219 -52q33 0 52.5 -20t19.5 -55q0 -46 -34.5 -75.5t-89.5 -31.5v14q38 3 60 20.5t26 48.5q-7 -7 -17.5 -10.5t-23.5 -3.5q-24 0 -39.5 15.5t-15.5 38.5q0 26 17.5 42.5t44.5 16.5zM160 749v-469h26q20 0 33 7.5t25 24.5l61 91q7 8 10.5 17.5t3.5 19.5q0 15 -8.5 27.5
t-23.5 19.5v2h161v-2q-37 -12 -63.5 -32t-47.5 -51l-64 -96l102 -209q17 -35 37 -58t49 -39v-2h-163q-1 13 -5.5 27t-18.5 45l-79 165q-6 13 -11.5 17.5t-14.5 4.5h-9v-158q0 -49 7 -66.5t34 -32.5v-2h-189v2q27 15 34 32.5t7 66.5v538q0 48 -9 69.5t-38 38.5v2h154z" />
    <glyph glyph-name="kgreenlandic" unicode="&#x138;" horiz-adv-x="451" 
d="M163 489v-209h27q20 0 32.5 7.5t24.5 24.5l62 91q6 8 9.5 17.5t3.5 19.5q0 15 -8 27.5t-23 19.5v2h161v-2q-37 -12 -64 -32.5t-48 -50.5l-64 -96l102 -209q17 -35 37.5 -58t49.5 -39v-2h-164q-1 14 -6 29.5t-17 42.5l-80 165q-6 13 -11.5 17.5t-14.5 4.5h-9v-158
q0 -47 7 -65t34 -34v-2h-189v2q27 15 34 32.5t7 66.5v278q0 49 -9 70.5t-38 37.5v2h154z" />
    <glyph glyph-name="Lacute" unicode="&#x139;" horiz-adv-x="446" 
d="M143 879h119q-15 -49 -55.5 -86.5t-101.5 -59.5h-3q19 35 28.5 67.5t12.5 78.5zM14 698v2h219v-2q-31 -15 -42 -38t-11 -78v-559h44q75 0 119 38t92 151h2l-20 -212h-403v2q31 15 42 38t11 78v464q0 55 -11 78t-42 38z" />
    <glyph glyph-name="lacute" unicode="&#x13a;" horiz-adv-x="215" 
d="M84 911h119q-15 -49 -55.5 -86.5t-101.5 -59.5h-3q19 35 28.5 67.5t12.5 78.5zM6 749h154v-648q0 -49 7 -66.5t34 -32.5v-2h-189v2q27 15 34 32.5t7 66.5v538q0 48 -9 69.5t-38 38.5v2z" />
    <glyph glyph-name="Lcommaaccent" unicode="&#x13b;" horiz-adv-x="446" 
d="M221 -52q33 0 52.5 -20t19.5 -55q0 -46 -34.5 -75.5t-89.5 -31.5v14q38 3 60 20.5t26 48.5q-7 -7 -17.5 -10.5t-23.5 -3.5q-24 0 -39.5 15.5t-15.5 38.5q0 26 17.5 42.5t44.5 16.5zM14 698v2h219v-2q-31 -15 -42 -38t-11 -78v-559h44q75 0 119 38t92 151h2l-20 -212h-403
v2q31 15 42 38t11 78v464q0 55 -11 78t-42 38z" />
    <glyph glyph-name="lcommaaccent" unicode="&#x13c;" horiz-adv-x="215" 
d="M99 -52q33 0 52.5 -20t19.5 -55q0 -46 -34.5 -75.5t-89.5 -31.5v14q38 3 60 20.5t26 48.5q-7 -7 -17.5 -10.5t-23.5 -3.5q-24 0 -39.5 15.5t-15.5 38.5q0 26 17.5 42.5t44.5 16.5zM6 749h154v-648q0 -49 7 -66.5t34 -32.5v-2h-189v2q27 15 34 32.5t7 66.5v538
q0 48 -9 69.5t-38 38.5v2z" />
    <glyph glyph-name="Lcaron" unicode="&#x13d;" horiz-adv-x="446" 
d="M287 700h100q-11 -52 -44 -112t-70 -96h-3q12 45 16.5 99t0.5 109zM14 698v2h219v-2q-31 -15 -42 -38t-11 -78v-559h44q75 0 119 38t92 151h2l-20 -212h-403v2q31 15 42 38t11 78v464q0 55 -11 78t-42 38z" />
    <glyph glyph-name="lcaron" unicode="&#x13e;" horiz-adv-x="215" 
d="M206 749h100q-11 -52 -44 -112t-70 -96h-3q12 45 16.5 99t0.5 109zM6 749h154v-648q0 -49 7 -66.5t34 -32.5v-2h-189v2q27 15 34 32.5t7 66.5v538q0 48 -9 69.5t-38 38.5v2z" />
    <glyph glyph-name="Ldot" unicode="&#x13f;" horiz-adv-x="446" 
d="M14 698v2h219v-2q-31 -15 -42 -38t-11 -78v-559h44q75 0 119 38t92 151h2l-20 -212h-403v2q31 15 42 38t11 78v464q0 55 -11 78t-42 38zM352 285q-28 0 -47.5 20t-19.5 48t19.5 47.5t47.5 19.5q29 0 49 -19.5t20 -47.5t-20.5 -48t-48.5 -20z" />
    <glyph glyph-name="ldot" unicode="&#x140;" horiz-adv-x="329" 
d="M6 749h154v-648q0 -49 7 -66.5t34 -32.5v-2h-189v2q27 15 34 32.5t7 66.5v538q0 48 -9 69.5t-38 38.5v2zM267 306q-28 0 -47.5 20t-19.5 48t19.5 47.5t47.5 19.5q29 0 49 -19.5t20 -47.5t-20.5 -48t-48.5 -20z" />
    <glyph glyph-name="Lslash" unicode="&#x141;" horiz-adv-x="448" 
d="M437 212l-20 -212h-403v2q31 15 42 38t11 78v183l-43 -17v29l43 16v253q0 55 -11 78t-42 38v2h219v-2q-31 -15 -42 -38t-11 -78v-214l107 40v-29l-107 -40v-316h44q75 0 119 38t92 151h2z" />
    <glyph glyph-name="lslash" unicode="&#x142;" horiz-adv-x="236" 
d="M212 2v-2h-189v2q27 15 34 32.5t7 66.5v271l-59 -38v28l59 39v238q0 48 -9 69.5t-38 38.5v2h154v-291l60 40v-29l-60 -40v-328q0 -49 7 -66.5t34 -32.5z" />
    <glyph glyph-name="Nacute" unicode="&#x143;" horiz-adv-x="516" 
d="M248 879h119q-15 -49 -55.5 -86.5t-101.5 -59.5h-3q19 35 28.5 67.5t12.5 78.5zM522 700v-2q-37 -17 -53.5 -48.5t-16.5 -83.5v-573h-24l-332 634v-485q0 -58 16.5 -90.5t56.5 -49.5v-2h-172v2q37 17 53.5 48t16.5 84v448q0 55 -11 78t-42 38v2h175l234 -454v312
q0 58 -16.5 90.5t-56.5 49.5v2h172z" />
    <glyph glyph-name="nacute" unicode="&#x144;" horiz-adv-x="453" 
d="M209 727h102q-12 -56 -43 -100t-88 -84h-3q16 31 24 76t8 108zM10 487v2h153v-101q14 53 47 82t79 29q53 0 82.5 -34t29.5 -96v-268q0 -49 7.5 -66.5t34.5 -32.5v-2h-190v2q27 15 34 32.5t7 66.5v263q0 38 -14 56t-42 18q-34 0 -54.5 -33.5t-20.5 -93.5v-210
q0 -47 7.5 -65t34.5 -34v-2h-190v2q27 15 34 32t7 67v278q0 49 -9 70.5t-37 37.5z" />
    <glyph glyph-name="Ncommaaccent" unicode="&#x145;" horiz-adv-x="516" 
d="M265 -52q33 0 52.5 -20t19.5 -55q0 -46 -34.5 -75.5t-89.5 -31.5v14q38 3 60 20.5t26 48.5q-7 -7 -17.5 -10.5t-23.5 -3.5q-24 0 -39.5 15.5t-15.5 38.5q0 26 17.5 42.5t44.5 16.5zM522 700v-2q-37 -17 -53.5 -48.5t-16.5 -83.5v-573h-24l-332 634v-485q0 -58 16.5 -90.5
t56.5 -49.5v-2h-172v2q37 17 53.5 48t16.5 84v448q0 55 -11 78t-42 38v2h175l234 -454v312q0 58 -16.5 90.5t-56.5 49.5v2h172z" />
    <glyph glyph-name="ncommaaccent" unicode="&#x146;" horiz-adv-x="453" 
d="M230 -52q33 0 52.5 -20t19.5 -55q0 -46 -34.5 -75.5t-89.5 -31.5v14q38 3 60 20.5t26 48.5q-7 -7 -17.5 -10.5t-23.5 -3.5q-24 0 -39.5 15.5t-15.5 38.5q0 26 17.5 42.5t44.5 16.5zM10 487v2h153v-101q14 53 47 82t79 29q53 0 82.5 -34t29.5 -96v-268q0 -49 7.5 -66.5
t34.5 -32.5v-2h-190v2q27 15 34 32.5t7 66.5v263q0 38 -14 56t-42 18q-34 0 -54.5 -33.5t-20.5 -93.5v-210q0 -47 7.5 -65t34.5 -34v-2h-190v2q27 15 34 32t7 67v278q0 49 -9 70.5t-37 37.5z" />
    <glyph glyph-name="Ncaron" unicode="&#x147;" horiz-adv-x="516" 
d="M143 894h6q38 -5 72.5 -18.5t54.5 -32.5q19 19 53 32.5t72 18.5h7q-51 -40 -81 -79t-49 -87h-5q-19 48 -49 87t-81 79zM522 700v-2q-37 -17 -53.5 -48.5t-16.5 -83.5v-573h-24l-332 634v-485q0 -58 16.5 -90.5t56.5 -49.5v-2h-172v2q37 17 53.5 48t16.5 84v448
q0 55 -11 78t-42 38v2h175l234 -454v312q0 58 -16.5 90.5t-56.5 49.5v2h172z" />
    <glyph glyph-name="ncaron" unicode="&#x148;" horiz-adv-x="453" 
d="M114 747h6q32 -13 65 -35.5t53 -45.5q19 23 52 45.5t65 35.5h6q-43 -47 -73.5 -99t-47.5 -107h-4q-18 54 -48.5 106t-73.5 100zM10 487v2h153v-101q14 53 47 82t79 29q53 0 82.5 -34t29.5 -96v-268q0 -49 7.5 -66.5t34.5 -32.5v-2h-190v2q27 15 34 32.5t7 66.5v263
q0 38 -14 56t-42 18q-34 0 -54.5 -33.5t-20.5 -93.5v-210q0 -47 7.5 -65t34.5 -34v-2h-190v2q27 15 34 32t7 67v278q0 49 -9 70.5t-37 37.5z" />
    <glyph glyph-name="Eng" unicode="&#x14a;" horiz-adv-x="516" 
d="M335 -209q42 0 65 36.5t23 105.5v86l-327 608v-485q0 -58 16.5 -90.5t56.5 -49.5v-2h-172v2q37 17 53.5 48t16.5 84v448q0 55 -11 78t-42 38v2h175l234 -450v308q0 58 -16.5 90.5t-56.5 49.5v2h172v-2q-37 -17 -53.5 -48.5t-16.5 -83.5v-627q0 -82 -33.5 -127t-95.5 -45
q-57 0 -91 27.5t-34 72.5q0 29 21 48t53 19q16 0 30.5 -5t23.5 -13q-21 -5 -32 -21.5t-11 -41.5q0 -28 14 -45t38 -17z" />
    <glyph glyph-name="eng" unicode="&#x14b;" horiz-adv-x="451" 
d="M246 -233q-57 0 -90.5 24.5t-33.5 67.5q0 30 20.5 51t50.5 21q18 0 33 -8t21 -21q-22 -6 -33.5 -21.5t-11.5 -40.5q0 -26 12 -41t32 -15q25 0 36.5 26t11.5 90v464q0 38 -14 56t-42 18q-34 0 -54.5 -33.5t-20.5 -93.5v-210q0 -47 7.5 -65t34.5 -34v-2h-190v2q27 15 34 32
t7 67v278q0 49 -9 70.5t-37 37.5v2h153v-101q14 53 47 82t79 29q53 0 82.5 -34t29.5 -96v-421q0 -87 -41 -134t-114 -47z" />
    <glyph glyph-name="Omacron" unicode="&#x14c;" horiz-adv-x="540" 
d="M386 794v-36h-231v36h231zM270 710q104 0 175 -103t71 -257t-71 -257t-175 -103q-105 0 -175.5 102.5t-70.5 257.5t70.5 257.5t175.5 102.5zM270 12q58 0 87 85t29 253t-29 253t-87 85t-87 -84t-29 -254t29 -254t87 -84z" />
    <glyph glyph-name="omacron" unicode="&#x14d;" horiz-adv-x="418" 
d="M324 618v-36h-231v36h231zM399 245q0 -111 -54 -183t-136 -72q-83 0 -137 72t-54 183q0 110 54.5 182t136.5 72t136 -72t54 -182zM132 245q0 -115 19.5 -175.5t57.5 -60.5t57 60t19 176t-19 175.5t-57 59.5t-57.5 -60t-19.5 -175z" />
    <glyph glyph-name="Obreve" unicode="&#x14e;" horiz-adv-x="540" 
d="M382 880h5q-6 -74 -34.5 -110.5t-81.5 -36.5t-82 36.5t-35 110.5h6q6 -35 35.5 -54.5t75.5 -19.5q45 0 75 19.5t36 54.5zM270 710q104 0 175 -103t71 -257t-71 -257t-175 -103q-105 0 -175.5 102.5t-70.5 257.5t70.5 257.5t175.5 102.5zM270 12q58 0 87 85t29 253
t-29 253t-87 85t-87 -84t-29 -254t29 -254t87 -84z" />
    <glyph glyph-name="obreve" unicode="&#x14f;" horiz-adv-x="418" 
d="M399 245q0 -111 -54 -183t-136 -72q-83 0 -137 72t-54 183q0 110 54.5 182t136.5 72t136 -72t54 -182zM132 245q0 -115 19.5 -175.5t57.5 -60.5t57 60t19 176t-19 175.5t-57 59.5t-57.5 -60t-19.5 -175zM307 722h6q0 -80 -28.5 -126.5t-76.5 -46.5t-76.5 46.5
t-28.5 126.5h6q5 -46 31.5 -71t67.5 -25t67.5 25t31.5 71z" />
    <glyph glyph-name="Ohungarumlaut" unicode="&#x150;" horiz-adv-x="540" 
d="M270 710q104 0 175 -103t71 -257t-71 -257t-175 -103q-105 0 -175.5 102.5t-70.5 257.5t70.5 257.5t175.5 102.5zM270 12q58 0 87 85t29 253t-29 253t-87 85t-87 -84t-29 -254t29 -254t87 -84zM223 885h99q-15 -48 -45 -84t-82 -68h-3q16 40 23.5 77t7.5 75zM340 885h99
q-15 -48 -45 -84t-82 -68h-3q16 40 23.5 77t7.5 75z" />
    <glyph glyph-name="ohungarumlaut" unicode="&#x151;" horiz-adv-x="418" 
d="M162 727h93q-13 -62 -41.5 -104.5t-80.5 -79.5h-3q16 31 24 76t8 108zM279 727h93q-13 -63 -41.5 -105.5t-80.5 -78.5h-3q16 31 24 76t8 108zM399 245q0 -111 -54 -183t-136 -72q-83 0 -137 72t-54 183q0 110 54.5 182t136.5 72t136 -72t54 -182zM132 245
q0 -115 19.5 -175.5t57.5 -60.5t57 60t19 176t-19 175.5t-57 59.5t-57.5 -60t-19.5 -175z" />
    <glyph glyph-name="OE" unicode="&#x152;" horiz-adv-x="756" 
d="M348 24h12v652h-21q-93 0 -142 -84.5t-49 -248.5q0 -152 52.5 -235.5t147.5 -83.5zM730 188h2l-22 -188h-362q-147 1 -235.5 93t-88.5 250q0 164 86 260.5t222 96.5h308q22 0 34.5 2t19.5 6l24 -178h-2q-43 84 -90.5 115.5t-122.5 31.5h-31v-308h15q62 0 89 22t52 90h2
v-232h-2q-22 60 -46.5 79.5t-94.5 19.5h-15v-325h36q80 0 130.5 37t91.5 128z" />
    <glyph glyph-name="oe" unicode="&#x153;" horiz-adv-x="645" 
d="M618 163l7 -1q-11 -84 -51.5 -128t-107.5 -44q-39 0 -71.5 19.5t-56.5 57.5q-25 -38 -57.5 -57.5t-71.5 -19.5q-83 0 -137 72t-54 183q0 110 54.5 182t136.5 72q39 0 73 -20t58 -59q24 38 56.5 58.5t69.5 20.5q77 0 119 -61t42 -173h-236q0 -104 30 -161t86 -57
q39 0 67.5 29.5t43.5 86.5zM209 9q38 0 57 60t19 176t-19 175.5t-57 59.5t-57.5 -60t-19.5 -175t19.5 -175.5t57.5 -60.5zM466 480q-31 0 -51.5 -53.5t-22.5 -138.5h132q0 113 -13.5 152.5t-44.5 39.5z" />
    <glyph glyph-name="Racute" unicode="&#x154;" horiz-adv-x="522" 
d="M206 675h-26v-323h26q76 0 115 41.5t39 122.5q0 77 -39.5 118t-114.5 41zM14 698v2h219q119 0 183.5 -47.5t64.5 -137.5q0 -79 -59 -126t-155 -51q71 -5 114.5 -38.5t54.5 -92.5l16 -82q10 -53 29.5 -79t64.5 -44v-2h-167q-13 16 -24 44.5t-17 63.5l-15 98
q-11 65 -40 93.5t-80 28.5h-23v-210q0 -55 11 -78t42 -38v-2h-219v2q31 15 42 38t11 78v464q0 55 -11 78t-42 38zM233 879h119q-15 -49 -55.5 -86.5t-101.5 -59.5h-3q19 35 28.5 67.5t12.5 78.5z" />
    <glyph glyph-name="racute" unicode="&#x155;" horiz-adv-x="363" 
d="M169 727h102q-12 -56 -43 -100t-88 -84h-3q16 31 24 76t8 108zM286 334q-12 0 -21 3t-12 8q11 3 19.5 14t8.5 26q0 20 -11.5 31t-32.5 11q-31 0 -52.5 -42t-21.5 -105v-183q0 -40 8.5 -58t43.5 -37v-2h-200v2q27 15 34 32t7 67v278q0 49 -9 70.5t-37 37.5v2h153v-126
q14 62 43 98.5t67 36.5q37 0 60 -22.5t23 -59.5q0 -36 -20 -59t-50 -23z" />
    <glyph glyph-name="Rcommaaccent" unicode="&#x156;" horiz-adv-x="522" 
d="M255 -52q33 0 52.5 -20t19.5 -55q0 -46 -34.5 -75.5t-89.5 -31.5v14q38 3 60 20.5t26 48.5q-7 -7 -17.5 -10.5t-23.5 -3.5q-24 0 -39.5 15.5t-15.5 38.5q0 26 17.5 42.5t44.5 16.5zM206 675h-26v-323h26q76 0 115 41.5t39 122.5q0 77 -39.5 118t-114.5 41zM14 698v2h219
q119 0 183.5 -47.5t64.5 -137.5q0 -79 -59 -126t-155 -51q71 -5 114.5 -38.5t54.5 -92.5l16 -82q10 -53 29.5 -79t64.5 -44v-2h-167q-13 16 -24 44.5t-17 63.5l-15 98q-11 65 -40 93.5t-80 28.5h-23v-210q0 -55 11 -78t42 -38v-2h-219v2q31 15 42 38t11 78v464q0 55 -11 78
t-42 38z" />
    <glyph glyph-name="rcommaaccent" unicode="&#x157;" horiz-adv-x="363" 
d="M108 -52q33 0 52.5 -20t19.5 -55q0 -46 -34.5 -75.5t-89.5 -31.5v14q38 3 60 20.5t26 48.5q-7 -7 -17.5 -10.5t-23.5 -3.5q-24 0 -39.5 15.5t-15.5 38.5q0 26 17.5 42.5t44.5 16.5zM286 334q-12 0 -21 3t-12 8q11 3 19.5 14t8.5 26q0 20 -11.5 31t-32.5 11
q-31 0 -52.5 -42t-21.5 -105v-183q0 -40 8.5 -58t43.5 -37v-2h-200v2q27 15 34 32t7 67v278q0 49 -9 70.5t-37 37.5v2h153v-126q14 62 43 98.5t67 36.5q37 0 60 -22.5t23 -59.5q0 -36 -20 -59t-50 -23z" />
    <glyph glyph-name="Rcaron" unicode="&#x158;" horiz-adv-x="522" 
d="M128 894h6q38 -5 72.5 -18.5t54.5 -32.5q19 19 53 32.5t72 18.5h7q-51 -40 -81 -79t-49 -87h-5q-19 48 -49 87t-81 79zM206 675h-26v-323h26q76 0 115 41.5t39 122.5q0 77 -39.5 118t-114.5 41zM14 698v2h219q119 0 183.5 -47.5t64.5 -137.5q0 -79 -59 -126t-155 -51
q71 -5 114.5 -38.5t54.5 -92.5l16 -82q10 -53 29.5 -79t64.5 -44v-2h-167q-13 16 -24 44.5t-17 63.5l-15 98q-11 65 -40 93.5t-80 28.5h-23v-210q0 -55 11 -78t42 -38v-2h-219v2q31 15 42 38t11 78v464q0 55 -11 78t-42 38z" />
    <glyph glyph-name="rcaron" unicode="&#x159;" horiz-adv-x="363" 
d="M74 747h6q32 -13 65 -35.5t53 -45.5q19 23 52 45.5t65 35.5h6q-43 -47 -73.5 -99t-47.5 -107h-4q-18 54 -48.5 106t-73.5 100zM286 334q-12 0 -21 3t-12 8q11 3 19.5 14t8.5 26q0 20 -11.5 31t-32.5 11q-31 0 -52.5 -42t-21.5 -105v-183q0 -40 8.5 -58t43.5 -37v-2h-200
v2q27 15 34 32t7 67v278q0 49 -9 70.5t-37 37.5v2h153v-126q14 62 43 98.5t67 36.5q37 0 60 -22.5t23 -59.5q0 -36 -20 -59t-50 -23z" />
    <glyph glyph-name="Sacute" unicode="&#x15a;" horiz-adv-x="436" 
d="M222 688q-44 0 -73.5 -34t-29.5 -85q0 -44 25 -78.5t103 -80.5q57 -34 79.5 -51t38.5 -35q25 -28 37.5 -61.5t12.5 -73.5q0 -88 -57.5 -143.5t-141.5 -55.5q-20 0 -39.5 3.5t-50.5 14.5q-20 7 -28.5 9t-15.5 2q-14 0 -24.5 -6t-24.5 -23l-13 245h2q35 -103 86.5 -163
t105.5 -60q50 0 80 34t30 91q0 31 -11.5 57.5t-35.5 50.5q-13 13 -31.5 27t-66.5 43q-92 56 -122 100.5t-30 102.5q0 84 55 138t138 54q18 0 35 -3t43 -13q16 -6 23.5 -7.5t14.5 -1.5q13 0 23 5.5t19 19.5l10 -219h-2q-40 117 -76.5 157t-87.5 40zM202 879h119
q-15 -49 -55.5 -86.5t-101.5 -59.5h-3q19 35 28.5 67.5t12.5 78.5z" />
    <glyph glyph-name="sacute" unicode="&#x15b;" horiz-adv-x="350" 
d="M149 727h102q-12 -56 -43 -100t-88 -84h-3q16 31 24 76t8 108zM166 479q-28 0 -45 -19t-17 -50q0 -35 19.5 -57t70.5 -45q70 -33 101 -71.5t31 -93.5q0 -68 -42.5 -110.5t-106.5 -42.5q-16 0 -31.5 3t-38.5 12q-14 5 -20.5 6.5t-12.5 1.5q-11 0 -22 -6.5t-18 -16.5
l-9 191h3q27 -79 67 -125.5t81 -46.5q32 0 51 22t19 58q0 34 -16.5 56t-74.5 52q-72 35 -99.5 70t-27.5 88q0 62 39.5 103t96.5 41q15 0 28.5 -3t34.5 -12q14 -6 21 -7.5t13 -1.5q10 0 18.5 5t21.5 19v-166h-3q-24 69 -58.5 107.5t-73.5 38.5z" />
    <glyph glyph-name="Scircumflex" unicode="&#x15c;" horiz-adv-x="436" 
d="M222 688q-44 0 -73.5 -34t-29.5 -85q0 -44 25 -78.5t103 -80.5q57 -34 79.5 -51t38.5 -35q25 -28 37.5 -61.5t12.5 -73.5q0 -88 -57.5 -143.5t-141.5 -55.5q-20 0 -39.5 3.5t-50.5 14.5q-20 7 -28.5 9t-15.5 2q-14 0 -24.5 -6t-24.5 -23l-13 245h2q35 -103 86.5 -163
t105.5 -60q50 0 80 34t30 91q0 31 -11.5 57.5t-35.5 50.5q-13 13 -31.5 27t-66.5 43q-92 56 -122 100.5t-30 102.5q0 84 55 138t138 54q18 0 35 -3t43 -13q16 -6 23.5 -7.5t14.5 -1.5q13 0 23 5.5t19 19.5l10 -219h-2q-40 117 -76.5 157t-87.5 40zM362 728h-7q-38 5 -72 19
t-53 33q-20 -19 -55 -33t-72 -19h-6q51 40 81 79t49 87h5q19 -48 49 -87t81 -79z" />
    <glyph glyph-name="scircumflex" unicode="&#x15d;" horiz-adv-x="350" 
d="M300 539h-6q-34 14 -66.5 37t-50.5 45q-19 -22 -52 -45t-66 -37h-6q43 48 73.5 100t48.5 106h4q17 -55 47.5 -107t73.5 -99zM166 479q-28 0 -45 -19t-17 -50q0 -35 19.5 -57t70.5 -45q70 -33 101 -71.5t31 -93.5q0 -68 -42.5 -110.5t-106.5 -42.5q-16 0 -31.5 3t-38.5 12
q-14 5 -20.5 6.5t-12.5 1.5q-11 0 -22 -6.5t-18 -16.5l-9 191h3q27 -79 67 -125.5t81 -46.5q32 0 51 22t19 58q0 34 -16.5 56t-74.5 52q-72 35 -99.5 70t-27.5 88q0 62 39.5 103t96.5 41q15 0 28.5 -3t34.5 -12q14 -6 21 -7.5t13 -1.5q10 0 18.5 5t21.5 19v-166h-3
q-24 69 -58.5 107.5t-73.5 38.5z" />
    <glyph glyph-name="Scedilla" unicode="&#x15e;" horiz-adv-x="436" 
d="M304 -140q0 -37 -24.5 -60t-61.5 -23q-30 0 -53 16.5t-32 44.5l5 4q11 -18 23.5 -26.5t28.5 -8.5q20 0 31.5 14.5t11.5 41.5q0 28 -14.5 43t-43.5 17l31 67q-17 1 -34.5 4.5t-45.5 13.5q-20 7 -28.5 9t-15.5 2q-14 0 -24.5 -6t-24.5 -23l-13 245h2q35 -103 86.5 -163
t105.5 -60q50 0 80 34t30 91q0 31 -11.5 57.5t-35.5 50.5q-13 13 -31.5 27t-66.5 43q-92 56 -122 100.5t-30 102.5q0 84 55 138t138 54q18 0 35 -3t43 -13q16 -6 23.5 -7.5t14.5 -1.5q13 0 23 5.5t19 19.5l10 -219h-2q-40 117 -76.5 157t-87.5 40q-44 0 -73.5 -34t-29.5 -85
q0 -44 25 -78.5t103 -80.5q57 -34 79.5 -51t38.5 -35q25 -28 37.5 -61.5t12.5 -73.5q0 -85 -54.5 -140.5t-136.5 -58.5l-23 -51q46 1 74.5 -20.5t28.5 -58.5z" />
    <glyph glyph-name="scedilla" unicode="&#x15f;" horiz-adv-x="350" 
d="M251 -140q0 -37 -24.5 -60t-61.5 -23q-30 0 -53 16.5t-32 44.5l5 4q11 -18 23.5 -26.5t28.5 -8.5q20 0 31.5 14.5t11.5 41.5q0 28 -14.5 43t-43.5 17l32 69q-10 1 -20 4t-27 9q-14 5 -20.5 6.5t-12.5 1.5q-11 0 -22 -6.5t-18 -16.5l-9 191h3q27 -79 67 -125.5t81 -46.5
q32 0 51 22t19 58q0 34 -16.5 56t-74.5 52q-72 35 -99.5 70t-27.5 88q0 62 39.5 103t96.5 41q15 0 28.5 -3t34.5 -12q14 -6 21 -7.5t13 -1.5q10 0 18.5 5t21.5 19v-166h-3q-24 69 -58.5 107.5t-73.5 38.5q-28 0 -45 -19t-17 -50q0 -35 19.5 -57t70.5 -45q70 -33 101 -71.5
t31 -93.5q0 -68 -42.5 -110.5t-106.5 -42.5h-2.5h-3.5l-23 -51q46 1 74.5 -20.5t28.5 -58.5z" />
    <glyph glyph-name="Scaron" unicode="&#x160;" horiz-adv-x="436" 
d="M222 688q-44 0 -73.5 -34t-29.5 -85q0 -44 25 -78.5t103 -80.5q57 -34 79.5 -51t38.5 -35q25 -28 37.5 -61.5t12.5 -73.5q0 -88 -57.5 -143.5t-141.5 -55.5q-20 0 -39.5 3.5t-50.5 14.5q-20 7 -28.5 9t-15.5 2q-14 0 -24.5 -6t-24.5 -23l-13 245h2q35 -103 86.5 -163
t105.5 -60q50 0 80 34t30 91q0 31 -11.5 57.5t-35.5 50.5q-13 13 -31.5 27t-66.5 43q-92 56 -122 100.5t-30 102.5q0 84 55 138t138 54q18 0 35 -3t43 -13q16 -6 23.5 -7.5t14.5 -1.5q13 0 23 5.5t19 19.5l10 -219h-2q-40 117 -76.5 157t-87.5 40zM97 894h6
q38 -5 72.5 -18.5t54.5 -32.5q19 19 53 32.5t72 18.5h7q-51 -40 -81 -79t-49 -87h-5q-19 48 -49 87t-81 79z" />
    <glyph glyph-name="scaron" unicode="&#x161;" horiz-adv-x="350" 
d="M53 747h6q32 -13 65 -35.5t53 -45.5q19 23 52 45.5t65 35.5h6q-43 -47 -73.5 -99t-47.5 -107h-4q-18 54 -48.5 106t-73.5 100zM166 479q-28 0 -45 -19t-17 -50q0 -35 19.5 -57t70.5 -45q70 -33 101 -71.5t31 -93.5q0 -68 -42.5 -110.5t-106.5 -42.5q-16 0 -31.5 3
t-38.5 12q-14 5 -20.5 6.5t-12.5 1.5q-11 0 -22 -6.5t-18 -16.5l-9 191h3q27 -79 67 -125.5t81 -46.5q32 0 51 22t19 58q0 34 -16.5 56t-74.5 52q-72 35 -99.5 70t-27.5 88q0 62 39.5 103t96.5 41q15 0 28.5 -3t34.5 -12q14 -6 21 -7.5t13 -1.5q10 0 18.5 5t21.5 19v-166h-3
q-24 69 -58.5 107.5t-73.5 38.5z" />
    <glyph glyph-name="Tcommaaccent" unicode="&#x162;" horiz-adv-x="548" 
d="M274 -223q-34 0 -55.5 18t-29.5 43l5 4q11 -19 24 -27t28 -8q20 0 31.5 14t11.5 42q0 57 -58 60l36 77h-110v2q18 8 29.5 17t18.5 21t10 29t3 42v569h-10q-40 0 -67.5 -11.5t-48.5 -35.5t-38.5 -61t-37.5 -88h-2l15 224q9 -5 22.5 -6.5t30.5 -1.5h384q17 0 30.5 1.5
t22.5 6.5l15 -224h-2q-20 51 -37.5 88t-38.5 61t-48 35.5t-67 11.5h-11v-569q0 -25 3 -42t10 -29t19 -21t30 -17v-2h-107l-28 -61q42 1 72.5 -18.5t30.5 -60.5q0 -40 -25.5 -61.5t-60.5 -21.5z" />
    <glyph glyph-name="tcommaaccent" unicode="&#x163;" horiz-adv-x="286" 
d="M154 -223q-34 0 -55.5 18t-29.5 43l5 4q11 -19 24 -27t28 -8q20 0 31.5 14t11.5 42q0 57 -58 60l31 68q-45 4 -69.5 38t-24.5 104v330h-46v8q57 15 93.5 64.5t50.5 124.5h9v-171h106l-5 -26h-101v-330q0 -45 10.5 -64.5t33.5 -19.5q55 0 65 109h9q-4 -78 -30 -123
t-83 -45l-23 -51q42 1 72.5 -18.5t30.5 -60.5q0 -40 -25.5 -61.5t-60.5 -21.5z" />
    <glyph glyph-name="Tcaron" unicode="&#x164;" horiz-adv-x="548" 
d="M141 894h6q38 -5 72.5 -18.5t54.5 -32.5q19 19 53 32.5t72 18.5h7q-51 -40 -81 -79t-49 -87h-5q-19 48 -49 87t-81 79zM82 700h384q22 0 34 2t19 6l15 -224h-2q-22 56 -36 85.5t-28 48.5q-23 33 -53 47.5t-74 14.5h-11v-569q0 -48 12.5 -70t49.5 -39v-2h-235v2
q37 17 49 39.5t12 69.5v569h-10q-44 0 -74 -14.5t-53 -46.5q-14 -20 -28.5 -49t-36.5 -86h-2l15 224q7 -4 19 -6t34 -2z" />
    <glyph glyph-name="tcaron" unicode="&#x165;" horiz-adv-x="286" 
d="M212 749h100q-11 -52 -44 -112t-70 -96h-3q12 45 16.5 99t0.5 109zM199 49q27 0 43.5 27.5t21.5 81.5h9q-4 -85 -33 -126.5t-84 -41.5q-54 0 -81 35.5t-27 107.5v330h-46v8q55 15 92.5 64t51.5 125h9v-171h106l-5 -26h-101v-330q0 -45 10.5 -64.5t33.5 -19.5z" />
    <glyph glyph-name="Tbar" unicode="&#x166;" horiz-adv-x="548" 
d="M392 2v-2h-235v2q37 17 49 39.5t12 69.5v235h-75v26h75v308h-10q-44 0 -74 -14.5t-53 -46.5q-14 -20 -28.5 -49t-36.5 -86h-2l15 224q7 -4 19 -6t34 -2h384q22 0 34 2t19 6l15 -224h-2q-22 56 -36 85.5t-28 48.5q-23 33 -53 47.5t-74 14.5h-11v-308h75v-26h-75v-235
q0 -48 12.5 -70t49.5 -39z" />
    <glyph glyph-name="tbar" unicode="&#x167;" horiz-adv-x="300" 
d="M273 158h10q-5 -86 -34 -127t-84 -41q-54 0 -81 36t-27 107l1 185h-44v23h44v122h-47v8q55 15 92.5 64t51.5 125h9v-171h107l-5 -26h-102v-122h101v-23h-101v-185q0 -45 10.5 -64.5t34.5 -19.5q27 0 43.5 27.5t20.5 81.5z" />
    <glyph glyph-name="Utilde" unicode="&#x168;" horiz-adv-x="512" 
d="M409 886h6q-9 -69 -32 -105.5t-58 -36.5q-11 0 -24 6t-39 26q-25 19 -37.5 25t-22.5 6q-22 0 -37.5 -16.5t-28.5 -53.5h-7q9 69 32.5 106.5t56.5 37.5q12 0 25.5 -6.5t39.5 -26.5q25 -18 37 -24t22 -6q21 0 37 15.5t30 52.5zM456 566v-361q0 -97 -52.5 -156t-142.5 -59
q-99 0 -152 56.5t-53 161.5v374q0 55 -11 78t-42 38v2h219v-2q-31 -15 -42 -38t-11 -78v-368q0 -87 31.5 -130t95.5 -43q61 0 96 45t35 122v350q0 58 -16.5 90.5t-56.5 49.5v2h172v-2q-37 -17 -53.5 -48t-16.5 -84z" />
    <glyph glyph-name="utilde" unicode="&#x169;" horiz-adv-x="448" 
d="M212 51q34 0 53 33t19 94v201q0 49 -9 71t-38 37v2h154v-380q0 -51 8 -71.5t33 -35.5v-2h-148v100q-14 -54 -45.5 -82t-76.5 -28q-52 0 -81.5 34t-29.5 96v259q0 49 -9 70.5t-37 37.5v2h153v-363q0 -37 13.5 -56t40.5 -19zM351 707h6q-8 -67 -30 -104t-54 -37
q-13 0 -27 6.5t-39 27.5q-21 18 -31 23t-19 5q-21 0 -36 -16t-26 -51h-7q9 69 31 105t54 36q13 0 26.5 -6.5t38.5 -27.5q21 -17 31.5 -22.5t19.5 -5.5q20 0 34.5 15.5t27.5 51.5z" />
    <glyph glyph-name="Umacron" unicode="&#x16a;" horiz-adv-x="512" 
d="M388 794v-36h-231v36h231zM456 566v-361q0 -97 -52.5 -156t-142.5 -59q-99 0 -152 56.5t-53 161.5v374q0 55 -11 78t-42 38v2h219v-2q-31 -15 -42 -38t-11 -78v-368q0 -87 31.5 -130t95.5 -43q61 0 96 45t35 122v350q0 58 -16.5 90.5t-56.5 49.5v2h172v-2
q-37 -17 -53.5 -48t-16.5 -84z" />
    <glyph glyph-name="umacron" unicode="&#x16b;" horiz-adv-x="448" 
d="M212 51q34 0 53 33t19 94v201q0 49 -9 71t-38 37v2h154v-380q0 -51 8 -71.5t33 -35.5v-2h-148v100q-14 -54 -45.5 -82t-76.5 -28q-52 0 -81.5 34t-29.5 96v259q0 49 -9 70.5t-37 37.5v2h153v-363q0 -37 13.5 -56t40.5 -19zM339 618v-36h-231v36h231z" />
    <glyph glyph-name="Ubreve" unicode="&#x16c;" horiz-adv-x="512" 
d="M384 880h5q-6 -74 -34.5 -110.5t-81.5 -36.5t-82 36.5t-35 110.5h6q6 -35 35.5 -54.5t75.5 -19.5q45 0 75 19.5t36 54.5zM456 566v-361q0 -97 -52.5 -156t-142.5 -59q-99 0 -152 56.5t-53 161.5v374q0 55 -11 78t-42 38v2h219v-2q-31 -15 -42 -38t-11 -78v-368
q0 -87 31.5 -130t95.5 -43q61 0 96 45t35 122v350q0 58 -16.5 90.5t-56.5 49.5v2h172v-2q-37 -17 -53.5 -48t-16.5 -84z" />
    <glyph glyph-name="ubreve" unicode="&#x16d;" horiz-adv-x="448" 
d="M212 51q34 0 53 33t19 94v201q0 49 -9 71t-38 37v2h154v-380q0 -51 8 -71.5t33 -35.5v-2h-148v100q-14 -54 -45.5 -82t-76.5 -28q-52 0 -81.5 34t-29.5 96v259q0 49 -9 70.5t-37 37.5v2h153v-363q0 -37 13.5 -56t40.5 -19zM322 722h6q0 -80 -28.5 -126.5t-76.5 -46.5
t-76.5 46.5t-28.5 126.5h6q5 -46 31.5 -71t67.5 -25t67.5 25t31.5 71z" />
    <glyph glyph-name="Uring" unicode="&#x16e;" horiz-adv-x="512" 
d="M456 566v-361q0 -97 -52.5 -156t-142.5 -59q-99 0 -152 56.5t-53 161.5v374q0 55 -11 78t-42 38v2h219v-2q-31 -15 -42 -38t-11 -78v-368q0 -87 31.5 -130t95.5 -43q61 0 96 45t35 122v350q0 58 -16.5 90.5t-56.5 49.5v2h172v-2q-37 -17 -53.5 -48t-16.5 -84zM186 807
q0 34 25.5 59.5t60.5 25.5t60.5 -25t25.5 -60q0 -34 -25.5 -59t-60.5 -25t-60.5 25t-25.5 59zM210 807q0 -25 18.5 -43.5t43.5 -18.5q26 0 44 18.5t18 43.5q0 26 -18 44t-44 18q-25 0 -43.5 -18t-18.5 -44z" />
    <glyph glyph-name="uring" unicode="&#x16f;" horiz-adv-x="448" 
d="M137 633q0 34 25.5 59t60.5 25t60.5 -25t25.5 -59q0 -35 -25.5 -60t-60.5 -25t-60.5 25.5t-25.5 59.5zM161 633q0 -25 18.5 -43.5t43.5 -18.5q26 0 44 18.5t18 43.5q0 26 -18 44t-44 18q-25 0 -43.5 -18t-18.5 -44zM212 51q34 0 53 33t19 94v201q0 49 -9 71t-38 37v2h154
v-380q0 -51 8 -71.5t33 -35.5v-2h-148v100q-14 -54 -45.5 -82t-76.5 -28q-52 0 -81.5 34t-29.5 96v259q0 49 -9 70.5t-37 37.5v2h153v-363q0 -37 13.5 -56t40.5 -19z" />
    <glyph glyph-name="Uhungarumlaut" unicode="&#x170;" horiz-adv-x="512" 
d="M456 566v-361q0 -97 -52.5 -156t-142.5 -59q-99 0 -152 56.5t-53 161.5v374q0 55 -11 78t-42 38v2h219v-2q-31 -15 -42 -38t-11 -78v-368q0 -87 31.5 -130t95.5 -43q61 0 96 45t35 122v350q0 58 -16.5 90.5t-56.5 49.5v2h172v-2q-37 -17 -53.5 -48t-16.5 -84zM226 885h99
q-15 -48 -45 -84t-82 -68h-3q16 40 23.5 77t7.5 75zM343 885h99q-15 -48 -45 -84t-82 -68h-3q16 40 23.5 77t7.5 75z" />
    <glyph glyph-name="uhungarumlaut" unicode="&#x171;" horiz-adv-x="448" 
d="M212 51q34 0 53 33t19 94v201q0 49 -9 71t-38 37v2h154v-380q0 -51 8 -71.5t33 -35.5v-2h-148v100q-14 -54 -45.5 -82t-76.5 -28q-52 0 -81.5 34t-29.5 96v259q0 49 -9 70.5t-37 37.5v2h153v-363q0 -37 13.5 -56t40.5 -19zM177 727h93q-13 -62 -41.5 -104.5t-80.5 -79.5
h-3q16 31 24 76t8 108zM294 727h93q-13 -63 -41.5 -105.5t-80.5 -78.5h-3q16 31 24 76t8 108z" />
    <glyph glyph-name="Uogonek" unicode="&#x172;" horiz-adv-x="512" 
d="M288 -233q-35 0 -57.5 21.5t-22.5 56.5q0 38 26.5 75t84.5 78q-15 -4 -29 -6t-29 -2q-99 0 -152 56.5t-53 161.5v374q0 55 -11 78t-42 38v2h219v-2q-31 -15 -42 -38t-11 -78v-368q0 -87 31.5 -130t95.5 -43q61 0 96 45t35 122v350q0 58 -16.5 90.5t-56.5 49.5v2h172v-2
q-37 -17 -53.5 -48t-16.5 -84v-361q0 -64 -26 -115t-75 -83q-39 -26 -60.5 -61t-21.5 -72q0 -28 12 -43t35 -15q19 0 33 12t28 40l2 -2q-13 -50 -36.5 -74.5t-58.5 -24.5z" />
    <glyph glyph-name="uogonek" unicode="&#x173;" horiz-adv-x="448" 
d="M341 -132l2 -2q-13 -50 -36.5 -74.5t-58.5 -24.5q-36 0 -58 21.5t-22 56.5q0 39 28 76.5t88 78.5v100q-14 -54 -45.5 -82t-76.5 -28q-52 0 -81.5 34t-29.5 96v259q0 49 -9 70.5t-37 37.5v2h153v-363q0 -37 13.5 -56t40.5 -19q34 0 53 33t19 94v201q0 49 -9 71t-38 37v2
h154v-380q0 -51 8 -71.5t33 -35.5v-2h-131q-33 -31 -50.5 -63.5t-17.5 -63.5q0 -28 12.5 -42.5t34.5 -14.5q19 0 33 12t28 40z" />
    <glyph glyph-name="Wcircumflex" unicode="&#x174;" horiz-adv-x="725" 
d="M483 -10h-4l-114 450l-119 -450h-4l-177 598q-16 57 -28.5 76.5t-37.5 33.5v2h210v-2q-20 -9 -29 -21.5t-9 -31.5q0 -10 2.5 -23.5t9.5 -36.5l101 -357l68 263l-25 97q-13 52 -26 73.5t-40 36.5v2h206v-2q-21 -9 -30 -22t-9 -33q0 -6 1 -13.5t9 -44.5l82 -363l93 344
q4 14 6 27.5t2 24.5q0 29 -13 49t-38 31v2h155v-2q-28 -15 -47.5 -45.5t-35.5 -85.5zM501 728h-7q-38 5 -72 19t-53 33q-20 -19 -55 -33t-72 -19h-6q51 40 81 79t49 87h5q19 -48 49 -87t81 -79z" />
    <glyph glyph-name="wcircumflex" unicode="&#x175;" horiz-adv-x="553" 
d="M419 539h-6q-34 14 -66.5 37t-50.5 45q-19 -22 -52 -45t-66 -37h-6q43 48 73.5 100t48.5 106h4q17 -55 47.5 -107t73.5 -99zM378 -10h-2l-92 308l-100 -308h-2l-131 391q-15 46 -26 65t-35 41v2h183v-2q-16 -8 -23 -19t-7 -28q0 -10 2.5 -22.5t9.5 -34.5l64 -208l51 170
l-11 36q-16 48 -26.5 66.5t-33.5 39.5v2h181v-2q-17 -9 -24.5 -21t-7.5 -30q0 -10 2.5 -23t7.5 -30l56 -202l57 193q4 13 6 25.5t2 22.5q0 24 -11 40t-33 25v2h128v-2q-24 -20 -36 -40.5t-27 -69.5z" />
    <glyph glyph-name="Ycircumflex" unicode="&#x176;" horiz-adv-x="525" 
d="M189 597l113 -266l112 250q7 15 10.5 28t3.5 25q0 22 -12 38t-35 26v2h145v-2q-24 -16 -39.5 -36t-34.5 -62l-137 -308v-181q0 -48 12 -70t48 -39v-2h-229v2q36 17 48 39t12 70v181l-137 308q-20 44 -34 63t-36 35v2h211v-2q-19 -12 -26.5 -23.5t-7.5 -26.5
q0 -10 3.5 -23t9.5 -28zM420 728h-7q-38 5 -72 19t-53 33q-20 -19 -55 -33t-72 -19h-6q51 40 81 79t49 87h5q19 -48 49 -87t81 -79z" />
    <glyph glyph-name="ycircumflex" unicode="&#x177;" horiz-adv-x="398" 
d="M106 -173q21 0 35 17.5t28 61.5l23 73l-141 402q-16 47 -26.5 66t-34.5 40v2h191v-2q-17 -9 -25.5 -21t-8.5 -28q0 -10 3 -23t9 -32l81 -257l75 248q4 13 6.5 26t2.5 24q0 24 -11 39t-34 24v2h129v-2q-25 -20 -37 -41.5t-26 -68.5l-153 -486q-23 -70 -49.5 -97.5
t-65.5 -27.5q-33 0 -56 21.5t-23 55.5q0 32 21 52.5t49 20.5q9 0 16.5 -2t12.5 -7q-11 -5 -18 -16.5t-7 -26.5q0 -17 9.5 -27t24.5 -10zM344 539h-6q-34 14 -66.5 37t-50.5 45q-19 -22 -52 -45t-66 -37h-6q43 48 73.5 100t48.5 106h4q17 -55 47.5 -107t73.5 -99z" />
    <glyph glyph-name="Ydieresis" unicode="&#x178;" horiz-adv-x="525" 
d="M189 597l113 -266l112 250q7 15 10.5 28t3.5 25q0 22 -12 38t-35 26v2h145v-2q-24 -16 -39.5 -36t-34.5 -62l-137 -308v-181q0 -48 12 -70t48 -39v-2h-229v2q36 17 48 39t12 70v181l-137 308q-20 44 -34 63t-36 35v2h211v-2q-19 -12 -26.5 -23.5t-7.5 -26.5
q0 -10 3.5 -23t9.5 -28zM277 799q0 -25 -17 -42.5t-42 -17.5q-24 0 -42 18t-18 42t18 42.5t42 18.5q25 0 42 -18t17 -43zM418 799q0 -24 -18 -42t-42 -18q-25 0 -42.5 17.5t-17.5 42.5t17.5 43t42.5 18q24 0 42 -18.5t18 -42.5z" />
    <glyph glyph-name="Zacute" unicode="&#x179;" horiz-adv-x="483" 
d="M457 212l-21 -212h-424v2l311 676h-88q-66 0 -109.5 -34t-93.5 -138h-2l20 202q7 -4 19 -6t34 -2h351v-2l-309 -676h91q78 0 123 37t96 153h2zM230 879h119q-15 -49 -55.5 -86.5t-101.5 -59.5h-3q19 35 28.5 67.5t12.5 78.5z" />
    <glyph glyph-name="zacute" unicode="&#x17a;" horiz-adv-x="381" 
d="M171 727h102q-12 -56 -43 -100t-88 -84h-3q16 31 24 76t8 108zM14 2l223 468h-50q-48 0 -83 -33t-74 -116h-2l13 175q14 -4 28 -5.5t32 -1.5h256v-2l-223 -468h49q56 0 95 38.5t77 129.5h2l-19 -187h-324v2z" />
    <glyph glyph-name="Zdotaccent" unicode="&#x17b;" horiz-adv-x="483" 
d="M257 743q-28 0 -47.5 20t-19.5 48t19.5 48t47.5 20t48.5 -20t20.5 -48t-20.5 -48t-48.5 -20zM457 212l-21 -212h-424v2l311 676h-88q-66 0 -109.5 -34t-93.5 -138h-2l20 202q7 -4 19 -6t34 -2h351v-2l-309 -676h91q78 0 123 37t96 153h2z" />
    <glyph glyph-name="zdotaccent" unicode="&#x17c;" horiz-adv-x="381" 
d="M14 2l223 468h-50q-48 0 -83 -33t-74 -116h-2l13 175q14 -4 28 -5.5t32 -1.5h256v-2l-223 -468h49q56 0 95 38.5t77 129.5h2l-19 -187h-324v2zM198 576q-28 0 -47.5 20t-19.5 48t19.5 47.5t47.5 19.5q29 0 49 -19.5t20 -47.5t-20.5 -48t-48.5 -20z" />
    <glyph glyph-name="Zcaron" unicode="&#x17d;" horiz-adv-x="483" 
d="M125 894h6q38 -5 72.5 -18.5t54.5 -32.5q19 19 53 32.5t72 18.5h7q-51 -40 -81 -79t-49 -87h-5q-19 48 -49 87t-81 79zM457 212l-21 -212h-424v2l311 676h-88q-66 0 -109.5 -34t-93.5 -138h-2l20 202q7 -4 19 -6t34 -2h351v-2l-309 -676h91q78 0 123 37t96 153h2z" />
    <glyph glyph-name="zcaron" unicode="&#x17e;" horiz-adv-x="381" 
d="M76 747h6q32 -13 65 -35.5t53 -45.5q19 23 52 45.5t65 35.5h6q-43 -47 -73.5 -99t-47.5 -107h-4q-18 54 -48.5 106t-73.5 100zM14 2l223 468h-50q-48 0 -83 -33t-74 -116h-2l13 175q14 -4 28 -5.5t32 -1.5h256v-2l-223 -468h49q56 0 95 38.5t77 129.5h2l-19 -187h-324v2z
" />
    <glyph glyph-name="florin" unicode="&#x192;" horiz-adv-x="444" 
d="M38 -189q-54 0 -86 23t-32 62q0 29 17.5 46t47.5 18q15 0 30 -5t25 -14q-20 -1 -31 -17.5t-11 -45.5q0 -27 9 -39t29 -12q25 0 40 27t22 87l43 401h-84l3 19h83l17 159q10 91 54 140.5t115 49.5q55 0 87.5 -23.5t32.5 -64.5q0 -29 -17.5 -46t-47.5 -17q-16 0 -31 5.5
t-23 13.5q20 0 31 16.5t11 45.5q0 26 -10 40t-30 14q-26 0 -41 -27.5t-21 -85.5l-24 -220h100l-3 -19h-99l-37 -341q-10 -91 -54 -140.5t-115 -49.5z" />
    <glyph glyph-name="Aringacute" unicode="&#x1fa;" horiz-adv-x="541" 
d="M245 1022h120q-15 -49 -55.5 -86.5t-101.5 -59.5h-4q20 36 29.5 69t11.5 77zM186 795q0 31 26 54t61 23q34 0 60 -23t26 -54t-25.5 -53.5t-60.5 -22.5q-36 0 -61.5 22.5t-25.5 53.5zM211 795q0 -23 18 -39t44 -16t44 16t18 39t-18 39t-44 16t-44 -16t-18 -39zM308 255
l-79 248l-79 -248h158zM102 82q0 -29 12.5 -49t37.5 -31v-2h-153v2q27 15 45 43t37 87l191 578h3l196 -598q19 -58 32 -76.5t38 -33.5v-2h-216v2q20 9 29.5 22.5t9.5 32.5q0 11 -2.5 25t-8.5 33l-36 113h-176l-29 -91q-5 -16 -7.5 -29.5t-2.5 -25.5z" />
    <glyph glyph-name="aringacute" unicode="&#x1fb;" horiz-adv-x="407" 
d="M179 825h119q-15 -49 -55.5 -86.5t-101.5 -59.5h-3q19 35 28.5 67.5t12.5 78.5zM120 598q0 31 25.5 53.5t60.5 22.5t60.5 -22.5t25.5 -53.5q0 -32 -25.5 -54.5t-60.5 -22.5t-60.5 23t-25.5 54zM268 598q0 23 -18 39t-44 16t-44 -16t-18 -39t18 -39t44 -16t44 16t18 39z
M392 36q8 0 14.5 2.5t10.5 6.5v-2q-10 -24 -32 -37.5t-51 -13.5q-36 0 -58.5 21.5t-26.5 61.5l-1 19q-8 -46 -38.5 -73.5t-75.5 -27.5q-50 0 -80.5 31.5t-30.5 83.5q0 56 39 93t142 67l43 12v123q0 36 -16.5 56.5t-44.5 20.5q-25 0 -40.5 -18.5t-15.5 -48.5q0 -29 11 -44.5
t32 -15.5q3 0 6.5 1t6.5 2q-6 -22 -24 -34.5t-42 -12.5q-34 0 -54 20t-20 56q0 50 42.5 82t106.5 32q82 0 121 -35.5t39 -109.5v-59.5t-1 -93.5q-1 -49 -1 -71.5v-39.5q0 -26 10 -40t29 -14zM246 154l1 107l-27 -9q-50 -17 -72 -46t-22 -75q0 -37 14.5 -57.5t40.5 -20.5
q30 0 47 26.5t18 74.5z" />
    <glyph glyph-name="AEacute" unicode="&#x1fc;" horiz-adv-x="740" 
d="M468 879h119q-15 -49 -55.5 -86.5t-101.5 -59.5h-3q19 35 28.5 67.5t12.5 78.5zM343 268v335l-152 -335h152zM112 66q0 -22 11.5 -38t33.5 -26v-2h-158v2q25 14 48.5 44.5t49.5 85.5l224 483q4 10 5.5 16t1.5 11q0 15 -11.5 28t-38.5 28v2h346q22 0 34 2t19 6l24 -178h-2
q-43 84 -90.5 115.5t-122.5 31.5h-30v-308h15q61 0 88 21.5t52 90.5h2v-232h-2q-22 61 -46.5 80t-93.5 19h-15v-325h36q80 0 131 37.5t91 127.5h2l-22 -188h-404v2q31 15 42 38t11 78v124h-163l-48 -105q-10 -22 -15 -39.5t-5 -31.5z" />
    <glyph glyph-name="aeacute" unicode="&#x1fd;" horiz-adv-x="601" 
d="M300 727h102q-12 -56 -43 -100t-88 -84h-3q16 31 24 76t8 108zM574 163l7 -1q-11 -84 -51.5 -128t-107.5 -44q-56 0 -100.5 33t-63.5 90q-4 -51 -39.5 -85.5t-82.5 -34.5q-51 0 -82 31t-31 84q0 56 39 93t142 67l43 12v122q0 36 -16.5 57t-45.5 21q-25 0 -40 -18.5
t-15 -48.5q0 -29 11 -44.5t32 -15.5q3 0 6.5 1t6.5 2q-6 -22 -24 -34.5t-42 -12.5q-34 0 -54 20t-20 56q0 50 42.5 82t106.5 32q42 0 70.5 -16.5t43.5 -49.5q25 33 53 49t60 16q77 0 119 -61.5t42 -172.5h-236q0 -104 30 -160.5t86 -56.5q40 0 68 29.5t43 86.5zM422 479
q-31 0 -51.5 -54t-22.5 -139h133q0 111 -14 152t-45 41zM246 154l1 105l-27 -8q-50 -17 -72 -45.5t-22 -74.5q0 -37 14.5 -57.5t40.5 -20.5q30 0 47 26.5t18 74.5z" />
    <glyph glyph-name="Oslashacute" unicode="&#x1fe;" horiz-adv-x="540" 
d="M516 350q0 -154 -71 -257t-175 -103q-44 0 -84 20t-73 59l-53 -87l-20 14l57 93q-35 50 -54 117.5t-19 143.5q0 155 70.5 257.5t175.5 102.5q45 0 85.5 -21t73.5 -61l51 83l19 -14l-55 -89q35 -50 53.5 -116t18.5 -142zM270 12q58 0 87 85t29 253q0 47 -2 84t-6 67
l-210 -344q13 -73 38.5 -109t63.5 -36zM154 350q0 -48 2 -86.5t6 -69.5l211 343q-13 75 -39 113t-64 38q-58 0 -87 -84t-29 -254zM243 879h119q-15 -49 -55.5 -86.5t-101.5 -59.5h-3q19 35 28.5 67.5t12.5 78.5z" />
    <glyph glyph-name="oslashacute" unicode="&#x1ff;" horiz-adv-x="418" 
d="M399 245q0 -111 -54 -183t-136 -72q-33 0 -62.5 12.5t-54.5 36.5l-38 -60l-19 13l41 65q-28 36 -43 84t-15 104q0 110 54.5 182t136.5 72q33 0 62.5 -12.5t52.5 -35.5l36 57l19 -12l-39 -62q29 -35 44 -83.5t15 -105.5zM209 480q-38 0 -57.5 -60t-19.5 -175q0 -28 1 -51
t3 -42l140 223q-8 52 -25 78.5t-42 26.5zM209 9q38 0 57 60t19 176q0 29 -1 52t-3 43l-140 -223q8 -53 25.5 -80.5t42.5 -27.5zM181 727h102q-12 -56 -43 -100t-88 -84h-3q16 31 24 76t8 108z" />
    <glyph glyph-name="Scommaaccent" unicode="&#x218;" horiz-adv-x="436" 
d="M224 -52q33 0 52.5 -20t19.5 -55q0 -46 -34.5 -75.5t-89.5 -31.5v14q38 3 60 20.5t26 48.5q-7 -7 -17.5 -10.5t-23.5 -3.5q-24 0 -39.5 15.5t-15.5 38.5q0 26 17.5 42.5t44.5 16.5zM222 688q-44 0 -73.5 -34t-29.5 -85q0 -44 25 -78.5t103 -80.5q57 -34 79.5 -51
t38.5 -35q25 -28 37.5 -61.5t12.5 -73.5q0 -88 -57.5 -143.5t-141.5 -55.5q-20 0 -39.5 3.5t-50.5 14.5q-20 7 -28.5 9t-15.5 2q-14 0 -24.5 -6t-24.5 -23l-13 245h2q35 -103 86.5 -163t105.5 -60q50 0 80 34t30 91q0 31 -11.5 57.5t-35.5 50.5q-13 13 -31.5 27t-66.5 43
q-92 56 -122 100.5t-30 102.5q0 84 55 138t138 54q18 0 35 -3t43 -13q16 -6 23.5 -7.5t14.5 -1.5q13 0 23 5.5t19 19.5l10 -219h-2q-40 117 -76.5 157t-87.5 40z" />
    <glyph glyph-name="scommaaccent" unicode="&#x219;" horiz-adv-x="350" 
d="M169 -52q33 0 52.5 -20t19.5 -55q0 -46 -34.5 -75.5t-89.5 -31.5v14q38 3 60 20.5t26 48.5q-7 -7 -17.5 -10.5t-23.5 -3.5q-24 0 -39.5 15.5t-15.5 38.5q0 26 17.5 42.5t44.5 16.5zM166 479q-28 0 -45 -19t-17 -50q0 -35 19.5 -57t70.5 -45q70 -33 101 -71.5t31 -93.5
q0 -68 -42.5 -110.5t-106.5 -42.5q-16 0 -31.5 3t-38.5 12q-14 5 -20.5 6.5t-12.5 1.5q-11 0 -22 -6.5t-18 -16.5l-9 191h3q27 -79 67 -125.5t81 -46.5q32 0 51 22t19 58q0 34 -16.5 56t-74.5 52q-72 35 -99.5 70t-27.5 88q0 62 39.5 103t96.5 41q15 0 28.5 -3t34.5 -12
q14 -6 21 -7.5t13 -1.5q10 0 18.5 5t21.5 19v-166h-3q-24 69 -58.5 107.5t-73.5 38.5z" />
    <glyph glyph-name="uni021A" unicode="&#x21a;" horiz-adv-x="548" 
d="M269 -52q33 0 52.5 -20t19.5 -55q0 -46 -34.5 -75.5t-89.5 -31.5v14q38 3 60 20.5t26 48.5q-7 -7 -17.5 -10.5t-23.5 -3.5q-24 0 -39.5 15.5t-15.5 38.5q0 26 17.5 42.5t44.5 16.5zM82 700h384q22 0 34 2t19 6l15 -224h-2q-22 56 -36 85.5t-28 48.5q-23 33 -53 47.5
t-74 14.5h-11v-569q0 -48 12.5 -70t49.5 -39v-2h-235v2q37 17 49 39.5t12 69.5v569h-10q-44 0 -74 -14.5t-53 -46.5q-14 -20 -28.5 -49t-36.5 -86h-2l15 224q7 -4 19 -6t34 -2z" />
    <glyph glyph-name="uni021B" unicode="&#x21b;" horiz-adv-x="286" 
d="M148 -52q33 0 52.5 -20t19.5 -55q0 -46 -34.5 -75.5t-89.5 -31.5v14q38 3 60 20.5t26 48.5q-7 -7 -17.5 -10.5t-23.5 -3.5q-24 0 -39.5 15.5t-15.5 38.5q0 26 17.5 42.5t44.5 16.5zM199 49q27 0 43.5 27.5t21.5 81.5h9q-4 -85 -33 -126.5t-84 -41.5q-54 0 -81 35.5
t-27 107.5v330h-46v8q55 15 92.5 64t51.5 125h9v-171h106l-5 -26h-101v-330q0 -45 10.5 -64.5t33.5 -19.5z" />
    <glyph glyph-name="uni0237" unicode="&#x237;" horiz-adv-x="213" 
d="M163 489v-541q0 -87 -41 -134t-114 -47q-57 0 -90 24.5t-33 67.5q0 31 20.5 51.5t50.5 20.5q17 0 32 -8t22 -21q-22 -6 -34 -22t-12 -40q0 -25 12 -40.5t33 -15.5q24 0 35.5 26t11.5 90v479q0 49 -9 70.5t-37 37.5v2h153z" />
    <glyph glyph-name="circumflex" unicode="&#x2c6;" 
d="M374 539h-6q-34 14 -66.5 37t-50.5 45q-19 -22 -52 -45t-66 -37h-6q43 48 73.5 100t48.5 106h4q17 -55 47.5 -107t73.5 -99z" />
    <glyph glyph-name="caron" unicode="&#x2c7;" 
d="M127 747h6q32 -13 65 -35.5t53 -45.5q19 23 52 45.5t65 35.5h6q-43 -47 -73.5 -99t-47.5 -107h-4q-18 54 -48.5 106t-73.5 100z" />
    <glyph glyph-name="breve" unicode="&#x2d8;" 
d="M349 722h6q0 -80 -28.5 -126.5t-76.5 -46.5t-76.5 46.5t-28.5 126.5h6q5 -46 31.5 -71t67.5 -25t67.5 25t31.5 71z" />
    <glyph glyph-name="dotaccent" unicode="&#x2d9;" 
d="M249 576q-28 0 -47.5 20t-19.5 48t19.5 47.5t47.5 19.5q29 0 49 -19.5t20 -47.5t-20.5 -48t-48.5 -20z" />
    <glyph glyph-name="ring" unicode="&#x2da;" 
d="M164 633q0 34 25.5 59t60.5 25t60.5 -25t25.5 -59q0 -35 -25.5 -60t-60.5 -25t-60.5 25.5t-25.5 59.5zM188 633q0 -25 18.5 -43.5t43.5 -18.5q26 0 44 18.5t18 43.5q0 26 -18 44t-44 18q-25 0 -43.5 -18t-18.5 -44z" />
    <glyph glyph-name="ogonek" unicode="&#x2db;" 
d="M251 -233q-36 0 -58 21.5t-22 56.5q0 42 33 83t111 91l4 -6q-41 -34 -62 -70t-21 -70q0 -28 12.5 -42.5t34.5 -14.5q19 0 33 12t28 40l2 -2q-13 -50 -36.5 -74.5t-58.5 -24.5z" />
    <glyph glyph-name="tilde" unicode="&#x2dc;" 
d="M378 707h6q-8 -67 -30 -104t-54 -37q-13 0 -27 6.5t-39 27.5q-21 18 -31 23t-19 5q-21 0 -36 -16t-26 -51h-7q9 69 31 105t54 36q13 0 26.5 -6.5t38.5 -27.5q21 -17 31.5 -22.5t19.5 -5.5q20 0 34.5 15.5t27.5 51.5z" />
    <glyph glyph-name="hungarumlaut" unicode="&#x2dd;" 
d="M161 727h93q-13 -62 -41.5 -104.5t-80.5 -79.5h-3q16 31 24 76t8 108zM278 727h93q-13 -63 -41.5 -105.5t-80.5 -78.5h-3q16 31 24 76t8 108z" />
    <glyph glyph-name="Wgrave" unicode="&#x1e80;" horiz-adv-x="725" 
d="M280 879h119q3 -46 12.5 -78.5t28.5 -67.5h-3q-61 22 -101.5 59.5t-55.5 86.5zM483 -10h-4l-114 450l-119 -450h-4l-177 598q-16 57 -28.5 76.5t-37.5 33.5v2h210v-2q-20 -9 -29 -21.5t-9 -31.5q0 -10 2.5 -23.5t9.5 -36.5l101 -357l68 263l-25 97q-13 52 -26 73.5
t-40 36.5v2h206v-2q-21 -9 -30 -22t-9 -33q0 -6 1 -13.5t9 -44.5l82 -363l93 344q4 14 6 27.5t2 24.5q0 29 -13 49t-38 31v2h155v-2q-28 -15 -47.5 -45.5t-35.5 -85.5z" />
    <glyph glyph-name="wgrave" unicode="&#x1e81;" horiz-adv-x="553" 
d="M378 -10h-2l-92 308l-100 -308h-2l-131 391q-15 46 -26 65t-35 41v2h183v-2q-16 -8 -23 -19t-7 -28q0 -10 2.5 -22.5t9.5 -34.5l64 -208l51 170l-11 36q-16 48 -26.5 66.5t-33.5 39.5v2h181v-2q-17 -9 -24.5 -21t-7.5 -30q0 -10 2.5 -23t7.5 -30l56 -202l57 193
q4 13 6 25.5t2 22.5q0 24 -11 40t-33 25v2h128v-2q-24 -20 -36 -40.5t-27 -69.5zM219 727h102q0 -63 8 -108t24 -76h-4q-56 40 -87 83.5t-43 100.5z" />
    <glyph glyph-name="Wacute" unicode="&#x1e82;" horiz-adv-x="725" 
d="M341 879h119q-15 -49 -55.5 -86.5t-101.5 -59.5h-3q19 35 28.5 67.5t12.5 78.5zM483 -10h-4l-114 450l-119 -450h-4l-177 598q-16 57 -28.5 76.5t-37.5 33.5v2h210v-2q-20 -9 -29 -21.5t-9 -31.5q0 -10 2.5 -23.5t9.5 -36.5l101 -357l68 263l-25 97q-13 52 -26 73.5
t-40 36.5v2h206v-2q-21 -9 -30 -22t-9 -33q0 -6 1 -13.5t9 -44.5l82 -363l93 344q4 14 6 27.5t2 24.5q0 29 -13 49t-38 31v2h155v-2q-28 -15 -47.5 -45.5t-35.5 -85.5z" />
    <glyph glyph-name="wacute" unicode="&#x1e83;" horiz-adv-x="553" 
d="M268 727h102q-12 -56 -43 -100t-88 -84h-3q16 31 24 76t8 108zM378 -10h-2l-92 308l-100 -308h-2l-131 391q-15 46 -26 65t-35 41v2h183v-2q-16 -8 -23 -19t-7 -28q0 -10 2.5 -22.5t9.5 -34.5l64 -208l51 170l-11 36q-16 48 -26.5 66.5t-33.5 39.5v2h181v-2
q-17 -9 -24.5 -21t-7.5 -30q0 -10 2.5 -23t7.5 -30l56 -202l57 193q4 13 6 25.5t2 22.5q0 24 -11 40t-33 25v2h128v-2q-24 -20 -36 -40.5t-27 -69.5z" />
    <glyph glyph-name="Wdieresis" unicode="&#x1e84;" horiz-adv-x="725" 
d="M357 799q0 -25 -17 -42.5t-42 -17.5q-24 0 -42 18t-18 42t18 42.5t42 18.5q25 0 42 -18t17 -43zM498 799q0 -24 -18 -42t-42 -18q-25 0 -42.5 17.5t-17.5 42.5t17.5 43t42.5 18q24 0 42 -18.5t18 -42.5zM483 -10h-4l-114 450l-119 -450h-4l-177 598q-16 57 -28.5 76.5
t-37.5 33.5v2h210v-2q-20 -9 -29 -21.5t-9 -31.5q0 -10 2.5 -23.5t9.5 -36.5l101 -357l68 263l-25 97q-13 52 -26 73.5t-40 36.5v2h206v-2q-21 -9 -30 -22t-9 -33q0 -6 1 -13.5t9 -44.5l82 -363l93 344q4 14 6 27.5t2 24.5q0 29 -13 49t-38 31v2h155v-2q-28 -15 -47.5 -45.5
t-35.5 -85.5z" />
    <glyph glyph-name="wdieresis" unicode="&#x1e85;" horiz-adv-x="553" 
d="M285 633q0 -25 -17 -42.5t-42 -17.5q-24 0 -42 18t-18 42t18 42.5t42 18.5q25 0 42 -18t17 -43zM426 633q0 -24 -18 -42t-42 -18q-25 0 -42.5 17.5t-17.5 42.5t17.5 43t42.5 18q24 0 42 -18.5t18 -42.5zM378 -10h-2l-92 308l-100 -308h-2l-131 391q-15 46 -26 65t-35 41
v2h183v-2q-16 -8 -23 -19t-7 -28q0 -10 2.5 -22.5t9.5 -34.5l64 -208l51 170l-11 36q-16 48 -26.5 66.5t-33.5 39.5v2h181v-2q-17 -9 -24.5 -21t-7.5 -30q0 -10 2.5 -23t7.5 -30l56 -202l57 193q4 13 6 25.5t2 22.5q0 24 -11 40t-33 25v2h128v-2q-24 -20 -36 -40.5
t-27 -69.5z" />
    <glyph glyph-name="Ygrave" unicode="&#x1ef2;" horiz-adv-x="525" 
d="M189 597l113 -266l112 250q7 15 10.5 28t3.5 25q0 22 -12 38t-35 26v2h145v-2q-24 -16 -39.5 -36t-34.5 -62l-137 -308v-181q0 -48 12 -70t48 -39v-2h-229v2q36 17 48 39t12 70v181l-137 308q-20 44 -34 63t-36 35v2h211v-2q-19 -12 -26.5 -23.5t-7.5 -26.5
q0 -10 3.5 -23t9.5 -28zM199 879h119q3 -46 12.5 -78.5t28.5 -67.5h-3q-61 22 -101.5 59.5t-55.5 86.5z" />
    <glyph glyph-name="ygrave" unicode="&#x1ef3;" horiz-adv-x="398" 
d="M106 -173q21 0 35 17.5t28 61.5l23 73l-141 402q-16 47 -26.5 66t-34.5 40v2h191v-2q-17 -9 -25.5 -21t-8.5 -28q0 -10 3 -23t9 -32l81 -257l75 248q4 13 6.5 26t2.5 24q0 24 -11 39t-34 24v2h129v-2q-25 -20 -37 -41.5t-26 -68.5l-153 -486q-23 -70 -49.5 -97.5
t-65.5 -27.5q-33 0 -56 21.5t-23 55.5q0 32 21 52.5t49 20.5q9 0 16.5 -2t12.5 -7q-11 -5 -18 -16.5t-7 -26.5q0 -17 9.5 -27t24.5 -10zM144 727h102q0 -63 8 -108t24 -76h-4q-56 40 -87 83.5t-43 100.5z" />
    <glyph glyph-name="endash" unicode="&#x2013;" horiz-adv-x="374" 
d="M345 258h-315v34h315v-34z" />
    <glyph glyph-name="emdash" unicode="&#x2014;" horiz-adv-x="570" 
d="M540 258h-510v34h510v-34z" />
    <glyph glyph-name="quoteleft" unicode="&#x2018;" horiz-adv-x="191" 
d="M62 587q6 11 19 17.5t29 6.5q25 0 42 -17t17 -42q0 -30 -19.5 -48.5t-50.5 -18.5q-36 0 -58.5 26t-22.5 67q0 64 43.5 104t112.5 41v-13q-57 -7 -87.5 -41t-24.5 -82z" />
    <glyph glyph-name="quoteright" unicode="&#x2019;" horiz-adv-x="179" 
d="M129 612q-6 -11 -19 -17.5t-29 -6.5q-25 0 -42 17t-17 42q0 30 19.5 48.5t50.5 18.5q36 0 58.5 -26t22.5 -67q0 -64 -43.5 -104t-112.5 -41v13q57 7 87.5 41t24.5 82z" />
    <glyph glyph-name="quotesinglbase" unicode="&#x201a;" horiz-adv-x="191" 
d="M129 14q-6 -11 -19 -17.5t-29 -6.5q-25 0 -42 17t-17 42q0 30 19.5 48.5t50.5 18.5q36 0 58.5 -26t22.5 -67q0 -64 -43.5 -104t-112.5 -41v13q57 7 87.5 41t24.5 82z" />
    <glyph glyph-name="quotedblleft" unicode="&#x201c;" horiz-adv-x="370" 
d="M62 587q6 11 19 17.5t29 6.5q25 0 42 -17t17 -42q0 -30 -19.5 -48.5t-50.5 -18.5q-36 0 -58.5 26t-22.5 67q0 64 43.5 104t112.5 41v-13q-57 -7 -87.5 -41t-24.5 -82zM241 587q6 11 19 17.5t29 6.5q25 0 42 -17t17 -42q0 -30 -19.5 -48.5t-50.5 -18.5q-36 0 -58.5 26
t-22.5 67q0 64 43.5 104t112.5 41v-13q-57 -7 -87.5 -41t-24.5 -82z" />
    <glyph glyph-name="quotedblright" unicode="&#x201d;" horiz-adv-x="370" 
d="M129 612q-6 -11 -19 -17.5t-29 -6.5q-25 0 -42 17t-17 42q0 30 19.5 48.5t50.5 18.5q36 0 58.5 -26t22.5 -67q0 -64 -43.5 -104t-112.5 -41v13q57 7 87.5 41t24.5 82zM308 612q-6 -11 -19 -17.5t-29 -6.5q-25 0 -42 17t-17 42q0 30 19.5 48.5t50.5 18.5q36 0 58.5 -26
t22.5 -67q0 -64 -43.5 -104t-112.5 -41v13q57 7 87.5 41t24.5 82z" />
    <glyph glyph-name="quotedblbase" unicode="&#x201e;" horiz-adv-x="370" 
d="M129 14q-6 -11 -19 -17.5t-29 -6.5q-25 0 -42 17t-17 42q0 30 19.5 48.5t50.5 18.5q36 0 58.5 -26t22.5 -67q0 -64 -43.5 -104t-112.5 -41v13q57 7 87.5 41t24.5 82zM308 14q-6 -11 -19 -17.5t-29 -6.5q-25 0 -42 17t-17 42q0 30 19.5 48.5t50.5 18.5q36 0 58.5 -26
t22.5 -67q0 -64 -43.5 -104t-112.5 -41v13q57 7 87.5 41t24.5 82z" />
    <glyph glyph-name="dagger" unicode="&#x2020;" horiz-adv-x="329" 
d="M230 590q-9 -1 -15 -9t-9 -24q-19 -150 -28.5 -235t-10.5 -104h-5q0 19 -10 104t-29 235q-3 16 -9 24t-15 9q-5 -25 -16 -37.5t-28 -12.5q-15 0 -25.5 10t-10.5 26t8.5 28t22.5 16q1 -12 6 -17.5t14 -5.5q3 0 6 0.5t9 3.5q6 2 9.5 3t7.5 1q16 0 33 -11t25 -26
q-4 45 -15 82t-30 69q11 16 23.5 24t26.5 8q13 0 25.5 -8.5t23.5 -23.5q-20 -32 -31 -69t-14 -82q8 15 25 26t33 11q4 0 7.5 -1t9.5 -3q6 -3 9 -3.5t6 -0.5q9 0 14 5.5t6 17.5q13 -4 22 -16.5t9 -27.5q0 -16 -10.5 -26t-26.5 -10q-17 0 -28 13t-15 37z" />
    <glyph glyph-name="daggerdbl" unicode="&#x2021;" horiz-adv-x="354" 
d="M250 635q-17 -2 -41 -54t-28 -106h-9q-3 54 -27 106t-41 54q-6 -25 -18 -37t-31 -12q-16 0 -26 10.5t-10 28.5q0 15 10 27t25 16q2 -12 7.5 -17.5t17.5 -5.5q4 0 7.5 0.5t10.5 3.5q8 2 12.5 3t8.5 1q14 0 28 -9t23 -24q-2 35 -13 63.5t-32 55.5q8 15 22 24t31 9
q16 0 30 -9t23 -24q-20 -27 -31 -55.5t-15 -63.5q8 15 22.5 24t29.5 9q4 0 8.5 -1t12.5 -3q7 -3 11 -3.5t8 -0.5q11 0 16.5 5.5t6.5 17.5q16 -4 26.5 -16t10.5 -27q0 -18 -10.5 -28.5t-27.5 -10.5q-18 0 -29.5 11.5t-18.5 37.5zM172 453h9q4 -54 28 -105.5t41 -54.5
q7 26 18 38t30 12q17 0 27.5 -10.5t10.5 -28.5q0 -15 -10.5 -27.5t-26.5 -15.5q-1 12 -6.5 17.5t-16.5 5.5q-4 0 -8 -0.5t-11 -3.5q-8 -2 -12.5 -3t-8.5 -1q-15 0 -29.5 9t-22.5 23q4 -35 14.5 -63t31.5 -55q-9 -16 -23 -25t-30 -9q-17 0 -31 9t-22 25q22 28 32.5 56
t12.5 62q-8 -14 -22 -23t-29 -9q-4 0 -8.5 1t-12.5 3q-7 3 -10.5 3.5t-7.5 0.5q-11 0 -16.5 -5.5t-8.5 -17.5q-15 3 -25 15t-10 28q0 18 10 28.5t26 10.5q19 0 31 -12.5t18 -37.5q17 3 41 54.5t27 105.5z" />
    <glyph glyph-name="bullet" unicode="&#x2022;" horiz-adv-x="312" 
d="M156 148q-51 0 -87.5 36.5t-36.5 87.5t36.5 87.5t87.5 36.5t88 -36.5t37 -87.5t-37 -87.5t-88 -36.5z" />
    <glyph glyph-name="ellipsis" unicode="&#x2026;" horiz-adv-x="619" 
d="M495 138q30 0 51 -21t21 -52q0 -30 -21 -51t-51 -21t-51 21t-21 51q0 31 21 52t51 21zM299 138q30 0 51 -21t21 -52q0 -30 -21 -51t-51 -21t-51 21t-21 51q0 31 21 52t51 21zM103 138q30 0 51 -21t21 -52q0 -30 -21 -51t-51 -21t-51 21t-21 51q0 31 21 52t51 21z" />
    <glyph glyph-name="perthousand" unicode="&#x2030;" horiz-adv-x="784" 
d="M447 710l-355 -710h-38l351 671q-25 -22 -50 -33t-50 -11q-14 0 -28.5 2.5t-29.5 7.5q8 -17 12.5 -36t4.5 -38q0 -61 -35.5 -104t-86.5 -43t-86.5 43t-35.5 104q0 60 36 103.5t86 43.5q21 0 38.5 -6t45.5 -26q27 -19 44 -25t36 -6q30 0 55.5 12.5t74.5 59.5zM91 563
q0 -63 13 -96.5t38 -33.5t37.5 33t12.5 97q0 63 -13 96.5t-37 33.5q-25 0 -38 -34t-13 -96zM642 289q51 0 86.5 -43t35.5 -104q0 -60 -36 -103.5t-86 -43.5t-86 43.5t-36 103.5q0 61 35.5 104t86.5 43zM492 142q0 -60 -36 -103.5t-86 -43.5t-86 43.5t-36 103.5
q0 61 35.5 104t86.5 43t86.5 -43t35.5 -104zM591 142q0 -62 13 -96t38 -34q24 0 37 33.5t13 96.5q0 64 -12.5 97t-37.5 33t-38 -33.5t-13 -96.5zM319 142q0 -62 13 -96t38 -34q24 0 37 33.5t13 96.5q0 64 -12.5 97t-37.5 33t-38 -33.5t-13 -96.5z" />
    <glyph glyph-name="guilsinglleft" unicode="&#x2039;" horiz-adv-x="216" 
d="M15 243v2q55 35 102 83t78 102h6q-15 -59 -34.5 -105.5t-43.5 -80.5q24 -34 43.5 -80.5t34.5 -105.5h-6q-31 54 -78 102t-102 83z" />
    <glyph glyph-name="guilsinglright" unicode="&#x203a;" horiz-adv-x="216" 
d="M201 245v-2q-55 -35 -102 -83t-77 -102h-7q15 59 35 105.5t44 80.5q-24 34 -44 80.5t-35 105.5h7q30 -54 77 -102t102 -83z" />
    <glyph glyph-name="fraction" unicode="&#x2044;" horiz-adv-x="345" 
d="M31 -123h-31l295 872h30z" />
    <glyph glyph-name="Euro" unicode="&#x20ac;" horiz-adv-x="514" 
d="M487 206l5 -2q-12 -101 -62.5 -157.5t-129.5 -56.5q-98 0 -162.5 85.5t-73.5 228.5h-50v20h49v10.5v10.5q0 8 0.5 17t1.5 24h-51v19h52q16 134 89.5 219.5t177.5 85.5q73 0 117.5 -33.5t44.5 -89.5q0 -36 -24 -59.5t-61 -23.5q-28 0 -48.5 12t-26.5 32q3 -1 7 -2t10 -1
q27 0 42.5 19t15.5 51q0 34 -19 54.5t-51 20.5q-66 0 -107 -75.5t-48 -209.5h168l-8 -19h-161v-14.5v-14.5v-20.5t1 -12.5h136l-7 -20h-128q8 -119 48.5 -185t107.5 -66q53 0 88.5 37.5t56.5 115.5z" />
    <glyph glyph-name="trademark" unicode="&#x2122;" horiz-adv-x="640" 
d="M52 700h180q9 0 15 0.5t11 2.5l13 -98h-2q-2 3 -14 22t-19 29q-12 14 -24 20.5t-27 6.5h-9v-238q0 -19 5 -28t25 -20v-2h-127v2q20 12 25 21t5 27v238h-11q-14 0 -26 -6.5t-24 -20.5q-3 -5 -11.5 -17.5t-20.5 -33.5h-3l14 98q5 -2 10.5 -2.5t14.5 -0.5zM386 700l55 -185
l58 185h98v-2q-19 -13 -22.5 -21.5t-3.5 -25.5v-208q0 -18 4 -26t22 -20v-2h-117v2q17 12 20.5 20t3.5 26v217l-85 -270h-2l-86 270v-217q0 -18 4 -26t22 -20v-2h-72v2q18 12 22 20t4 26v206q0 19 -4 28t-22 21v2h101z" />
    <glyph glyph-name="uni2153" unicode="&#x2153;" horiz-adv-x="365" 
d="M144 452v206q0 16 -9 23t-42 13v6h123v-248q0 -16 9 -23t41 -13v-6h-172v6q32 6 41 13t9 23zM22 342v16h321v-16h-321zM128 58q0 -21 12 -34t33 -13t35 20t14 49q0 35 -16 53t-47 18v9q28 1 40.5 17t12.5 50q0 24 -10 38.5t-27 14.5t-27.5 -11t-10.5 -28q0 -14 6 -23
t16 -9q5 0 6.5 0.5t2.5 1.5l2 -1q-5 -10 -15.5 -15.5t-24.5 -5.5q-20 0 -32 12t-12 31q0 28 25 45t64 17q49 0 77.5 -19t28.5 -51q0 -28 -21 -45.5t-58 -20.5q41 -2 66 -23t25 -55q0 -39 -33 -61.5t-87 -22.5q-46 0 -75 18.5t-29 50.5q0 22 14 35t37 13q16 0 26.5 -5.5
t14.5 -15.5l-2 -1q-2 1 -3.5 1.5t-5.5 0.5q-10 0 -16 -9.5t-6 -25.5z" />
    <glyph glyph-name="uni2154" unicode="&#x2154;" horiz-adv-x="365" 
d="M216 634q0 26 -12 40.5t-34 14.5q-20 0 -33 -13t-13 -32t9 -30.5t24 -11.5q7 0 10.5 1t7.5 5h2q-6 -16 -18.5 -25t-29.5 -9q-23 0 -38 15.5t-15 39.5q0 34 26 54.5t68 20.5q54 0 84.5 -21.5t30.5 -61.5q0 -38 -30 -71t-120 -85h70q41 1 55 8t27 28h4l-12 -91h-212v2
q89 87 119 131t30 91zM22 342v16h321v-16h-321zM128 58q0 -21 12 -34t33 -13t35 20t14 49q0 35 -16 53t-47 18v9q28 1 40.5 17t12.5 50q0 24 -10 38.5t-27 14.5t-27.5 -11t-10.5 -28q0 -14 6 -23t16 -9q5 0 6.5 0.5t2.5 1.5l2 -1q-5 -10 -15.5 -15.5t-24.5 -5.5
q-20 0 -32 12t-12 31q0 28 25 45t64 17q49 0 77.5 -19t28.5 -51q0 -28 -21 -45.5t-58 -20.5q41 -2 66 -23t25 -55q0 -39 -33 -61.5t-87 -22.5q-46 0 -75 18.5t-29 50.5q0 22 14 35t37 13q16 0 26.5 -5.5t14.5 -15.5l-2 -1q-2 1 -3.5 1.5t-5.5 0.5q-10 0 -16 -9.5t-6 -25.5z
" />
    <glyph glyph-name="uni215B" unicode="&#x215b;" horiz-adv-x="365" 
d="M153 452v206q0 16 -9 22.5t-43 13.5v6h124v-248q0 -16 9 -23t41 -13v-6h-172v6q32 6 41 13t9 23zM22 342v16h321v-16h-321zM282 232q0 -22 -17.5 -37t-45.5 -19q41 -14 61 -36.5t20 -54.5q0 -41 -30.5 -65t-81.5 -24q-52 0 -83 19.5t-31 52.5q0 24 18.5 40.5t50.5 22.5
q-26 10 -41.5 31t-15.5 46q0 39 27.5 62.5t72.5 23.5q43 0 69.5 -17t26.5 -45zM186 279q-22 0 -34.5 -10.5t-12.5 -28.5q0 -16 9.5 -27t30.5 -20l36 -15q12 9 18 22.5t6 31.5q0 21 -14.5 34t-38.5 13zM195 108l-48 20q-13 -8 -20 -22t-7 -33q0 -27 19 -44t49 -17q26 0 42 11
t16 30t-10 30.5t-41 24.5z" />
    <glyph glyph-name="uni215C" unicode="&#x215c;" horiz-adv-x="365" 
d="M136 468q0 -21 12.5 -34t32.5 -13q22 0 35.5 19.5t13.5 49.5q0 36 -15.5 53.5t-47.5 17.5v9q28 1 40.5 17t12.5 50q0 24 -10 38.5t-27 14.5q-16 0 -26.5 -11t-10.5 -28q0 -14 6 -23t16 -9q5 0 6.5 0.5t2.5 1.5l2 -1q-5 -10 -15.5 -15.5t-25.5 -5.5q-19 0 -31.5 12
t-12.5 31q0 28 25 45t64 17q49 0 77.5 -19t28.5 -51q0 -28 -21 -45.5t-58 -20.5q41 -2 66 -23t25 -55q0 -39 -32.5 -61.5t-87.5 -22.5q-45 0 -74 19t-29 50q0 22 14 35t36 13q16 0 27 -5.5t14 -15.5l-2 -1q-2 1 -3.5 1.5t-5.5 0.5q-10 0 -16 -9.5t-6 -25.5zM22 342v16h321
v-16h-321zM282 232q0 -22 -17.5 -37t-45.5 -19q41 -14 61 -36.5t20 -54.5q0 -41 -30.5 -65t-81.5 -24q-52 0 -83 19.5t-31 52.5q0 24 18.5 40.5t50.5 22.5q-26 10 -41.5 31t-15.5 46q0 39 27.5 62.5t72.5 23.5q43 0 69.5 -17t26.5 -45zM186 279q-22 0 -34.5 -10.5
t-12.5 -28.5q0 -16 9.5 -27t30.5 -20l36 -15q12 9 18 22.5t6 31.5q0 21 -14.5 34t-38.5 13zM195 108l-48 20q-13 -8 -20 -22t-7 -33q0 -27 19 -44t49 -17q26 0 42 11t16 30t-10 30.5t-41 24.5z" />
    <glyph glyph-name="uni215D" unicode="&#x215d;" horiz-adv-x="365" 
d="M199 600q45 0 72.5 -25t27.5 -66q0 -46 -34 -74.5t-87 -28.5q-44 0 -72 18.5t-28 50.5q0 22 13.5 35t35.5 13q15 0 26 -6t15 -16h-3q-2 1 -4 1.5t-4 0.5q-10 0 -16 -10t-6 -27q0 -20 11.5 -32.5t31.5 -12.5q24 0 37.5 22t13.5 57t-16 55.5t-43 20.5q-15 0 -29.5 -7
t-25.5 -19h-2l18 153q20 -3 44.5 -4.5t44.5 -1.5q30 0 44 4t25 14v0v0q0 -41 -17.5 -59.5t-54.5 -18.5q-18 0 -41.5 4t-36.5 10l-9 -76q13 12 30.5 18.5t38.5 6.5zM22 342v16h321v-16h-321zM282 232q0 -22 -17.5 -37t-45.5 -19q41 -14 61 -36.5t20 -54.5q0 -41 -30.5 -65
t-81.5 -24q-52 0 -83 19.5t-31 52.5q0 24 18.5 40.5t50.5 22.5q-26 10 -41.5 31t-15.5 46q0 39 27.5 62.5t72.5 23.5q43 0 69.5 -17t26.5 -45zM186 279q-22 0 -34.5 -10.5t-12.5 -28.5q0 -16 9.5 -27t30.5 -20l36 -15q12 9 18 22.5t6 31.5q0 21 -14.5 34t-38.5 13zM195 108
l-48 20q-13 -8 -20 -22t-7 -33q0 -27 19 -44t49 -17q26 0 42 11t16 30t-10 30.5t-41 24.5z" />
    <glyph glyph-name="uni215E" unicode="&#x215e;" horiz-adv-x="365" 
d="M97 595h-5l9 105h208v-1l-54 -85q-25 -39 -34 -90.5t-1 -109.5l-75 -8q6 55 27.5 103.5t67.5 106.5l15 20h-106q-20 0 -30 -8t-22 -33zM22 342v16h321v-16h-321zM282 232q0 -22 -17.5 -37t-45.5 -19q41 -14 61 -36.5t20 -54.5q0 -41 -30.5 -65t-81.5 -24q-52 0 -83 19.5
t-31 52.5q0 24 18.5 40.5t50.5 22.5q-26 10 -41.5 31t-15.5 46q0 39 27.5 62.5t72.5 23.5q43 0 69.5 -17t26.5 -45zM186 279q-22 0 -34.5 -10.5t-12.5 -28.5q0 -16 9.5 -27t30.5 -20l36 -15q12 9 18 22.5t6 31.5q0 21 -14.5 34t-38.5 13zM195 108l-48 20q-13 -8 -20 -22
t-7 -33q0 -27 19 -44t49 -17q26 0 42 11t16 30t-10 30.5t-41 24.5z" />
    <glyph glyph-name="minus" unicode="&#x2212;" horiz-adv-x="399" 
d="M356 308h-313v28h313v-28z" />
    <glyph glyph-name="approxequal" unicode="&#x2248;" horiz-adv-x="404" 
d="M129 372q-19 0 -40 -11t-44 -34v34q21 21 42 31t42 10q15 0 30.5 -4.5t43.5 -18.5q27 -14 41.5 -18t27.5 -4q21 0 43 11.5t44 34.5v-33q-21 -21 -43 -32t-44 -11q-14 0 -29 4.5t-43 18.5q-28 13 -42.5 17.5t-28.5 4.5zM129 286q-19 0 -40 -11.5t-44 -34.5v34
q21 21 42 31.5t42 10.5q15 0 30.5 -4.5t43.5 -18.5q27 -14 41.5 -18t27.5 -4q21 0 43 11.5t44 34.5v-34q-20 -21 -42 -31.5t-45 -10.5q-14 0 -29 4.5t-43 18.5q-28 13 -42.5 17.5t-28.5 4.5z" />
    <glyph glyph-name="notequal" unicode="&#x2260;" horiz-adv-x="404" 
d="M359 284v-27h-193l-62 -77h-33l62 77h-88v27h110l63 78h-173v27h195l60 75h33l-60 -75h86v-27h-108l-63 -78h171z" />
    <glyph glyph-name="lessequal" unicode="&#x2264;" horiz-adv-x="271" 
d="M243 236l-229 100v19l229 100v-29l-186 -81l186 -80v-29zM243 173h-229v27h229v-27z" />
    <glyph glyph-name="greaterequal" unicode="&#x2265;" horiz-adv-x="271" 
d="M29 455l228 -100v-19l-228 -100v29l186 80l-186 81v29zM29 200h228v-27h-228v27z" />
    <glyph glyph-name="commaaccent" unicode="&#xf6c3;" 
d="M245 -52q33 0 52.5 -20t19.5 -55q0 -46 -34.5 -75.5t-89.5 -31.5v14q38 3 60 20.5t26 48.5q-7 -7 -17.5 -10.5t-23.5 -3.5q-24 0 -39.5 15.5t-15.5 38.5q0 26 17.5 42.5t44.5 16.5z" />
    <glyph glyph-name="thinspace" horiz-adv-x="40" 
 />
    <glyph glyph-name="idotaccent" horiz-adv-x="218" 
d="M10 489h153v-388q0 -47 7.5 -65t34.5 -34v-2h-190v2q27 15 34 32t7 67v278q0 49 -9 70.5t-37 37.5v2zM108 576q-28 0 -47.5 20t-19.5 48t19.5 47.5t47.5 19.5q29 0 49 -19.5t20 -47.5t-20.5 -48t-48.5 -20z" />
    <glyph glyph-name="caron.Slovak" 
d="M214 749h100q-11 -52 -44 -112t-70 -96h-3q12 45 16.5 99t0.5 109z" />
    <glyph glyph-name="commaturn" 
d="M256 562q-33 0 -52.5 20.5t-19.5 55.5q0 46 34.5 75t89.5 31v-13q-38 -3 -60 -20.5t-26 -48.5q7 7 18 10.5t23 3.5q23 0 39 -16t16 -39q0 -26 -17.5 -42.5t-44.5 -16.5z" />
    <glyph glyph-name="dotbelow" 
d="M249 -188q-28 0 -47.5 19.5t-19.5 47.5t19.5 48t47.5 20q29 0 49 -20t20 -48t-20 -47.5t-49 -19.5z" />
    <glyph glyph-name="grave.cap" 
d="M168 879h119q3 -46 12.5 -78.5t28.5 -67.5h-3q-61 22 -101.5 59.5t-55.5 86.5z" />
    <glyph glyph-name="acute.cap" 
d="M209 879h119q-15 -49 -55.5 -86.5t-101.5 -59.5h-3q19 35 28.5 67.5t12.5 78.5z" />
    <glyph glyph-name="circumflex.cap" 
d="M374 728h-7q-38 5 -72 19t-53 33q-20 -19 -55 -33t-72 -19h-6q51 40 81 79t49 87h5q19 -48 49 -87t81 -79z" />
    <glyph glyph-name="tilde.cap" 
d="M387 886h6q-9 -69 -32 -105.5t-58 -36.5q-11 0 -24 6t-39 26q-25 19 -37.5 25t-22.5 6q-22 0 -37.5 -16.5t-28.5 -53.5h-7q9 69 32.5 106.5t56.5 37.5q12 0 25.5 -6.5t39.5 -26.5q25 -18 37 -24t22 -6q21 0 37 15.5t30 52.5z" />
    <glyph glyph-name="macron.cap" 
d="M367 794v-36h-231v36h231z" />
    <glyph glyph-name="breve.cap" 
d="M361 880h5q-6 -74 -34.5 -110.5t-81.5 -36.5t-82 36.5t-35 110.5h6q6 -35 35.5 -54.5t75.5 -19.5q45 0 75 19.5t36 54.5z" />
    <glyph glyph-name="dotaccent.cap" 
d="M249 743q-28 0 -47.5 20t-19.5 48t19.5 48t47.5 20t48.5 -20t20.5 -48t-20.5 -48t-48.5 -20z" />
    <glyph glyph-name="dieresis.cap" 
d="M239 799q0 -25 -17 -42.5t-42 -17.5q-24 0 -42 18t-18 42t18 42.5t42 18.5q25 0 42 -18t17 -43zM380 799q0 -24 -18 -42t-42 -18q-25 0 -42.5 17.5t-17.5 42.5t17.5 43t42.5 18q24 0 42 -18.5t18 -42.5z" />
    <glyph glyph-name="ring.cap" 
d="M164 807q0 34 25.5 59.5t60.5 25.5t60.5 -25t25.5 -60q0 -34 -25.5 -59t-60.5 -25t-60.5 25t-25.5 59zM188 807q0 -25 18.5 -43.5t43.5 -18.5q26 0 44 18.5t18 43.5q0 26 -18 44t-44 18q-25 0 -43.5 -18t-18.5 -44z" />
    <glyph glyph-name="hungarumlaut.cap" 
d="M160 885h99q-15 -48 -45 -84t-82 -68h-3q16 40 23.5 77t7.5 75zM277 885h99q-15 -48 -45 -84t-82 -68h-3q16 40 23.5 77t7.5 75z" />
    <glyph glyph-name="caron.cap" 
d="M109 894h6q38 -5 72.5 -18.5t54.5 -32.5q19 19 53 32.5t72 18.5h7q-51 -40 -81 -79t-49 -87h-5q-19 48 -49 87t-81 79z" />
    <glyph glyph-name="exclamdown.cap" horiz-adv-x="233" 
d="M119 487l72 -487h-149l72 487h5zM116 562q-30 0 -51 21t-21 52q0 30 21 51t51 21t51 -21t21 -51q0 -31 -21 -52t-51 -21z" />
    <glyph glyph-name="questiondown.cap" horiz-adv-x="421" 
d="M113 143q0 -59 29.5 -95.5t78.5 -36.5q44 0 70 29.5t26 77.5q0 36 -17 59t-43 23q-9 0 -18 -3t-15 -9l-1 1q10 31 31.5 48.5t50.5 17.5q42 0 70 -30.5t28 -77.5q0 -68 -52 -112t-132 -44q-89 0 -144.5 54t-55.5 138q0 86 54 151t143 91v67h20v-176q-60 -18 -91.5 -62
t-31.5 -111zM299 636q0 -31 -20.5 -52t-50.5 -21q-31 0 -52 21t-21 52q0 30 21 51t52 21q30 0 50.5 -21t20.5 -51z" />
    <glyph glyph-name="guilsinglleft.cap" horiz-adv-x="216" 
d="M15 343v2q55 35 102 83t78 102h6q-15 -59 -34.5 -105.5t-43.5 -80.5q24 -34 43.5 -80.5t34.5 -105.5h-6q-31 54 -78 102t-102 83z" />
    <glyph glyph-name="guilsinglright.cap" horiz-adv-x="216" 
d="M201 345v-2q-55 -35 -102 -83t-77 -102h-7q15 59 35 105.5t44 80.5q-24 34 -44 80.5t-35 105.5h7q30 -54 77 -102t102 -83z" />
    <glyph glyph-name="guillemotleft.cap" horiz-adv-x="355" 
d="M15 343v2q55 35 102 83t78 102h6q-15 -59 -34.5 -105.5t-43.5 -80.5q24 -34 43.5 -80.5t34.5 -105.5h-6q-31 54 -78 102t-102 83zM153 343v2q55 35 102 83t78 102h6q-15 -59 -34.5 -105.5t-43.5 -80.5q24 -34 43.5 -80.5t34.5 -105.5h-6q-31 54 -78 102t-102 83z" />
    <glyph glyph-name="guillemotright.cap" horiz-adv-x="355" 
d="M201 345v-2q-55 -35 -102 -83t-77 -102h-7q15 59 35 105.5t44 80.5q-24 34 -44 80.5t-35 105.5h7q30 -54 77 -102t102 -83zM339 345v-2q-55 -35 -102 -83t-77 -102h-7q15 59 35 105.5t44 80.5q-24 34 -44 80.5t-35 105.5h7q30 -54 77 -102t102 -83z" />
    <glyph glyph-name="slash.cap" horiz-adv-x="335" 
d="M33 -103h-31l285 872h30z" />
    <glyph glyph-name="backslash.cap" horiz-adv-x="335" 
d="M18 769h31l284 -872h-30z" />
    <glyph glyph-name="bar.cap" horiz-adv-x="191" 
d="M109 -103h-27v872h27v-872z" />
    <glyph glyph-name="periodcentered.cap" horiz-adv-x="214" 
d="M107 417q30 0 51 -21t21 -52q0 -30 -21 -51t-51 -21t-51 21t-21 51q0 31 21 52t51 21z" />
    <glyph glyph-name="bullet.cap" horiz-adv-x="312" 
d="M156 221q-51 0 -87.5 36.5t-36.5 88.5q0 51 36.5 87.5t87.5 36.5t88 -36.5t37 -87.5t-37 -88t-88 -37z" />
    <glyph glyph-name="hyphen.cap" horiz-adv-x="203" 
d="M174 332h-144v40h144v-40z" />
    <glyph glyph-name="endash.cap" horiz-adv-x="374" 
d="M345 334h-315v33h315v-33z" />
    <glyph glyph-name="emdash.cap" horiz-adv-x="570" 
d="M540 334h-510v33h510v-33z" />
    <glyph glyph-name="parenleft.cap" horiz-adv-x="275" 
d="M39 334q0 137 56 249.5t159 186.5h13q-57 -63 -87.5 -176t-30.5 -260t30.5 -260t87.5 -176h-13q-104 74 -159.5 186t-55.5 250z" />
    <glyph glyph-name="parenright.cap" horiz-adv-x="275" 
d="M236 334q0 -138 -55.5 -250t-159.5 -186h-13q57 63 87.5 176t30.5 260t-30.5 260t-87.5 176h13q104 -74 159.5 -186t55.5 -250z" />
    <glyph glyph-name="bracketleft.cap" horiz-adv-x="269" 
d="M251 -102h-185v872h185v-4l-88 -32v-799l88 -33v-4z" />
    <glyph glyph-name="bracketright.cap" horiz-adv-x="269" 
d="M18 -98l88 33v799l-88 32v4h185v-872h-185v4z" />
    <glyph glyph-name="braceleft.cap" horiz-adv-x="300" 
d="M105 186q0 70 -23 106t-70 38v7q46 2 69.5 38t23.5 107q0 11 -1 23.5t-5 38.5q-4 30 -5.5 46t-1.5 30q0 67 42 108.5t111 41.5q13 0 23 -1t19 -3v-5q-47 0 -72.5 -36t-25.5 -102q0 -12 1.5 -27t5.5 -47t5 -46.5t1 -26.5q0 -59 -37.5 -97t-93.5 -45q57 -8 94 -46t37 -96
q0 -12 -1 -27t-5 -46q-5 -32 -6 -47t-1 -27q0 -66 25.5 -102.5t72.5 -36.5v-5q-7 -2 -15.5 -2.5t-26.5 -0.5q-69 0 -111 41t-42 108q0 14 1.5 30t5.5 46q4 27 5 39.5t1 23.5z" />
    <glyph glyph-name="braceright.cap" horiz-adv-x="300" 
d="M195 186q0 -11 1 -23.5t5 -38.5q4 -30 5.5 -46t1.5 -30q0 -67 -42 -108.5t-111 -41.5q-13 0 -23 1t-19 3v4q47 0 72.5 36.5t25.5 102.5q0 12 -1.5 27t-5.5 47t-5 46.5t-1 26.5q0 59 37.5 97t93.5 45q-56 7 -93.5 45t-37.5 97q0 12 1 26.5t5 46.5t5.5 47t1.5 27
q0 66 -25.5 102.5t-72.5 36.5v4q9 2 19 3t23 1q69 0 111 -41.5t42 -108.5q0 -14 -1.5 -30t-5.5 -46q-4 -26 -5 -38.5t-1 -23.5q0 -71 23.5 -107t69.5 -38v-6q-46 -2 -69.5 -38t-23.5 -107z" />
    <glyph glyph-name="at.cap" horiz-adv-x="673" 
d="M441 458q14 26 38.5 49t45.5 30l-57 -296q-8 -42 1.5 -63.5t36.5 -21.5q43 0 73 70.5t30 181.5q0 143 -69 229.5t-180 86.5q-121 0 -200.5 -117.5t-79.5 -296.5q0 -164 78 -264t203 -100q75 0 129.5 23t104.5 76l3 -5q-44 -61 -107 -92.5t-139 -31.5q-149 0 -241.5 108
t-92.5 287q0 83 21.5 158t62.5 134q49 69 116 107t142 38q129 0 212 -94t83 -246q0 -129 -47 -207t-117 -78q-43 0 -69 24.5t-31 71.5q-17 -47 -44 -71.5t-62 -24.5q-49 0 -80 42t-31 109q0 109 52 187.5t126 78.5q34 0 58 -22.5t31 -59.5zM319 164q26 0 45.5 36t31.5 105
l17 87q11 58 1 89t-38 31q-44 0 -78 -76t-34 -168q0 -52 14 -78t41 -26z" />
    <glyph glyph-name="published" horiz-adv-x="603" 
d="M302 710q116 0 195.5 -103t79.5 -257t-79.5 -257t-195.5 -103q-117 0 -196.5 103.5t-79.5 256.5t79.5 256.5t196.5 103.5zM302 10q109 0 182.5 97.5t73.5 242.5t-73.5 242.5t-182.5 97.5t-182.5 -97t-73.5 -243t73.5 -243t182.5 -97zM317 315h-40v-96q0 -30 8.5 -44.5
t30.5 -24.5v-2h-150v2q16 9 22 23t6 48v263q0 34 -6 48.5t-22 23.5v1h151q65 0 104 -32.5t39 -88.5t-39 -88.5t-104 -32.5zM277 542v-212h19q39 0 60 28t21 78t-21 78t-60 28h-19z" />
    <glyph glyph-name="florin.op" horiz-adv-x="445" 
d="M38 -189q-54 0 -86 23t-32 62q0 29 17.5 46t47.5 18q15 0 30 -5t25 -14q-20 -1 -31 -17.5t-11 -45.5q0 -27 9 -39t29 -12q25 0 40 27t22 87l35 339h-76l3 20h75l15 145q10 91 54 140.5t115 49.5q55 0 87.5 -23t32.5 -64q0 -29 -17.5 -46.5t-47.5 -17.5q-16 0 -31 5.5
t-23 13.5q20 1 31 17t11 45q0 27 -10 40.5t-30 13.5q-26 0 -41 -27.5t-21 -85.5l-22 -206h108l-3 -20h-107l-29 -279q-9 -90 -53.5 -140t-115.5 -50z" />
    <glyph glyph-name="Euro.op" horiz-adv-x="473" 
d="M449 183l6 -1q-9 -89 -55 -140.5t-117 -51.5q-88 0 -145.5 75t-66.5 202h-50v20h49v10.5v10.5q0 7 0.5 15.5t1.5 24.5h-51v20h53q15 118 80.5 193t157.5 75q65 0 105 -31t40 -82q0 -33 -21.5 -54t-54.5 -21q-24 0 -42.5 11t-24.5 29q3 -1 7.5 -2t8.5 -1q23 0 37 17.5
t14 45.5q0 30 -17 48.5t-45 18.5q-58 0 -94.5 -66t-43.5 -181h166l-7 -20h-160v-14v-14v-20.5t1 -12.5h135l-8 -20h-126q8 -105 44 -162.5t94 -57.5q47 0 79 33.5t50 102.5z" />
    <glyph glyph-name="dollar.op" horiz-adv-x="426" 
d="M214 617q-5 0 -10 -0.5t-13 -1.5v-222l45 -20v243q-4 1 -8.5 1h-13.5zM105 508q0 -39 16 -64t54 -43v210q-32 -11 -51 -39t-19 -64zM205 9q8 0 15.5 0.5t15.5 2.5v241l-45 20v-263q3 -1 5.5 -1h8.5zM332 136q0 42 -16.5 66t-64.5 44v-231q39 11 60 42t21 79zM205 -10
h-6.5h-7.5v-104h-16v105q-73 7 -117 42t-44 86q0 32 21 53t51 21q16 0 28.5 -6t20.5 -18q-18 0 -29.5 -15t-11.5 -41q0 -40 21.5 -67t59.5 -34v269h-1q-79 35 -112 77t-33 102q0 67 40 114t106 59v96h16v-94q4 1 8.5 1h14.5h13.5t8.5 -1v94h15v-95q62 -8 98.5 -38.5
t36.5 -75.5q0 -30 -17.5 -48t-44.5 -18q-16 0 -29.5 5.5t-19.5 15.5q17 0 28.5 16t11.5 41q0 32 -16.5 52.5t-47.5 28.5v-247l11 -5q83 -37 113.5 -78t30.5 -103q0 -70 -43 -120.5t-112 -64.5v-109h-15v106q-11 -1 -18 -1.5t-13 -0.5z" />
    <glyph glyph-name="sterling.op" horiz-adv-x="483" 
d="M470 91q0 -50 -33 -78.5t-88 -28.5q-24 0 -46.5 5.5t-45.5 17.5q-10 5 -21.5 12.5t-55.5 40.5q-20 -34 -47 -52t-59 -18q-31 0 -49.5 17t-18.5 45q0 30 21.5 48.5t55.5 18.5q13 0 27.5 -2.5t30.5 -7.5q2 12 3 26t1 31q0 40 -4.5 75.5t-14.5 78.5h-69v18h65
q-9 36 -12.5 59.5t-3.5 46.5q0 87 55 139.5t148 52.5q68 0 108 -31t40 -83q0 -36 -22 -58.5t-55 -22.5q-23 0 -43 10t-28 26q32 -1 49.5 18.5t17.5 57.5q0 29 -16 47t-43 18q-44 0 -67.5 -38.5t-23.5 -111.5v-130h122v-18h-122v-49q0 -53 -8 -98.5t-23 -81.5
q38 -14 66.5 -19.5t56.5 -5.5q47 0 72.5 20.5t25.5 58.5q0 11 -3 21t-10 19q31 -11 49 -36t18 -58zM27 52q0 -19 11.5 -30t30.5 -11q25 0 42.5 20t25.5 57q-12 7 -25.5 10.5t-28.5 3.5q-25 0 -40.5 -14t-15.5 -36z" />
    <glyph glyph-name="yen.op" horiz-adv-x="498" 
d="M358 2v-2h-221v2q35 16 46 35.5t11 61.5v124h-115v19h115v19l-21 44h-94v19h86l-99 211q-19 41 -32.5 58t-33.5 31v2h202v-2q-17 -10 -24.5 -20.5t-7.5 -24.5q0 -9 3 -20t9 -25l104 -242l105 227q6 15 9 26.5t3 20.5q0 19 -11.5 34t-33.5 24v2h140v-2
q-22 -14 -36.5 -32.5t-33.5 -56.5l-98 -211h86v-19h-95l-20 -44v-19h115v-19h-115v-124q0 -42 11 -61.5t46 -35.5z" />
    <glyph glyph-name="zero.op" horiz-adv-x="495" 
d="M248 636q97 0 158.5 -91t61.5 -232t-61.5 -232t-158.5 -91q-98 0 -159.5 91t-61.5 232t61.5 232t159.5 91zM248 11q53 0 77.5 69t24.5 233t-24.5 233t-77.5 69q-54 0 -78.5 -69t-24.5 -233t24.5 -233t78.5 -69z" />
    <glyph glyph-name="one.op" horiz-adv-x="298" 
d="M289 4v-4h-275v4q36 15 44.5 19t14.5 7q15 9 20 20.5t5 34.5v453q0 23 -6 34.5t-23 21.5q-5 3 -13 7t-49 21v4h200v-541q0 -23 5 -34.5t19 -19.5q6 -4 13.5 -7.5t44.5 -19.5z" />
    <glyph glyph-name="two.op" horiz-adv-x="413" 
d="M273 475q0 70 -21 106.5t-62 36.5q-38 0 -60.5 -31t-22.5 -83q0 -41 20 -66t53 -25q10 0 17 1.5t17 7.5h2q-9 -28 -32 -44t-53 -16q-48 0 -77 32t-29 83q0 68 47.5 113t118.5 45q86 0 138 -48.5t52 -130.5q0 -50 -25 -101t-80 -108q-27 -28 -64.5 -61.5t-114.5 -97.5h123
q80 0 108 18.5t55 75.5h4l-18 -182h-377v2q173 183 227 275t54 198z" />
    <glyph glyph-name="three.op" horiz-adv-x="412" 
d="M107 114q0 -47 24 -76t62 -29q47 0 72 42.5t25 120.5t-32.5 119t-95.5 41v10q56 2 81.5 36.5t25.5 111.5q0 61 -19.5 94t-56.5 33q-32 0 -50.5 -23.5t-18.5 -63.5q0 -29 13.5 -47.5t34.5 -18.5q6 0 11.5 1t9.5 3h1q-8 -22 -26 -33.5t-44 -11.5q-34 0 -56.5 23t-22.5 60
q0 55 43.5 92.5t106.5 37.5q79 0 127.5 -40.5t48.5 -105.5q0 -61 -37.5 -100t-105.5 -49q75 -5 122 -51t47 -117q0 -84 -56.5 -133.5t-148.5 -49.5q-79 0 -129 38t-50 103q0 43 28 70.5t69 27.5q25 0 42.5 -12.5t26.5 -36.5h-3q-4 2 -9.5 3t-14.5 1q-20 0 -32.5 -19.5
t-12.5 -50.5z" />
    <glyph glyph-name="four.op" horiz-adv-x="440" 
d="M48 203h170v300zM218 126v50h-214v3l257 447h63v-423h14q35 0 50 12.5t34 61.5h2v-174h-2q-19 48 -34 60.5t-50 12.5h-14v-50q0 -56 13 -82.5t44 -41.5v-2h-219v2q31 15 43.5 41t12.5 83z" />
    <glyph glyph-name="five.op" horiz-adv-x="418" 
d="M101 116q0 -48 23 -77.5t61 -29.5q51 0 79 51t28 141q0 76 -30 120.5t-83 44.5q-28 0 -57 -19t-51 -51h-1l31 338q44 -8 85 -12.5t72 -4.5q58 0 82 10.5t42 36.5h1q0 -76 -31.5 -113.5t-94.5 -37.5q-34 0 -74 7t-69 18l-16 -189q22 26 54.5 40t71.5 14q79 0 127 -53.5
t48 -141.5q0 -94 -62.5 -156t-151.5 -62q-74 0 -123.5 40.5t-49.5 104.5q0 44 26 72.5t63 28.5q29 0 46.5 -12.5t23.5 -36.5h-1q-4 3 -8.5 4.5t-10.5 1.5q-20 -1 -35 -22.5t-15 -54.5z" />
    <glyph glyph-name="six.op" horiz-adv-x="471" 
d="M92 570q38 67 90 103.5t111 36.5q67 0 107 -33t40 -89q0 -39 -23 -63.5t-59 -24.5q-29 0 -51 15t-29 40h2q6 -3 13 -5t14 -2q24 0 39 19t15 51q0 34 -17.5 53.5t-47.5 19.5q-72 0 -117.5 -95t-45.5 -231q0 -10 0.5 -22.5t1.5 -26.5q19 62 52 90t84 28q76 0 125 -58
t49 -156q0 -101 -56 -165.5t-144 -64.5q-99 0 -158 92t-59 239q0 65 16.5 130t47.5 119zM244 10q44 0 69.5 56t25.5 148q0 89 -26 140t-72 51q-44 0 -70.5 -53.5t-26.5 -137.5q0 -92 26.5 -148t73.5 -56z" />
    <glyph glyph-name="seven.op" horiz-adv-x="422" 
d="M14 433l21 203q11 -5 29.5 -7.5t44.5 -2.5h304v-2l-87 -158q-50 -93 -69.5 -202t-12.5 -332l-119 -12q10 148 51.5 277t129.5 278l31 50h-183q-56 0 -85.5 -20.5t-52.5 -71.5h-2z" />
    <glyph glyph-name="eight.op" horiz-adv-x="436" 
d="M385 492q0 -49 -30.5 -81.5t-91.5 -47.5q79 -34 117 -80.5t38 -110.5q0 -78 -56 -130t-141 -52q-90 0 -146.5 46t-56.5 120q0 50 35 88t96 56q-47 26 -74.5 69.5t-27.5 94.5q0 74 49 123t122 49q71 0 119 -41t48 -103zM218 617q-38 0 -64 -31.5t-26 -81.5
q0 -37 17.5 -62.5t61.5 -49.5l47 -24q29 25 42 54.5t13 70.5q0 59 -24 91.5t-67 32.5zM332 136q0 38 -18.5 63t-70.5 53l-84 43q-28 -20 -43 -54.5t-15 -79.5q0 -69 33 -110t87 -41q49 0 80 35t31 91z" />
    <glyph glyph-name="nine.op" horiz-adv-x="472" 
d="M380 56q-38 -67 -90 -103.5t-111 -36.5q-67 0 -107 33t-40 89q0 39 23 63.5t59 24.5q29 0 51 -15t29 -40h-2q-6 3 -13 5t-14 2q-24 0 -39 -19t-15 -51q0 -34 17.5 -53.5t47.5 -19.5q72 0 117.5 95t45.5 231q0 10 -0.5 22.5t-1.5 26.5q-19 -62 -52 -90t-84 -28
q-76 0 -125 58t-49 156q0 101 56 165.5t144 64.5q99 0 158 -92t59 -239q0 -65 -16.5 -130t-47.5 -119zM228 616q-44 0 -69.5 -56t-25.5 -148q0 -89 26 -140t72 -51q44 0 70.5 53.5t26.5 137.5q0 92 -26.5 148t-73.5 56z" />
    <glyph glyph-name="percent.op" horiz-adv-x="512" 
d="M447 636l-358 -636h-38l354 597q-25 -22 -50 -33t-50 -11q-13 0 -27.5 3t-31.5 10q9 -17 13.5 -36.5t4.5 -40.5q0 -61 -35.5 -104t-86.5 -43t-86.5 43t-35.5 104q0 60 36 103.5t86 43.5q21 0 38.5 -6t45.5 -26q27 -19 44 -25t36 -6q30 0 55.5 12.5t74.5 59.5zM91 489
q0 -63 13 -96.5t38 -33.5t37.5 33t12.5 97q0 63 -13 96.5t-37 33.5q-25 0 -38 -34t-13 -96zM492 142q0 -60 -36 -103.5t-86 -43.5t-86 43.5t-36 103.5q0 61 35.5 104t86.5 43t86.5 -43t35.5 -104zM319 142q0 -62 13 -96t38 -34q24 0 37 33.5t13 96.5q0 64 -12.5 97t-37.5 33
t-38 -33.5t-13 -96.5z" />
    <glyph glyph-name="perthousand.op" horiz-adv-x="784" 
d="M447 636l-358 -636h-38l354 597q-25 -22 -50 -33t-50 -11q-13 0 -27.5 3t-31.5 10q9 -17 13.5 -36.5t4.5 -40.5q0 -61 -35.5 -104t-86.5 -43t-86.5 43t-35.5 104q0 60 36 103.5t86 43.5q21 0 38.5 -6t45.5 -26q27 -19 44 -25t36 -6q30 0 55.5 12.5t74.5 59.5zM91 489
q0 -63 13 -96.5t38 -33.5t37.5 33t12.5 97q0 63 -13 96.5t-37 33.5q-25 0 -38 -34t-13 -96zM492 142q0 -60 -36 -103.5t-86 -43.5t-86 43.5t-36 103.5q0 61 35.5 104t86.5 43t86.5 -43t35.5 -104zM764 142q0 -60 -36 -103.5t-86 -43.5t-86 43.5t-36 103.5q0 61 35.5 104
t86.5 43t86.5 -43t35.5 -104zM319 142q0 -62 13 -96t38 -34q24 0 37 33.5t13 96.5q0 64 -12.5 97t-37.5 33t-38 -33.5t-13 -96.5zM591 142q0 -62 13 -96t38 -34q24 0 37 33.5t13 96.5q0 64 -12.5 97t-37.5 33t-38 -33.5t-13 -96.5z" />
    </font>
</defs>
</svg>
